<?xml version="1.0" encoding="UTF-8"?>
<svg width="106px" height="3192px" viewBox="0 0 106 3192" version="1.1" xmlns="http://www.w3.org/2000/svg" xmlns:xlink="http://www.w3.org/1999/xlink">
    <!-- Generator: Sketch 52.2 (67145) - http://www.bohemiancoding.com/sketch -->
    <title>Group 13 Copy 2</title>
    <desc>Created with Sketch.</desc>
    <g id="Page-1" stroke="none" stroke-width="1" fill="none" fill-rule="evenodd">
        <g id="Group-13-Copy" transform="translate(0.000000, 1.000000)">
            <g id="Group-25" transform="translate(93.000000, 1595.000000) rotate(-90.000000) translate(-93.000000, -1595.000000) translate(-1502.000000, 1581.000000)">
                <path d="M1604.752,2.72 L1620.964,2.72 L1620.964,4.68 L1615.084,4.68 L1615.084,23.972 C1615.084,25.708 1614.188,26.604 1612.452,26.604 L1608.784,26.604 L1608.364,24.644 C1609.54,24.728 1610.688,24.784 1611.752,24.784 C1612.592,24.784 1613.012,24.336 1613.012,23.468 L1613.012,4.68 L1604.752,4.68 L1604.752,2.72 Z M1598.564,1.376 C1600.44,2.804 1602.036,4.232 1603.324,5.688 L1601.952,7.088 C1600.776,5.716 1599.152,4.26 1597.136,2.748 L1598.564,1.376 Z M1595.26,9.692 L1601.308,9.692 L1601.308,22.236 C1602.372,21.396 1603.548,20.416 1604.808,19.268 L1605.34,21.396 C1603.52,23.048 1601.56,24.504 1599.488,25.792 L1598.732,24 C1599.152,23.636 1599.376,23.244 1599.376,22.796 L1599.376,11.624 L1595.26,11.624 L1595.26,9.692 Z" id="订-copy" fill="#555555"></path>
                <path d="M2194.144,21.228 L2194.144,23.16 C2191.4,24.224 2188.264,25.092 2184.736,25.736 L2184.484,23.776 C2188.18,23.16 2191.4,22.292 2194.144,21.228 Z M2189.16,0.984 L2191.092,1.74 C2189.664,5.38 2188.208,8.292 2186.752,10.476 C2188.012,10.364 2189.272,10.196 2190.532,10 C2191.036,8.992 2191.596,7.928 2192.156,6.808 L2193.948,7.48 C2191.484,12.212 2189.412,15.572 2187.788,17.56 C2189.804,17.168 2191.82,16.636 2193.836,15.964 L2193.836,17.784 C2190.896,18.736 2188.096,19.408 2185.408,19.772 L2184.848,17.924 C2185.212,17.756 2185.52,17.56 2185.772,17.336 C2186.808,16.272 2188.068,14.424 2189.524,11.82 C2187.984,12.044 2186.416,12.24 2184.848,12.436 L2184.372,10.588 C2184.68,10.476 2184.96,10.224 2185.212,9.86 C2186.724,7.284 2188.04,4.316 2189.16,0.984 Z M2207.724,6.08 L2208.004,7.928 L2200.808,8.936 C2200.864,10.28 2200.948,11.54 2201.06,12.744 L2208.48,11.568 L2208.788,13.472 L2201.284,14.648 C2201.34,15.152 2201.424,15.656 2201.508,16.104 C2201.788,17.56 2202.124,18.82 2202.516,19.94 C2204.028,18.54 2205.372,16.972 2206.548,15.18 L2208.144,16.272 C2206.66,18.428 2205.064,20.276 2203.328,21.788 C2203.44,21.956 2203.524,22.152 2203.636,22.32 C2204.56,23.692 2205.372,24.392 2206.1,24.392 C2206.828,24.392 2207.472,22.88 2207.976,19.884 L2209.684,21.004 C2208.9,24.7 2207.78,26.576 2206.324,26.576 C2204.98,26.52 2203.72,25.68 2202.516,24 C2202.264,23.664 2202.04,23.328 2201.872,22.964 C2199.8,24.504 2197.56,25.652 2195.18,26.38 L2194.004,24.756 C2196.58,23.916 2198.904,22.74 2200.976,21.2 C2200.444,19.968 2200.024,18.624 2199.688,17.112 C2199.52,16.384 2199.408,15.684 2199.296,14.956 L2194.256,15.768 L2193.976,13.864 L2199.044,13.052 C2198.904,11.848 2198.82,10.56 2198.792,9.216 L2194.76,9.804 L2194.452,7.956 L2198.736,7.34 L2198.736,1.124 L2200.752,1.124 L2200.752,7.06 L2207.724,6.08 Z M2203.888,1.04 C2205.316,2.384 2206.408,3.532 2207.192,4.512 L2205.624,5.604 C2204.84,4.512 2203.72,3.308 2202.32,2.02 L2203.888,1.04 Z" id="线" fill="#555555"></path>
                <path d="M1014.512,1.152 L1016.556,1.152 L1016.556,13.752 L1014.512,13.752 L1014.512,9.748 C1012.748,10.756 1010.704,11.708 1008.352,12.576 L1007.568,10.756 C1010.228,9.916 1012.552,8.908 1014.512,7.788 L1014.512,1.152 Z M1018.264,4.316 L1024.228,4.316 L1024.228,1.068 L1026.272,1.068 L1026.272,4.316 L1032.152,4.316 L1032.152,6.136 L1026.272,6.136 L1026.272,10.28 L1031.368,10.28 L1031.368,12.1 L1019.132,12.1 L1019.132,10.28 L1024.228,10.28 L1024.228,6.136 L1018.264,6.136 L1018.264,4.316 Z M1009.108,2.328 C1010.704,3.084 1012.16,4.008 1013.504,5.1 L1012.468,6.696 C1011.012,5.492 1009.556,4.568 1008.044,3.896 L1009.108,2.328 Z M1007.596,15.32 L1019.58,15.32 C1019.188,14.592 1018.74,13.892 1018.236,13.248 L1020.084,12.632 C1020.644,13.416 1021.176,14.312 1021.652,15.32 L1032.404,15.32 L1032.404,17.168 L1021.96,17.168 C1022.8,18.596 1023.808,19.856 1025.012,20.948 C1026.608,19.968 1027.98,18.848 1029.1,17.616 L1030.528,18.876 C1029.352,20.08 1028.008,21.144 1026.44,22.096 C1028.204,23.384 1030.276,24.364 1032.656,25.092 L1031.508,26.856 C1026.216,25.036 1022.408,21.816 1020.056,17.168 C1018.88,18.456 1017.368,19.632 1015.52,20.724 L1015.52,24.532 C1017.732,24.084 1019.776,23.524 1021.68,22.908 L1022.016,24.7 C1019.58,25.428 1016.64,26.1 1013.196,26.772 L1012.776,25.036 C1013.364,24.812 1013.672,24.476 1013.672,24.028 L1013.672,21.676 C1012.104,22.404 1010.396,23.104 1008.492,23.72 L1007.456,22.012 C1012.216,20.752 1015.688,19.128 1017.928,17.168 L1007.596,17.168 L1007.596,15.32 Z" id="装-copy" fill="#555555"></path>
                <path d="M1318.5,-236.424347 L1320.5,-236.424347 L1320.5,-227.424347 L1318.5,-227.424347 L1318.5,-236.424347 Z M1318.5,-218.424347 L1320.5,-218.424347 L1320.5,-209.424347 L1318.5,-209.424347 L1318.5,-218.424347 Z M1318.5,-200.424347 L1320.5,-200.424347 L1320.5,-191.424347 L1318.5,-191.424347 L1318.5,-200.424347 Z M1318.5,-182.424347 L1320.5,-182.424347 L1320.5,-173.424347 L1318.5,-173.424347 L1318.5,-182.424347 Z M1318.5,-164.424347 L1320.5,-164.424347 L1320.5,-155.424347 L1318.5,-155.424347 L1318.5,-164.424347 Z M1318.5,-146.424347 L1320.5,-146.424347 L1320.5,-137.424347 L1318.5,-137.424347 L1318.5,-146.424347 Z M1318.5,-128.424347 L1320.5,-128.424347 L1320.5,-119.424347 L1318.5,-119.424347 L1318.5,-128.424347 Z M1318.5,-110.424347 L1320.5,-110.424347 L1320.5,-101.424347 L1318.5,-101.424347 L1318.5,-110.424347 Z M1318.5,-92.4243467 L1320.5,-92.4243467 L1320.5,-83.4243467 L1318.5,-83.4243467 L1318.5,-92.4243467 Z M1318.5,-74.4243467 L1320.5,-74.4243467 L1320.5,-65.4243467 L1318.5,-65.4243467 L1318.5,-74.4243467 Z M1318.5,-56.4243467 L1320.5,-56.4243467 L1320.5,-47.4243467 L1318.5,-47.4243467 L1318.5,-56.4243467 Z M1318.5,-38.4243467 L1320.5,-38.4243467 L1320.5,-29.4243467 L1318.5,-29.4243467 L1318.5,-38.4243467 Z M1318.5,-20.4243467 L1320.5,-20.4243467 L1320.5,-11.4243467 L1318.5,-11.4243467 L1318.5,-20.4243467 Z M1318.5,-2.42434669 L1320.5,-2.42434669 L1320.5,6.57565331 L1318.5,6.57565331 L1318.5,-2.42434669 Z M1318.5,15.5756533 L1320.5,15.5756533 L1320.5,24.5756533 L1318.5,24.5756533 L1318.5,15.5756533 Z M1318.5,33.5756533 L1320.5,33.5756533 L1320.5,42.5756533 L1318.5,42.5756533 L1318.5,33.5756533 Z M1318.5,51.5756533 L1320.5,51.5756533 L1320.5,60.5756533 L1318.5,60.5756533 L1318.5,51.5756533 Z M1318.5,69.5756533 L1320.5,69.5756533 L1320.5,78.5756533 L1318.5,78.5756533 L1318.5,69.5756533 Z M1318.5,87.5756533 L1320.5,87.5756533 L1320.5,96.5756533 L1318.5,96.5756533 L1318.5,87.5756533 Z M1318.5,105.575653 L1320.5,105.575653 L1320.5,114.575653 L1318.5,114.575653 L1318.5,105.575653 Z M1318.5,123.575653 L1320.5,123.575653 L1320.5,132.575653 L1318.5,132.575653 L1318.5,123.575653 Z M1318.5,141.575653 L1320.5,141.575653 L1320.5,150.575653 L1318.5,150.575653 L1318.5,141.575653 Z M1318.5,159.575653 L1320.5,159.575653 L1320.5,168.575653 L1318.5,168.575653 L1318.5,159.575653 Z M1318.5,177.575653 L1320.5,177.575653 L1320.5,186.575653 L1318.5,186.575653 L1318.5,177.575653 Z M1318.5,195.575653 L1320.5,195.575653 L1320.5,204.575653 L1318.5,204.575653 L1318.5,195.575653 Z M1318.5,213.575653 L1320.5,213.575653 L1320.5,222.575653 L1318.5,222.575653 L1318.5,213.575653 Z M1318.5,231.575653 L1320.5,231.575653 L1320.5,240.575653 L1318.5,240.575653 L1318.5,231.575653 Z M1318.5,249.575653 L1320.5,249.575653 L1320.5,258.414538 L1318.5,258.414538 L1318.5,249.575653 Z" id="Path-2-Copy-2" fill="#666666" fill-rule="nonzero" transform="translate(1319.500000, 10.995096) rotate(-270.000000) translate(-1319.500000, -10.995096) "></path>
                <path d="M1895.5,-236.424347 L1897.5,-236.424347 L1897.5,-227.424347 L1895.5,-227.424347 L1895.5,-236.424347 Z M1895.5,-218.424347 L1897.5,-218.424347 L1897.5,-209.424347 L1895.5,-209.424347 L1895.5,-218.424347 Z M1895.5,-200.424347 L1897.5,-200.424347 L1897.5,-191.424347 L1895.5,-191.424347 L1895.5,-200.424347 Z M1895.5,-182.424347 L1897.5,-182.424347 L1897.5,-173.424347 L1895.5,-173.424347 L1895.5,-182.424347 Z M1895.5,-164.424347 L1897.5,-164.424347 L1897.5,-155.424347 L1895.5,-155.424347 L1895.5,-164.424347 Z M1895.5,-146.424347 L1897.5,-146.424347 L1897.5,-137.424347 L1895.5,-137.424347 L1895.5,-146.424347 Z M1895.5,-128.424347 L1897.5,-128.424347 L1897.5,-119.424347 L1895.5,-119.424347 L1895.5,-128.424347 Z M1895.5,-110.424347 L1897.5,-110.424347 L1897.5,-101.424347 L1895.5,-101.424347 L1895.5,-110.424347 Z M1895.5,-92.4243467 L1897.5,-92.4243467 L1897.5,-83.4243467 L1895.5,-83.4243467 L1895.5,-92.4243467 Z M1895.5,-74.4243467 L1897.5,-74.4243467 L1897.5,-65.4243467 L1895.5,-65.4243467 L1895.5,-74.4243467 Z M1895.5,-56.4243467 L1897.5,-56.4243467 L1897.5,-47.4243467 L1895.5,-47.4243467 L1895.5,-56.4243467 Z M1895.5,-38.4243467 L1897.5,-38.4243467 L1897.5,-29.4243467 L1895.5,-29.4243467 L1895.5,-38.4243467 Z M1895.5,-20.4243467 L1897.5,-20.4243467 L1897.5,-11.4243467 L1895.5,-11.4243467 L1895.5,-20.4243467 Z M1895.5,-2.42434669 L1897.5,-2.42434669 L1897.5,6.57565331 L1895.5,6.57565331 L1895.5,-2.42434669 Z M1895.5,15.5756533 L1897.5,15.5756533 L1897.5,24.5756533 L1895.5,24.5756533 L1895.5,15.5756533 Z M1895.5,33.5756533 L1897.5,33.5756533 L1897.5,42.5756533 L1895.5,42.5756533 L1895.5,33.5756533 Z M1895.5,51.5756533 L1897.5,51.5756533 L1897.5,60.5756533 L1895.5,60.5756533 L1895.5,51.5756533 Z M1895.5,69.5756533 L1897.5,69.5756533 L1897.5,78.5756533 L1895.5,78.5756533 L1895.5,69.5756533 Z M1895.5,87.5756533 L1897.5,87.5756533 L1897.5,96.5756533 L1895.5,96.5756533 L1895.5,87.5756533 Z M1895.5,105.575653 L1897.5,105.575653 L1897.5,114.575653 L1895.5,114.575653 L1895.5,105.575653 Z M1895.5,123.575653 L1897.5,123.575653 L1897.5,132.575653 L1895.5,132.575653 L1895.5,123.575653 Z M1895.5,141.575653 L1897.5,141.575653 L1897.5,150.575653 L1895.5,150.575653 L1895.5,141.575653 Z M1895.5,159.575653 L1897.5,159.575653 L1897.5,168.575653 L1895.5,168.575653 L1895.5,159.575653 Z M1895.5,177.575653 L1897.5,177.575653 L1897.5,186.575653 L1895.5,186.575653 L1895.5,177.575653 Z M1895.5,195.575653 L1897.5,195.575653 L1897.5,204.575653 L1895.5,204.575653 L1895.5,195.575653 Z M1895.5,213.575653 L1897.5,213.575653 L1897.5,222.575653 L1895.5,222.575653 L1895.5,213.575653 Z M1895.5,231.575653 L1897.5,231.575653 L1897.5,240.575653 L1895.5,240.575653 L1895.5,231.575653 Z M1895.5,249.575653 L1897.5,249.575653 L1897.5,258.414538 L1895.5,258.414538 L1895.5,249.575653 Z" id="Path-2-Copy-3" fill="#666666" fill-rule="nonzero" transform="translate(1896.500000, 10.995096) rotate(-270.000000) translate(-1896.500000, -10.995096) "></path>
                <path d="M486.746522,-476 L488.746522,-476 L488.746522,-467 L486.746522,-467 L486.746522,-476 Z M486.746522,-458 L488.746522,-458 L488.746522,-449 L486.746522,-449 L486.746522,-458 Z M486.746522,-440 L488.746522,-440 L488.746522,-431 L486.746522,-431 L486.746522,-440 Z M486.746522,-422 L488.746522,-422 L488.746522,-413 L486.746522,-413 L486.746522,-422 Z M486.746522,-404 L488.746522,-404 L488.746522,-395 L486.746522,-395 L486.746522,-404 Z M486.746522,-386 L488.746522,-386 L488.746522,-377 L486.746522,-377 L486.746522,-386 Z M486.746522,-368 L488.746522,-368 L488.746522,-359 L486.746522,-359 L486.746522,-368 Z M486.746522,-350 L488.746522,-350 L488.746522,-341 L486.746522,-341 L486.746522,-350 Z M486.746522,-332 L488.746522,-332 L488.746522,-323 L486.746522,-323 L486.746522,-332 Z M486.746522,-314 L488.746522,-314 L488.746522,-305 L486.746522,-305 L486.746522,-314 Z M486.746522,-296 L488.746522,-296 L488.746522,-287 L486.746522,-287 L486.746522,-296 Z M486.746522,-278 L488.746522,-278 L488.746522,-269 L486.746522,-269 L486.746522,-278 Z M486.746522,-260 L488.746522,-260 L488.746522,-251 L486.746522,-251 L486.746522,-260 Z M486.746522,-242 L488.746522,-242 L488.746522,-233 L486.746522,-233 L486.746522,-242 Z M486.746522,-224 L488.746522,-224 L488.746522,-215 L486.746522,-215 L486.746522,-224 Z M486.746522,-206 L488.746522,-206 L488.746522,-197 L486.746522,-197 L486.746522,-206 Z M486.746522,-188 L488.746522,-188 L488.746522,-179 L486.746522,-179 L486.746522,-188 Z M486.746522,-170 L488.746522,-170 L488.746522,-161 L486.746522,-161 L486.746522,-170 Z M486.746522,-152 L488.746522,-152 L488.746522,-143 L486.746522,-143 L486.746522,-152 Z M486.746522,-134 L488.746522,-134 L488.746522,-125 L486.746522,-125 L486.746522,-134 Z M486.746522,-116 L488.746522,-116 L488.746522,-107 L486.746522,-107 L486.746522,-116 Z M486.746522,-98 L488.746522,-98 L488.746522,-89 L486.746522,-89 L486.746522,-98 Z M486.746522,-80 L488.746522,-80 L488.746522,-71 L486.746522,-71 L486.746522,-80 Z M486.746522,-62 L488.746522,-62 L488.746522,-53 L486.746522,-53 L486.746522,-62 Z M486.746522,-44 L488.746522,-44 L488.746522,-35 L486.746522,-35 L486.746522,-44 Z M486.746522,-26 L488.746522,-26 L488.746522,-17 L486.746522,-17 L486.746522,-26 Z M486.746522,-8 L488.746522,-8 L488.746522,1 L486.746522,1 L486.746522,-8 Z M486.746522,10 L488.746522,10 L488.746522,19 L486.746522,19 L486.746522,10 Z M486.746522,28 L488.746522,28 L488.746522,37 L486.746522,37 L486.746522,28 Z M486.746522,46 L488.746522,46 L488.746522,55 L486.746522,55 L486.746522,46 Z M486.746522,64 L488.746522,64 L488.746522,73 L486.746522,73 L486.746522,64 Z M486.746522,82 L488.746522,82 L488.746522,91 L486.746522,91 L486.746522,82 Z M486.746522,100 L488.746522,100 L488.746522,109 L486.746522,109 L486.746522,100 Z M486.746522,118 L488.746522,118 L488.746522,127 L486.746522,127 L486.746522,118 Z M486.746522,136 L488.746522,136 L488.746522,145 L486.746522,145 L486.746522,136 Z M486.746522,154 L488.746522,154 L488.746522,163 L486.746522,163 L486.746522,154 Z M486.746522,172 L488.746522,172 L488.746522,181 L486.746522,181 L486.746522,172 Z M486.746522,190 L488.746522,190 L488.746522,199 L486.746522,199 L486.746522,190 Z M486.746522,208 L488.746522,208 L488.746522,217 L486.746522,217 L486.746522,208 Z M486.746522,226 L488.746522,226 L488.746522,235 L486.746522,235 L486.746522,226 Z M486.746522,244 L488.746522,244 L488.746522,253 L486.746522,253 L486.746522,244 Z M486.746522,262 L488.746522,262 L488.746522,271 L486.746522,271 L486.746522,262 Z M486.746522,280 L488.746522,280 L488.746522,289 L486.746522,289 L486.746522,280 Z M486.746522,298 L488.746522,298 L488.746522,307 L486.746522,307 L486.746522,298 Z M486.746522,316 L488.746522,316 L488.746522,325 L486.746522,325 L486.746522,316 Z M486.746522,334 L488.746522,334 L488.746522,343 L486.746522,343 L486.746522,334 Z M486.746522,352 L488.746522,352 L488.746522,361 L486.746522,361 L486.746522,352 Z M486.746522,370 L488.746522,370 L488.746522,379 L486.746522,379 L486.746522,370 Z M486.746522,388 L488.746522,388 L488.746522,397 L486.746522,397 L486.746522,388 Z M486.746522,406 L488.746522,406 L488.746522,415 L486.746522,415 L486.746522,406 Z M486.746522,424 L488.746522,424 L488.746522,433 L486.746522,433 L486.746522,424 Z M486.746522,442 L488.746522,442 L488.746522,451 L486.746522,451 L486.746522,442 Z M486.746522,460 L488.746522,460 L488.746522,469 L486.746522,469 L486.746522,460 Z M486.746522,478 L488.746522,478 L488.746522,487 L486.746522,487 L486.746522,478 Z M486.746522,496 L488.746522,496 L488.746522,497.746522 L486.746522,497.746522 L486.746522,496 Z" id="Path-2-Copy" fill="#666666" fill-rule="nonzero" transform="translate(487.746522, 10.873261) rotate(-270.000000) translate(-487.746522, -10.873261) "></path>
                <path d="M2715.91599,-459.83053 L2717.91599,-459.83053 L2717.91599,-450.83053 L2715.91599,-450.83053 L2715.91599,-459.83053 Z M2715.91599,-441.83053 L2717.91599,-441.83053 L2717.91599,-432.83053 L2715.91599,-432.83053 L2715.91599,-441.83053 Z M2715.91599,-423.83053 L2717.91599,-423.83053 L2717.91599,-414.83053 L2715.91599,-414.83053 L2715.91599,-423.83053 Z M2715.91599,-405.83053 L2717.91599,-405.83053 L2717.91599,-396.83053 L2715.91599,-396.83053 L2715.91599,-405.83053 Z M2715.91599,-387.83053 L2717.91599,-387.83053 L2717.91599,-378.83053 L2715.91599,-378.83053 L2715.91599,-387.83053 Z M2715.91599,-369.83053 L2717.91599,-369.83053 L2717.91599,-360.83053 L2715.91599,-360.83053 L2715.91599,-369.83053 Z M2715.91599,-351.83053 L2717.91599,-351.83053 L2717.91599,-342.83053 L2715.91599,-342.83053 L2715.91599,-351.83053 Z M2715.91599,-333.83053 L2717.91599,-333.83053 L2717.91599,-324.83053 L2715.91599,-324.83053 L2715.91599,-333.83053 Z M2715.91599,-315.83053 L2717.91599,-315.83053 L2717.91599,-306.83053 L2715.91599,-306.83053 L2715.91599,-315.83053 Z M2715.91599,-297.83053 L2717.91599,-297.83053 L2717.91599,-288.83053 L2715.91599,-288.83053 L2715.91599,-297.83053 Z M2715.91599,-279.83053 L2717.91599,-279.83053 L2717.91599,-270.83053 L2715.91599,-270.83053 L2715.91599,-279.83053 Z M2715.91599,-261.83053 L2717.91599,-261.83053 L2717.91599,-252.83053 L2715.91599,-252.83053 L2715.91599,-261.83053 Z M2715.91599,-243.83053 L2717.91599,-243.83053 L2717.91599,-234.83053 L2715.91599,-234.83053 L2715.91599,-243.83053 Z M2715.91599,-225.83053 L2717.91599,-225.83053 L2717.91599,-216.83053 L2715.91599,-216.83053 L2715.91599,-225.83053 Z M2715.91599,-207.83053 L2717.91599,-207.83053 L2717.91599,-198.83053 L2715.91599,-198.83053 L2715.91599,-207.83053 Z M2715.91599,-189.83053 L2717.91599,-189.83053 L2717.91599,-180.83053 L2715.91599,-180.83053 L2715.91599,-189.83053 Z M2715.91599,-171.83053 L2717.91599,-171.83053 L2717.91599,-162.83053 L2715.91599,-162.83053 L2715.91599,-171.83053 Z M2715.91599,-153.83053 L2717.91599,-153.83053 L2717.91599,-144.83053 L2715.91599,-144.83053 L2715.91599,-153.83053 Z M2715.91599,-135.83053 L2717.91599,-135.83053 L2717.91599,-126.83053 L2715.91599,-126.83053 L2715.91599,-135.83053 Z M2715.91599,-117.83053 L2717.91599,-117.83053 L2717.91599,-108.83053 L2715.91599,-108.83053 L2715.91599,-117.83053 Z M2715.91599,-99.8305299 L2717.91599,-99.8305299 L2717.91599,-90.8305299 L2715.91599,-90.8305299 L2715.91599,-99.8305299 Z M2715.91599,-81.8305299 L2717.91599,-81.8305299 L2717.91599,-72.8305299 L2715.91599,-72.8305299 L2715.91599,-81.8305299 Z M2715.91599,-63.8305299 L2717.91599,-63.8305299 L2717.91599,-54.8305299 L2715.91599,-54.8305299 L2715.91599,-63.8305299 Z M2715.91599,-45.8305299 L2717.91599,-45.8305299 L2717.91599,-36.8305299 L2715.91599,-36.8305299 L2715.91599,-45.8305299 Z M2715.91599,-27.8305299 L2717.91599,-27.8305299 L2717.91599,-18.8305299 L2715.91599,-18.8305299 L2715.91599,-27.8305299 Z M2715.91599,-9.83052991 L2717.91599,-9.83052991 L2717.91599,-0.830529912 L2715.91599,-0.830529912 L2715.91599,-9.83052991 Z M2715.91599,8.16947009 L2717.91599,8.16947009 L2717.91599,17.1694701 L2715.91599,17.1694701 L2715.91599,8.16947009 Z M2715.91599,26.1694701 L2717.91599,26.1694701 L2717.91599,35.1694701 L2715.91599,35.1694701 L2715.91599,26.1694701 Z M2715.91599,44.1694701 L2717.91599,44.1694701 L2717.91599,53.1694701 L2715.91599,53.1694701 L2715.91599,44.1694701 Z M2715.91599,62.1694701 L2717.91599,62.1694701 L2717.91599,71.1694701 L2715.91599,71.1694701 L2715.91599,62.1694701 Z M2715.91599,80.1694701 L2717.91599,80.1694701 L2717.91599,89.1694701 L2715.91599,89.1694701 L2715.91599,80.1694701 Z M2715.91599,98.1694701 L2717.91599,98.1694701 L2717.91599,107.16947 L2715.91599,107.16947 L2715.91599,98.1694701 Z M2715.91599,116.16947 L2717.91599,116.16947 L2717.91599,125.16947 L2715.91599,125.16947 L2715.91599,116.16947 Z M2715.91599,134.16947 L2717.91599,134.16947 L2717.91599,143.16947 L2715.91599,143.16947 L2715.91599,134.16947 Z M2715.91599,152.16947 L2717.91599,152.16947 L2717.91599,161.16947 L2715.91599,161.16947 L2715.91599,152.16947 Z M2715.91599,170.16947 L2717.91599,170.16947 L2717.91599,179.16947 L2715.91599,179.16947 L2715.91599,170.16947 Z M2715.91599,188.16947 L2717.91599,188.16947 L2717.91599,197.16947 L2715.91599,197.16947 L2715.91599,188.16947 Z M2715.91599,206.16947 L2717.91599,206.16947 L2717.91599,215.16947 L2715.91599,215.16947 L2715.91599,206.16947 Z M2715.91599,224.16947 L2717.91599,224.16947 L2717.91599,233.16947 L2715.91599,233.16947 L2715.91599,224.16947 Z M2715.91599,242.16947 L2717.91599,242.16947 L2717.91599,251.16947 L2715.91599,251.16947 L2715.91599,242.16947 Z M2715.91599,260.16947 L2717.91599,260.16947 L2717.91599,269.16947 L2715.91599,269.16947 L2715.91599,260.16947 Z M2715.91599,278.16947 L2717.91599,278.16947 L2717.91599,287.16947 L2715.91599,287.16947 L2715.91599,278.16947 Z M2715.91599,296.16947 L2717.91599,296.16947 L2717.91599,305.16947 L2715.91599,305.16947 L2715.91599,296.16947 Z M2715.91599,314.16947 L2717.91599,314.16947 L2717.91599,323.16947 L2715.91599,323.16947 L2715.91599,314.16947 Z M2715.91599,332.16947 L2717.91599,332.16947 L2717.91599,341.16947 L2715.91599,341.16947 L2715.91599,332.16947 Z M2715.91599,350.16947 L2717.91599,350.16947 L2717.91599,359.16947 L2715.91599,359.16947 L2715.91599,350.16947 Z M2715.91599,368.16947 L2717.91599,368.16947 L2717.91599,377.16947 L2715.91599,377.16947 L2715.91599,368.16947 Z M2715.91599,386.16947 L2717.91599,386.16947 L2717.91599,395.16947 L2715.91599,395.16947 L2715.91599,386.16947 Z M2715.91599,404.16947 L2717.91599,404.16947 L2717.91599,413.16947 L2715.91599,413.16947 L2715.91599,404.16947 Z M2715.91599,422.16947 L2717.91599,422.16947 L2717.91599,431.16947 L2715.91599,431.16947 L2715.91599,422.16947 Z M2715.91599,440.16947 L2717.91599,440.16947 L2717.91599,449.16947 L2715.91599,449.16947 L2715.91599,440.16947 Z M2715.91599,458.16947 L2717.91599,458.16947 L2717.91599,467.16947 L2715.91599,467.16947 L2715.91599,458.16947 Z M2715.91599,476.16947 L2717.91599,476.16947 L2717.91599,484.83053 L2715.91599,484.83053 L2715.91599,476.16947 Z" id="Path-2-Copy-4" fill="#666666" fill-rule="nonzero" transform="translate(2716.915992, 12.500000) rotate(-270.000000) translate(-2716.915992, -12.500000) "></path>
            </g>
            <g id="Group-24" transform="translate(22.000000, 1615.500000) rotate(-90.000000) translate(-22.000000, -1615.500000) translate(-1142.500000, 1593.500000)" fill="#000000">
                <g id="Group" transform="translate(1247.000000, 0.000000)">
                    <path d="M19.6718362,5.98515152 L23.1433987,7.63827652 L21.9862112,8.46483902 C21.5453757,9.78734563 21.1045467,11.164936 20.6637112,12.5976515 L26.6149612,12.5976515 L26.6149612,5.81983902 C26.6149612,4.38712352 26.5598576,2.73401505 26.4496487,0.860464015 L30.5824612,2.67890152 L28.9293362,3.83608902 L28.9293362,12.5976515 L33.7233987,12.5976515 L35.7071487,10.6139015 L38.6827737,13.5895265 L28.9293362,13.5895265 L28.9293362,22.8470265 L32.8968362,22.8470265 L34.8805862,20.8632765 L37.8562112,23.8389015 L28.9293362,23.8389015 L28.9293362,35.0801515 L34.3846487,35.0801515 L36.5337112,32.931089 L39.6746487,36.0720265 L20.8290237,36.0720265 C19.3963082,36.0720265 18.0738214,36.2373374 16.8615237,36.567964 L15.3737112,35.0801515 L26.6149612,35.0801515 L26.6149612,23.8389015 L23.8046487,23.8389015 C22.3719332,23.8389015 21.0494464,24.0042124 19.8371487,24.334839 L18.3493362,22.8470265 L26.6149612,22.8470265 L26.6149612,13.5895265 L20.4983987,13.5895265 C19.286101,17.1162108 17.7983033,20.0367024 16.0349612,22.351089 L15.5390237,22.020464 C16.8615303,19.0448241 17.8533954,16.0967807 18.5146487,13.1762453 C19.175902,10.2557098 19.5616273,7.85870255 19.6718362,5.98515152 Z M8.4305862,11.771089 C7.76933289,14.1956845 6.61215696,18.6590773 4.9590237,25.1614015 C6.61215696,25.8226548 8.32036905,26.4838982 10.0837112,27.1451515 C11.2960089,24.0593028 12.5082885,18.9346665 13.7205862,11.771089 L8.4305862,11.771089 Z M11.7368362,2.51358902 L10.2490237,3.50546402 C9.91839704,5.0483884 9.36736089,7.47294748 8.5958987,10.779214 L13.7205862,10.779214 L14.8777737,9.12608902 L17.3574612,11.109839 L16.0349612,12.101714 C14.7124546,19.2652915 13.3899678,24.5552386 12.0674612,27.971714 C14.16143,28.8533851 15.456365,29.6523875 15.9523049,30.3687453 C16.4482449,31.085103 16.6411076,31.9667609 16.5308987,33.0137453 C16.4206898,34.0607297 15.8972055,34.0607297 14.9604299,33.0137453 C14.0236544,31.9667609 12.7838231,30.8922404 11.2408987,29.7901515 C8.48567659,34.088298 5.39987411,37.2843077 1.9833987,39.3782765 L1.4874612,39.0476515 C5.12435438,35.741385 7.76932793,32.3249608 9.4224612,28.7982765 C7.76932793,27.6961877 5.56518331,26.5941154 2.8099612,25.4920265 C4.02225892,21.0836711 5.12433124,16.510071 6.1162112,11.771089 C4.6834957,11.771089 3.36100892,11.9363999 2.1487112,12.2670265 L0.660898696,10.779214 L6.2815237,10.779214 C7.16319477,6.04023199 7.71423093,2.67891143 7.9346487,0.695151515 L11.7368362,2.51358902 Z M75.2168362,8.63015152 C72.6820319,12.2670447 70.0646101,15.2701918 67.3644924,17.6396828 C64.6643748,20.0091738 62.046953,22.0204557 59.5121487,23.673589 L74.2249612,23.673589 L75.5474612,22.020464 L78.1924612,24.1695265 L76.8699612,25.1614015 L76.8699612,31.4432765 C76.8699612,33.0964098 76.9250648,34.8597255 77.0352737,36.7332765 L74.5555862,38.0557765 L74.5555862,35.576089 L58.0243362,35.576089 L58.0243362,37.559839 L55.5446487,38.551714 C55.6548576,34.6944031 55.7099612,32.1596367 55.7099612,30.947339 L55.7099612,25.8226515 C51.8526502,27.9166203 47.8300863,29.4595216 43.6421487,30.4514015 L43.4768362,29.955464 C48.2158182,28.1921219 52.2934858,26.0981845 55.7099612,23.673589 L55.7099612,22.020464 L57.5283987,22.681714 C60.063203,20.9183719 62.7081766,18.741779 65.4633987,16.1518703 C68.2186208,13.5619615 70.5329727,10.8343325 72.4065237,7.96890152 L58.0243362,7.96890152 C54.4976519,12.7078835 50.750606,16.2345149 46.7830862,18.5489015 L46.2871487,18.052964 C48.821953,16.179413 51.2740639,13.6446467 53.6435549,10.448589 C56.013046,7.25253137 57.7488099,3.94631443 58.8508987,0.529839015 L62.4877737,3.17483902 L60.6693362,3.83608902 C59.7876651,5.15859563 59.0713181,6.20556432 58.5202737,6.97702652 L72.4065237,6.97702652 L73.8943362,5.15858902 L77.0352737,7.63827652 L75.2168362,8.63015152 Z M54.5527737,11.771089 C58.1896669,13.3140134 60.1182934,14.5538447 60.3387112,15.4906203 C60.559129,16.4273958 60.3662663,17.3090536 59.7601174,18.1356203 C59.1539686,18.9621869 58.6029324,18.7417724 58.1069924,17.4743703 C57.6110525,16.2069681 56.2610139,14.4712042 54.0568362,12.2670265 L54.5527737,11.771089 Z M58.0243362,24.665464 L58.0243362,34.584214 L74.5555862,34.584214 L74.5555862,24.665464 L58.0243362,24.665464 Z" id="姓名"></path>
                    <polygon id="Line" fill-rule="nonzero" points="95.3538795 43.5423106 95.3538795 41.5423106 554.305489 41.5423106 554.305489 43.5423106"></polygon>
                </g>
                <g id="Group" transform="translate(1842.000000, 0.000000)">
                    <path d="M26.3539751,8.46483902 L19.3412112,8.46483902 L19.3412112,13.9201515 L21.3249612,13.9201515 C23.0013077,12.3594151 24.6776411,10.5409832 26.3539751,8.46483902 Z M26.5503086,8.22050106 C28.0045639,6.40194542 29.4588201,4.38943676 30.9130862,2.18296402 L33.7233987,4.66265152 L32.4008987,5.15858902 C29.204841,8.57506443 26.4496603,11.4955561 24.1352737,13.9201515 L34.5499612,13.9201515 L36.6990237,11.9364015 L39.6746487,14.9120265 L23.3087112,14.9120265 C21.3249513,16.7855775 19.2861175,18.5488932 17.1921487,20.2020265 L30.7477737,20.2020265 L33.0621487,18.052964 L36.0377737,21.1939015 L21.6555862,21.1939015 C21.1045418,22.626617 20.498402,24.3348291 19.8371487,26.318589 L30.4171487,26.318589 L31.7396487,24.665464 L34.3846487,26.979839 L33.0621487,27.8064015 C32.1804776,31.4432947 31.546786,33.9229574 31.1610549,35.245464 C30.7753239,36.5679706 30.1691841,37.5322839 29.3426174,38.1384328 C28.5160508,38.7445816 26.8353905,39.1578587 24.3005862,39.3782765 C24.1903773,37.8353521 22.2066471,36.5128654 18.3493362,35.4107765 L18.5146487,34.7495265 C22.9230041,35.7414065 25.650633,36.237339 26.6976174,36.237339 C27.7446018,36.237339 28.4609489,35.7965101 28.8466799,34.914839 C29.232411,34.0331679 29.8661026,31.4984016 30.7477737,27.310464 L19.6718362,27.310464 L18.5146487,28.632964 L16.3655862,26.649214 L17.8533987,25.4920265 C18.2942342,24.3899377 18.6799595,22.9572437 19.0105862,21.1939015 L17.8533987,21.689839 L17.0268362,20.367339 C14.8226585,22.0204723 12.3980994,23.5358217 9.7530862,24.9134328 C7.10807297,26.2910438 4.51820304,27.4206679 1.9833987,28.302339 L1.8180862,27.641089 C4.90393496,26.2083735 7.98973743,24.4726096 11.0755862,22.4337453 C14.161435,20.3948809 17.2472374,17.8876664 20.3330862,14.9120265 L6.1162112,14.9120265 C4.6834957,14.9120265 3.36100892,15.0773374 2.1487112,15.407964 L0.660898696,13.9201515 L17.0268362,13.9201515 L17.0268362,8.46483902 L12.0674612,8.46483902 C10.6347457,8.46483902 9.31225892,8.63014986 8.0999612,8.96077652 L6.6121487,7.47296402 L17.0268362,7.47296402 C17.0268362,3.94627972 16.9717326,1.63192786 16.8615237,0.529839015 L20.9943362,2.01765152 L19.3412112,3.34015152 L19.3412112,7.47296402 L21.9862112,7.47296402 L24.1352737,5.65452652 L26.5503086,8.22050106 Z M76.8699612,16.730464 L78.5230862,15.077339 L81.0027737,17.5570265 L79.5149612,18.5489015 C79.0741257,26.1533145 78.6332967,31.0024327 78.1924612,33.0964015 C77.7516257,35.1903703 77.0077268,36.6506161 75.9607424,37.4771828 C74.913758,38.3037494 73.8943412,38.8823374 72.9024612,39.212964 C72.4616257,37.4496219 70.69831,36.0720315 67.6124612,35.0801515 L67.7777737,34.4189015 C69.7615336,34.8597371 71.4972975,35.1628069 72.9851174,35.3281203 C74.4729374,35.4934336 75.4372507,34.4189131 75.8780862,32.1045265 C76.3189217,29.7901399 76.7597507,24.9961254 77.2005862,17.722339 L73.7290237,17.722339 C72.4065171,23.8940365 70.0921652,28.5778439 66.7858987,31.7739015 C63.4796322,34.9699592 59.4570682,37.3394146 54.7180862,38.882339 L54.5527737,38.221089 C58.9611291,36.2373291 62.5704159,33.5923555 65.3807424,30.286089 C68.191069,26.9798225 70.0921437,22.7919477 71.0840237,17.722339 L67.4471487,17.722339 C66.5654776,20.58777 65.2429908,23.315399 63.4796487,25.9053078 C61.7163065,28.4952165 58.6856077,30.8922238 54.3874612,33.0964015 L54.0568362,32.4351515 C56.7018494,30.7820182 58.9610977,28.6880809 60.8346487,26.1532765 C62.7081997,23.6184722 64.0306865,20.8081878 64.8021487,17.722339 L60.9999612,17.722339 L59.5121487,18.714214 L57.6937112,16.399839 L59.5121487,15.738589 C63.8102952,12.1016958 67.7777555,8.35464997 71.4146487,4.49733902 L60.9999612,4.49733902 L59.1815237,4.82796402 L57.8590237,3.50546402 L71.4146487,3.50546402 L73.0677737,1.85233902 L75.7127737,4.16671402 L74.0596487,4.99327652 C69.7615022,9.40163189 65.5185238,13.3139886 61.3305862,16.730464 L76.8699612,16.730464 Z M52.4037112,26.8145265 L59.3468362,23.673589 L59.5121487,24.334839 C51.4669001,28.8534033 46.617782,31.8841021 44.9646487,33.4270265 L42.8155862,30.4514015 C44.5789283,29.9003571 46.9483838,29.0186992 49.9240237,27.8064015 L49.9240237,13.5895265 L48.6015237,13.5895265 C47.1688082,13.5895265 45.8463214,13.7548374 44.6340237,14.085464 L43.1462112,12.5976515 L49.9240237,12.5976515 L49.9240237,7.14233902 C49.9240237,5.26878798 49.8689201,3.17485059 49.7587112,0.860464015 L53.8915237,2.84421402 L52.4037112,4.33202652 L52.4037112,12.5976515 L54.8833987,12.5976515 L56.7018362,10.779214 L59.5121487,13.5895265 L52.4037112,13.5895265 L52.4037112,26.8145265 Z" id="考场"></path>
                    <polygon id="Line" fill-rule="nonzero" points="95.3538795 43.5423106 95.3538795 41.5423106 224.337201 41.5423106 224.337201 43.5423106"></polygon>
                </g>
                <g id="Group" transform="translate(2104.000000, 0.000000)">
                    <path d="M0.991523696,38.4715625 C2.42423919,36.046967 3.55386331,33.0713718 4.38042995,29.5446875 C5.20699658,26.0180032 5.6202737,21.7750248 5.6202737,16.815625 C5.6202737,11.8562252 5.56517008,7.88876488 5.4549612,4.913125 L8.0999612,6.56625 L21.1596487,6.56625 C21.1596487,5.79478781 20.9392342,4.94068177 20.4983987,4.00390625 C20.0575632,3.06713073 19.3963198,1.99261023 18.5146487,0.7803125 L18.8452737,0.4496875 C21.7107047,1.77219411 23.2811577,2.90181823 23.5566799,3.83859375 C23.8322022,4.77536927 23.418925,5.68457893 22.3168362,6.56625 L32.2355862,6.56625 L34.8805862,3.92125 L38.5174612,7.558125 L8.0999612,7.558125 C8.0999612,11.5256448 8.04485758,15.4655534 7.9346487,19.3779688 C7.82443981,23.2903841 7.21830004,26.8721192 6.1162112,30.1232813 C5.01412235,33.3744433 3.47122111,36.2673832 1.4874612,38.8021875 L0.991523696,38.4715625 Z M14.0512112,11.195 L17.3574612,13.17875 C16.585999,13.3991678 15.5941339,14.942069 14.3818362,17.8075 C16.9166405,19.1300066 18.4870936,20.1218717 19.0932424,20.783125 C19.6993913,21.4443783 19.9198058,22.1607253 19.7544924,22.9321875 C19.5891791,23.7036497 19.2861092,24.3097895 18.8452737,24.750625 C18.4044382,25.1914605 17.9360574,24.7230798 17.4401174,23.3454688 C16.9441775,21.9678577 15.869657,20.342301 14.2165237,18.46875 C12.4531815,21.8852254 10.524555,24.530199 8.4305862,26.40375 L7.9346487,26.073125 C9.47757308,23.9791562 10.7449562,21.7474598 11.7368362,19.3779688 C12.7287162,17.0084777 13.5001668,14.2808488 14.0512112,11.195 Z M21.8208987,26.734375 L21.8208987,15.3278125 C21.8208987,12.7930082 21.7657951,10.7541744 21.6555862,9.21125 L25.2924612,11.0296875 L23.9699612,12.0215625 L23.9699612,26.734375 L30.2518362,26.734375 L32.5662112,24.42 L35.8724612,27.72625 L23.9699612,27.72625 L23.9699612,35.991875 L33.3927737,35.991875 L35.8724612,33.5121875 L39.3440237,36.98375 L12.2327737,36.98375 C10.8000582,36.98375 9.47757142,37.1490608 8.2652737,37.4796875 L6.7774612,35.991875 L21.8208987,35.991875 L21.8208987,27.72625 L16.3655862,27.72625 C14.9328707,27.72625 13.6103839,27.8915608 12.3980862,28.2221875 L10.9102737,26.734375 L21.8208987,26.734375 Z M30.7477737,11.3603125 L34.3846487,13.509375 C33.5029776,13.7297928 32.5111125,15.0522795 31.4090237,17.476875 C33.943828,18.5789638 35.6520401,19.4881735 36.5337112,20.2045313 C37.4153823,20.920889 37.8286594,21.7198914 37.7735549,22.6015625 C37.7184505,23.4832336 37.4704842,24.144477 37.0296487,24.5853125 C36.5888132,25.026148 36.037777,24.5577673 35.3765237,23.1801563 C34.7152704,21.8025452 33.2825764,20.1218849 31.0783987,18.138125 C29.5354743,21.1137649 27.717055,23.5934276 25.6230862,25.5771875 L25.1271487,25.2465625 C26.5598642,23.1525937 27.8272474,20.672931 28.9293362,17.8075 C30.031425,14.942069 30.6375648,12.793028 30.7477737,11.3603125 Z M73.0677737,4.0865625 C73.0677737,9.0459623 73.1228773,12.241972 73.2330862,13.6746875 L70.7533987,14.6665625 L70.7533987,13.0134375 L54.2221487,13.0134375 L54.2221487,14.50125 L51.7424612,15.3278125 C51.8526701,13.1236348 51.9077737,10.7817311 51.9077737,8.30203125 C51.9077737,5.82233135 51.8526701,3.48042769 51.7424612,1.27625 L54.2221487,2.59875 L70.5880862,2.59875 L72.0758987,0.945625 L74.3902737,2.929375 L73.0677737,4.0865625 Z M54.2221487,3.590625 L54.2221487,12.0215625 L70.7533987,12.0215625 L70.7533987,3.590625 L54.2221487,3.590625 Z M74.0596487,25.9078125 C73.0677687,31.6386745 72.1861109,34.9448914 71.4146487,35.8265625 C70.6431865,36.7082336 69.8717359,37.3419252 69.1002737,37.7276563 C68.3288115,38.1133873 67.0614283,38.5266645 65.2980862,38.9675 C65.0776684,37.3143667 63.3694563,35.8265691 60.1733987,34.5040625 L60.3387112,33.8428125 C64.4164399,35.0551102 67.0889653,35.4132837 68.3563674,34.9173438 C69.6237696,34.4214038 70.6982901,31.1427386 71.5799612,25.08125 L56.3712112,25.08125 L54.8833987,26.40375 L52.8996487,24.089375 C53.6711109,23.6485395 54.3048025,22.9321925 54.8007424,21.9403125 C55.2966824,20.9484325 55.7650632,19.6810494 56.2058987,18.138125 L46.7830862,18.138125 L45.2952737,18.46875 L43.9727737,17.14625 L75.8780862,17.14625 L78.0271487,14.9971875 L81.0027737,18.138125 L59.0162112,18.138125 L56.7018362,24.089375 L71.4146487,24.089375 L73.2330862,22.2709375 L75.7127737,24.750625 L74.0596487,25.9078125 Z" id="座号"></path>
                    <polygon id="Line" fill-rule="nonzero" points="95.3845518 43.5240152 95.3845518 41.5240152 224.367873 41.5240152 224.367873 43.5240152"></polygon>
                </g>
                <g id="Group-2" transform="translate(0.000000, 0.000000)">
                    <g id="Group-Copy" transform="translate(0.000000, 0.000000)">
                        <path d="M7.0999612,1.7721875 C10.6266455,4.08657407 12.5001684,5.82233796 12.7205862,6.97953125 C12.941004,8.13672454 12.6379341,9.15614143 11.8113674,10.0378125 C10.9848008,10.9194836 10.3511092,10.4786547 9.9102737,8.7153125 C9.46943816,6.95197035 8.36736585,4.74782573 6.6040237,2.1028125 L7.0999612,1.7721875 Z M15.8615237,0.945625 C19.0575813,3.37022046 20.7106898,5.16108796 20.8208987,6.31828125 C20.9311076,7.47547454 20.5453823,8.49489143 19.6637112,9.3765625 C18.7820401,10.2582336 18.1759003,9.73474923 17.8452737,7.80609375 C17.514647,5.87743827 16.6880928,3.70084546 15.3655862,1.27625 L15.8615237,0.945625 Z M31.4008987,17.476875 L30.9049612,17.14625 L33.5499612,12.5175 L5.2815237,12.5175 C5.50194146,13.9502155 5.55704508,15.1349432 5.4468362,16.0717188 C5.33662731,17.0084943 4.84069477,17.614634 3.9590237,17.8901563 C3.07735262,18.1656785 2.36100562,18.1656785 1.8099612,17.8901563 C1.25891677,17.614634 1.42422762,16.8707352 2.3058987,15.6584375 C3.18756977,14.4461398 3.84881316,12.407306 4.2896487,9.541875 L5.1162112,9.541875 L5.2815237,11.525625 L23.9618362,11.525625 C26.055805,7.44789628 27.5436026,3.81105765 28.4252737,0.615 L32.2274612,3.0946875 L30.5743362,3.7559375 C28.7007852,6.29074184 26.8272622,8.88061178 24.9537112,11.525625 L33.3846487,11.525625 L35.0377737,9.541875 L38.0133987,12.848125 C36.1398477,13.0685428 33.935703,14.611444 31.4008987,17.476875 Z M11.7287112,34.5040625 C14.4839333,34.944898 16.3023526,35.1377607 17.1840237,35.0826563 C18.0656948,35.0275518 18.5065237,34.4489638 18.5065237,33.346875 L18.5065237,26.8996875 L5.9427737,26.8996875 C4.5100582,26.8996875 3.18757142,27.0649983 1.9752737,27.395625 L0.487461196,25.9078125 L18.5065237,25.9078125 C18.5065237,24.9159325 18.4514201,23.6485494 18.3412112,22.105625 L20.1596487,23.0975 L25.9455862,18.3034375 L12.2246487,18.3034375 C10.7919332,18.3034375 9.46944642,18.4687483 8.2571487,18.799375 L6.7693362,17.3115625 L25.7802737,17.3115625 L27.5987112,15.6584375 L30.4090237,18.9646875 C29.5273526,18.8544786 28.3426249,19.1851003 26.8548049,19.9565625 C25.366985,20.7280247 23.3005994,21.9403042 20.6555862,23.5934375 L21.9780862,24.42 L20.8208987,25.08125 L20.8208987,25.9078125 L31.5662112,25.9078125 L34.2112112,23.2628125 L37.8480862,26.8996875 L20.8208987,26.8996875 L20.8208987,35 C20.8208987,36.6531333 19.5535155,37.97562 17.0187112,38.9675 C17.1289201,37.7552023 15.3656044,36.5429227 11.7287112,35.330625 L11.7287112,34.5040625 Z M63.4715237,0.7803125 L63.9674612,0.4496875 C66.2818478,1.66198523 67.8523008,2.76405754 68.6788674,3.7559375 C69.5054341,4.74781746 69.4503305,5.84988977 68.5135549,7.0621875 C67.5767794,8.27448523 66.915536,8.08162257 66.5298049,6.48359375 C66.1440739,4.88556493 65.124657,2.98449019 63.4715237,0.7803125 Z M56.5283987,8.219375 L75.0433987,8.219375 L77.1924612,6.0703125 L80.3333987,9.21125 L61.9837112,9.21125 C60.220369,9.21125 58.8978823,9.37656085 58.0162112,9.7071875 L56.5283987,8.219375 Z M63.1408987,10.53375 L66.4471487,12.848125 C65.3450599,13.1787517 63.884814,14.3910312 62.0663674,16.485 C60.2479209,18.5789688 58.2366389,20.3422845 56.0324612,21.775 L55.7018362,21.2790625 C57.1345517,19.9565559 58.5396939,18.2758956 59.9173049,16.2370313 C61.294916,14.1981669 62.3694365,12.2970922 63.1408987,10.53375 Z M70.0840237,11.3603125 C75.0434235,13.5644902 77.7710525,15.1900468 78.2669924,16.2370313 C78.7629324,17.2840157 78.7629324,18.4136398 78.2669924,19.6259375 C77.7710525,20.8382352 76.9996018,20.5076135 75.9526174,18.6340625 C74.905633,16.7605115 72.8392475,14.5012632 69.7533987,11.85625 L70.0840237,11.3603125 Z M71.5718362,18.138125 L75.2087112,20.6178125 C74.3270401,20.8382303 73.335175,22.1056134 72.2330862,24.42 C71.1309974,26.7343866 69.8085106,28.8834276 68.2655862,30.8671875 C72.233106,34.0632451 76.4760844,35.7163536 80.9946487,35.8265625 L80.9946487,36.4878125 C79.1210977,36.928648 78.1292326,37.7000987 78.0190237,38.8021875 C73.2800417,37.369472 69.5880994,35.220431 66.9430862,32.355 C62.8653575,35.6612665 58.2366538,37.8654112 53.0568362,38.9675 L52.7262112,38.4715625 C58.3468643,36.4878026 62.6449463,33.9530363 65.6205862,30.8671875 C64.0776618,28.5528009 62.479657,24.8057551 60.8265237,19.6259375 L61.4877737,19.460625 C63.2511158,23.9791893 65.0144315,27.2854062 66.7777737,29.379375 C68.8717425,26.4037351 70.4697474,22.6566893 71.5718362,18.138125 Z M51.4037112,30.2059375 C51.4037112,31.7488619 51.4588148,34.3387318 51.5690237,37.975625 L48.9240237,39.1328125 C49.0342326,32.8509061 49.0893362,26.2384722 49.0893362,19.2953125 C47.5464118,23.0424146 45.3973708,26.6241496 42.6421487,30.040625 L42.1462112,29.5446875 C45.23206,24.5852877 47.5464118,18.6340972 49.0893362,11.6909375 L45.1218362,11.6909375 L43.4687112,12.0215625 L42.1462112,10.6990625 L49.0893362,10.6990625 C49.0893362,7.72342262 49.0342326,4.36210207 48.9240237,0.615 L52.8915237,2.59875 L51.4037112,3.590625 L51.4037112,10.6990625 L53.5527737,10.6990625 L55.3712112,8.880625 L58.1815237,11.6909375 L51.4037112,11.6909375 L51.4037112,14.50125 C53.49768,15.2727122 54.930374,16.0441628 55.7018362,16.815625 C56.4732984,17.5870872 56.5835056,18.6065041 56.0324612,19.8739063 C55.4814168,21.1413084 54.875277,21.0311012 54.2140237,19.5432813 C53.5527704,18.0554613 52.6160089,16.7054227 51.4037112,15.493125 L51.4037112,30.2059375 Z" id="学校"></path>
                        <polygon id="Line" fill-rule="nonzero" points="94.7668075 43.5906818 94.7668075 41.5906818 630.240725 41.5906818 630.240725 43.5906818"></polygon>
                    </g>
                    <g id="Group-Copy-2" transform="translate(677.000000, 0.000000)">
                        <path d="M167.495505,17.391714 L167.495505,25.987964 L177.08363,25.987964 L177.08363,17.391714 L167.495505,17.391714 Z M167.82613,0.199214015 L171.463005,2.51358902 L169.975192,3.17483902 L167.330192,7.14233902 L188.820817,7.14233902 L191.300505,4.66265152 L194.772067,8.13421402 L179.563317,8.13421402 L179.563317,16.399839 L186.34113,16.399839 L188.655505,14.085464 L191.961755,17.391714 L179.563317,17.391714 L179.563317,25.987964 L190.30863,25.987964 L192.788317,23.5082765 L196.25988,26.979839 L179.563317,26.979839 L179.563317,33.261714 C179.563317,35.135265 179.618421,36.7883735 179.72863,38.221089 L176.918317,39.3782765 C177.028526,35.9618011 177.08363,33.4821384 177.08363,31.939214 L177.08363,26.979839 L163.032067,26.979839 C161.599352,26.979839 160.276865,27.1451499 159.064567,27.4757765 L157.576755,25.987964 L165.015817,25.987964 C165.015817,20.9183553 164.960714,17.2264131 164.850505,14.9120265 L167.495505,16.399839 L177.08363,16.399839 L177.08363,8.13421402 L166.834255,8.13421402 C165.732166,9.78734728 164.57499,11.3026967 163.362692,12.6803078 C162.150395,14.0579188 160.497286,15.5732682 158.403317,17.2264015 L157.90738,16.8957765 C159.89114,14.8018077 161.764663,12.3496968 163.528005,9.53937027 C165.291347,6.72904371 166.724041,3.61568943 167.82613,0.199214015 Z M215.270817,24.1695265 C208.217449,25.9328687 204.084678,27.3655627 202.87238,28.4676515 L200.88863,25.326714 C201.990719,25.1062962 203.147895,24.3072938 204.360192,22.9296828 C205.57249,21.5520717 207.501117,19.0448572 210.14613,15.407964 C208.713414,15.6283818 207.225617,15.9038999 205.682692,16.2345265 C204.139768,16.5651532 202.982592,17.0610857 202.21113,17.722339 L200.392692,14.746714 C201.494781,14.746714 202.982579,13.0660537 204.85613,9.70468277 C206.729681,6.34331179 207.94196,3.45037197 208.493005,1.02577652 L211.964567,3.00952652 L210.476755,4.00140152 C208.382786,7.6382947 205.903123,11.2200297 203.037692,14.746714 L210.642067,14.5814015 C212.074783,12.4874327 213.121752,10.5037025 213.783005,8.63015152 L216.923942,11.109839 L215.270817,11.771089 C212.184969,15.9590266 208.54813,20.4224195 204.360192,25.1614015 L215.270817,23.342964 L215.270817,24.1695265 Z M200.392692,33.4270265 C203.368332,32.8759821 208.272554,31.4983917 215.105505,29.294214 L215.105505,29.955464 C210.476732,31.9392239 207.363377,33.3443661 205.765349,34.1709328 C204.16732,34.9974994 203.037696,35.7965018 202.376442,36.567964 L200.392692,33.4270265 Z M232.62863,6.64640152 C230.534661,10.944548 229.101967,13.9201432 228.330505,15.5732765 L232.298005,15.5732765 L233.95113,13.9201515 L236.265505,16.2345265 L234.777692,17.391714 C233.344977,22.3511138 231.471454,26.5940922 229.157067,30.1207765 C231.581663,32.8759986 234.447051,34.7495216 237.753317,35.7414015 L237.753317,36.237339 C236.210393,36.1271301 235.108321,36.6781663 234.447067,37.890464 C231.912263,36.3475396 229.653015,34.3087059 227.669255,31.7739015 C224.252779,35.080168 220.009801,37.4496235 214.940192,38.882339 L214.609567,38.3864015 C219.458758,36.2924327 223.371115,33.5372519 226.346755,30.1207765 C224.142577,26.7043011 222.544572,22.4062191 221.552692,17.2264015 C221.111857,22.9572635 219.899577,27.3655528 217.915817,30.4514015 C215.932057,33.5372503 212.901359,36.2373274 208.82363,38.551714 L208.493005,38.0557765 C212.570734,34.9699278 215.270811,31.9667807 216.593317,29.0462453 C217.915824,26.1257098 218.797482,22.7643893 219.238317,18.9621828 C219.679153,15.1599763 219.954671,10.7241352 220.06488,5.65452652 C218.632164,5.65452652 217.309678,5.81983736 216.09738,6.15046402 L214.609567,4.66265152 L230.314255,4.66265152 L231.96738,3.00952652 L234.61238,5.65452652 L232.62863,6.64640152 Z M222.213942,5.65452652 C222.103734,8.96079305 221.993526,12.2119064 221.883317,15.407964 C223.536451,21.3592438 225.465077,25.6573258 227.669255,28.302339 C229.653015,25.436908 231.25102,21.5245513 232.463317,16.5651515 L227.834567,16.5651515 L227.008005,17.8876515 L224.858942,15.5732765 C225.740613,15.3528587 226.704927,14.1405792 227.751911,11.9364015 C228.798896,9.73222383 229.708105,7.63828643 230.479567,5.65452652 L222.213942,5.65452652 Z" id="年级"></path>
                        <polygon id="Line" fill-rule="nonzero" points="0.401029073 43.5423106 0.401029073 41.5423106 139.819434 41.5423106 139.819434 43.5423106"></polygon>
                    </g>
                    <g id="Group-Copy-3" transform="translate(955.000000, 1.000000)">
                        <path d="M180.019062,13.509375 L180.680312,13.509375 C180.680312,15.8237616 180.625209,17.5870773 180.515,18.799375 C180.404791,20.0116727 179.963962,20.8657788 179.1925,21.3617188 C178.421038,21.8576587 177.704691,21.9127623 177.043437,21.5270313 C176.382184,21.1413002 176.63015,20.4249532 177.787344,19.3779688 C178.944537,18.3309843 179.688436,16.374806 180.019062,13.509375 Z M183.16,0.615 L186.962187,2.4334375 L185.639687,3.7559375 C185.639687,7.17241292 185.557032,11.5531504 185.391719,16.8982813 C185.226405,22.2434121 184.179437,26.6241496 182.250781,30.040625 C180.322126,33.4571004 176.327114,36.4326957 170.265625,38.9675 L170.100312,38.4715625 C175.500548,35.4959226 179.054731,32.3274647 180.762969,28.9660938 C182.471206,25.6047228 183.325312,21.0862263 183.325312,15.4104688 C183.325312,9.7347112 183.270209,4.80293761 183.16,0.615 Z M172.414687,28.056875 L179.688437,25.411875 L179.85375,26.073125 C171.367666,29.930436 166.573651,32.4652023 165.471562,33.6775 L163.487812,30.701875 C164.70011,30.4814572 166.959358,29.8202138 170.265625,28.718125 L170.265625,17.14625 C168.722701,17.14625 167.34511,17.3115608 166.132812,17.6421875 L164.645,16.154375 L170.265625,16.154375 L170.265625,5.905 L169.604375,5.905 C168.17166,5.905 166.849173,6.07031085 165.636875,6.4009375 L164.149062,4.913125 L174.398437,4.913125 L176.382187,2.929375 L179.1925,5.905 L172.414687,5.905 L172.414687,16.154375 L174.067812,16.154375 L175.720937,14.3359375 L178.200625,17.14625 L172.414687,17.14625 L172.414687,28.056875 Z M186.135625,5.4090625 L197.376875,5.4090625 L199.195312,3.590625 L201.840312,6.4009375 L194.40125,6.4009375 L194.40125,18.3034375 L196.880937,18.3034375 L198.699375,16.485 L201.344375,19.2953125 L194.40125,19.2953125 L194.40125,33.6775 L197.542187,33.6775 L199.525937,31.69375 L202.33625,34.669375 L188.945937,34.669375 C187.73364,34.669375 186.52136,34.8346858 185.309062,35.1653125 L183.82125,33.6775 L192.252187,33.6775 L192.252187,19.2953125 C190.599054,19.2953125 189.16636,19.4606233 187.954062,19.79125 L186.46625,18.3034375 L192.252187,18.3034375 L192.252187,6.4009375 L191.590937,6.4009375 C190.158222,6.4009375 188.835735,6.56624835 187.623437,6.896875 L186.135625,5.4090625 Z" id="班"></path>
                        <polygon id="Line" fill-rule="nonzero" points="0.631873307 43 0.631873307 41 146 41 146 43"></polygon>
                    </g>
                </g>
            </g>
        </g>
    </g>
</svg>