<?xml version="1.0" encoding="UTF-8" standalone="no"?>
<svg width="788px" height="88px" viewBox="0 0 788 88" version="1.1" xmlns="http://www.w3.org/2000/svg" xmlns:xlink="http://www.w3.org/1999/xlink">
    <!-- Generator: Sketch 47.1 (45422) - http://www.bohemiancoding.com/sketch -->
    <title>h_student_forbid</title>
    <desc>Created with Sketch.</desc>
    <defs></defs>
    <g id="Page-1" stroke="none" stroke-width="1" fill="none" fill-rule="evenodd">
        <g id="h_student_forbid" fill-rule="nonzero" fill="#000000">
            <path d="M2,2 L2,86 L786,86 L786,2 L2,2 Z M788,0 L788,88 L0,88 L0,0 L788,0 Z" id="Rectangle-3"></path>
            <path d="M57.4317784,29.328125 L50.140625,29.328125 L50.140625,35 L52.203125,35 C53.9460184,33.3773062 55.688898,31.486687 57.4317784,29.328125 L57.4317784,29.328125 Z M57.6359058,29.0740874 C59.1478915,27.1833396 60.6598781,25.0909393 62.171875,22.796875 L65.09375,25.375 L63.71875,25.890625 C60.3958167,29.4427261 57.531262,32.4791541 55.125,35 L65.953125,35 L68.1875,32.9375 L71.28125,36.03125 L54.265625,36.03125 C52.2031147,37.9791764 50.0833442,39.8124914 47.90625,41.53125 L62,41.53125 L64.40625,39.296875 L67.5,42.5625 L52.546875,42.5625 C51.9739555,44.0520908 51.3437534,45.8281147 50.65625,47.890625 L61.65625,47.890625 L63.03125,46.171875 L65.78125,48.578125 L64.40625,49.4375 C63.4895787,53.2187689 62.8307312,55.7968681 62.4296875,57.171875 C62.0286438,58.5468819 61.3984418,59.549476 60.5390625,60.1796875 C59.6796832,60.809899 57.9323048,61.2395822 55.296875,61.46875 C55.1822911,59.8645753 53.1198117,58.4895891 49.109375,57.34375 L49.28125,56.65625 C53.8646063,57.6875052 56.7005154,58.203125 57.7890625,58.203125 C58.8776096,58.203125 59.6223938,57.7447963 60.0234375,56.828125 C60.4244812,55.9114537 61.0833287,53.2760634 62,48.921875 L50.484375,48.921875 L49.28125,50.296875 L47.046875,48.234375 L48.59375,47.03125 C49.0520856,45.8854109 49.4531233,44.3958425 49.796875,42.5625 L48.59375,43.078125 L47.734375,41.703125 C45.4426969,43.4218836 42.9218888,44.9973887 40.171875,46.4296875 C37.4218612,47.8619863 34.7291798,49.0364537 32.09375,49.953125 L31.921875,49.265625 C35.1302244,47.7760342 38.3385256,45.9713648 41.546875,43.8515625 C44.7552244,41.7317602 47.9635256,39.1250155 51.171875,36.03125 L36.390625,36.03125 C34.9010342,36.03125 33.526048,36.2031233 32.265625,36.546875 L30.71875,35 L47.734375,35 L47.734375,29.328125 L42.578125,29.328125 C41.0885342,29.328125 39.713548,29.4999983 38.453125,29.84375 L36.90625,28.296875 L47.734375,28.296875 C47.734375,24.63019 47.6770839,22.2239641 47.5625,21.078125 L51.859375,22.625 L50.140625,24 L50.140625,28.296875 L52.890625,28.296875 L55.125,26.40625 L57.6359058,29.0740874 L57.6359058,29.0740874 Z M57.6359058,29.0740874 C57.5678633,29.159175 57.4998208,29.2438542 57.4317784,29.328125 L57.875,29.328125 L57.6359058,29.0740874 L57.6359058,29.0740874 Z M83.828125,23.828125 L87.78125,26.0625 C86.6354109,26.6354195 85.2604247,28.75519 83.65625,32.421875 L93.796875,32.421875 C93.796875,27.1510153 93.7395839,23.312512 93.625,20.90625 L97.75,22.625 L96.375,23.828125 L96.375,32.421875 L106.171875,32.421875 L108.75,29.84375 L112.015625,33.453125 L96.375,33.453125 L96.375,44.109375 L104.109375,44.109375 L106.859375,41.53125 L109.953125,45.140625 L96.375,45.140625 L96.375,57.515625 L108.75,57.515625 L111.5,54.765625 L114.9375,58.546875 L80.734375,58.546875 C79.2447842,58.546875 77.869798,58.7187483 76.609375,59.0625 L75.0625,57.515625 L93.796875,57.515625 L93.796875,45.140625 L87.265625,45.140625 C85.7760342,45.140625 84.401048,45.3124983 83.140625,45.65625 L81.59375,44.109375 L93.796875,44.109375 L93.796875,33.453125 L83.3125,33.453125 C80.6770702,38.380233 78.3281353,41.8749897 76.265625,43.9375 L75.75,43.59375 C77.6979264,40.6145684 79.3593681,37.3489761 80.734375,33.796875 C82.1093819,30.2447739 83.1406216,26.9218905 83.828125,23.828125 Z M131.4375,31.21875 C131.4375,34.4270994 131.494791,37.3489452 131.609375,39.984375 L129.03125,40.84375 C129.145834,39.2395753 129.203125,35.973983 129.203125,31.046875 C126.567695,35.2864795 123.416685,38.5520719 119.75,40.84375 L119.578125,40.15625 C123.015642,36.8333167 125.765615,32.9948134 127.828125,28.640625 L125.765625,28.640625 C124.276034,28.640625 122.901048,28.8124983 121.640625,29.15625 L120.09375,27.609375 L129.203125,27.609375 C129.203125,25.4322808 129.145834,23.1979281 129.03125,20.90625 L132.640625,22.453125 L131.4375,23.65625 L131.4375,27.609375 L134.1875,27.609375 L136.078125,25.71875 L138.828125,28.640625 L131.4375,28.640625 L131.4375,30.53125 C133.729178,31.2187534 135.361974,31.9921832 136.335938,32.8515625 C137.309901,33.7109418 137.453128,34.7135359 136.765625,35.859375 C136.078122,37.0052141 135.419274,36.8333408 134.789062,35.34375 C134.158851,33.8541592 133.041675,32.479173 131.4375,31.21875 Z M146.046875,27.609375 C146.046875,25.8906164 145.989584,23.6562638 145.875,20.90625 L149.484375,22.453125 L148.28125,23.484375 L148.28125,27.609375 L153.265625,27.609375 L155.328125,25.546875 L158.25,28.640625 L148.453125,28.640625 C149.598964,30.4739675 151.059887,32.1640548 152.835938,33.7109375 C154.611988,35.2578202 156.645822,36.3177055 158.9375,36.890625 L158.9375,37.40625 C157.562493,37.5208339 156.588545,38.1510359 156.015625,39.296875 C154.182282,37.9218681 152.664069,36.5182363 151.460938,35.0859375 C150.257806,33.6536387 149.197921,31.9635514 148.28125,30.015625 C148.28125,35.4010686 148.338541,38.6093698 148.453125,39.640625 L145.875,40.671875 C145.989584,37.4635256 146.046875,34.3698066 146.046875,31.390625 C143.526029,35.1718939 140.489601,38.1510308 136.9375,40.328125 L136.59375,39.8125 C140.260435,36.4895667 143.067699,32.7656456 145.015625,28.640625 C143.526034,28.640625 142.151048,28.8124983 140.890625,29.15625 L139.34375,27.609375 L146.046875,27.609375 Z M125.421875,42.21875 L148.28125,42.21875 L150.34375,40.15625 L153.265625,43.25 L131.09375,43.25 C129.604159,43.25 128.229173,43.4218733 126.96875,43.765625 L125.421875,42.21875 Z M131.609375,57 C135.390644,57.5729195 137.424478,57.7734384 137.710938,57.6015625 C137.997397,57.4296866 138.140625,57.1718767 138.140625,56.828125 L138.140625,47.890625 L124.390625,47.890625 C122.901034,47.890625 121.526048,48.0624983 120.265625,48.40625 L118.71875,46.859375 L153.78125,46.859375 L156.015625,44.625 L159.109375,47.890625 L140.546875,47.890625 L140.546875,57 C140.546875,58.1458391 140.317711,59.033851 139.859375,59.6640625 C139.401039,60.294274 138.3698,60.8958305 136.765625,61.46875 C136.078122,59.7499914 134.359389,58.4895873 131.609375,57.6875 L131.609375,57 Z M131.4375,49.09375 L134.53125,51.84375 L132.8125,52.1875 C128.687479,55.5104333 124.906267,57.9739503 121.46875,59.578125 L121.296875,58.890625 C125.53648,56.0260273 128.916654,52.760435 131.4375,49.09375 Z M144.671875,49.953125 C149.484399,52.1302192 152.43489,53.8203065 153.523438,55.0234375 C154.611985,56.2265685 154.89844,57.4010359 154.382812,58.546875 C153.867185,59.6927141 153.236983,59.6927141 152.492188,58.546875 C151.747392,57.4010359 150.716152,56.1406319 149.398438,54.765625 C148.080723,53.3906181 146.447926,52.0156319 144.5,50.640625 L144.671875,49.953125 Z M181.28125,35.34375 C181.28125,33.9687431 181.223959,32.3645925 181.109375,30.53125 L183.515625,31.90625 L187.640625,31.90625 L187.984375,27.4375 L183.171875,27.4375 C181.682284,27.4375 180.307298,27.6093733 179.046875,27.953125 L177.5,26.40625 L188.15625,26.40625 C188.270834,24.6874914 188.328125,22.9114675 188.328125,21.078125 L191.9375,22.453125 L190.734375,23.484375 L190.390625,26.40625 L196.75,26.40625 L198.8125,24.34375 L201.90625,27.4375 L190.21875,27.4375 L189.875,31.90625 L195.03125,31.90625 L196.234375,30.359375 L198.8125,32.25 L197.609375,33.28125 L197.609375,50.296875 L197.78125,50.296875 L199.84375,48.234375 L202.9375,51.328125 L181.28125,51.328125 C179.791659,51.328125 178.416673,51.4999983 177.15625,51.84375 L175.609375,50.296875 L181.28125,50.296875 L181.28125,35.34375 Z M183.515625,32.9375 L183.515625,36.203125 L195.375,36.203125 L195.375,32.9375 L183.515625,32.9375 Z M183.515625,37.234375 L183.515625,40.84375 L195.375,40.84375 L195.375,37.234375 L183.515625,37.234375 Z M183.515625,41.875 L183.515625,45.484375 L195.375,45.484375 L195.375,41.875 L183.515625,41.875 Z M183.515625,46.515625 L183.515625,50.296875 L195.375,50.296875 L195.375,46.515625 L183.515625,46.515625 Z M184.546875,52.015625 L187.296875,54.9375 C186.26562,55.0520839 184.804697,55.739577 182.914062,57 C181.023428,58.260423 178.416683,59.6354092 175.09375,61.125 L174.75,60.609375 C179.333356,57.8593612 182.598949,54.9948066 184.546875,52.015625 Z M191.765625,53.046875 L192.109375,52.53125 C195.20314,53.6770891 197.638012,54.7083287 199.414062,55.625 C201.190113,56.5416713 201.877606,57.8593664 201.476562,59.578125 C201.075519,61.2968836 200.35938,61.3541747 199.328125,59.75 C198.29687,58.1458253 195.776062,55.9114727 191.765625,53.046875 Z M172.34375,47.71875 L179.046875,45.65625 L179.21875,46.34375 C170.624957,49.8958511 165.927087,52.3593681 165.125,53.734375 L163.0625,50.296875 C165.468762,49.7239555 167.817697,49.0937534 170.109375,48.40625 L170.109375,33.96875 L169.078125,33.96875 C167.588534,33.96875 166.213548,34.1406233 164.953125,34.484375 L163.40625,32.9375 L170.109375,32.9375 L170.109375,26.0625 C170.109375,25.0312448 170.052084,23.5416764 169.9375,21.59375 L173.71875,23.484375 L172.34375,24.6875 L172.34375,32.9375 L174.40625,32.9375 L176.296875,31.046875 L179.21875,33.96875 L172.34375,33.96875 L172.34375,47.71875 Z" id="考生禁填"></path>
            <g id="Group-8" transform="translate(330.000000, 28.000000)">
                <path d="M7.53125,19.828125 L10.046875,19.390625 L10.046875,13.703125 L12.125,14.796875 L11.359375,15.453125 L11.359375,18.515625 C11.359375,19.9010486 11.395833,20.8489558 11.46875,21.359375 L10.046875,22.234375 L10.046875,19.9375 C5.96352125,20.8854214 3.55729531,21.8697866 2.828125,22.890625 L1.734375,21.140625 C2.02604313,20.7760398 2.171875,20.3020863 2.171875,19.71875 C2.171875,16.8020688 2.13541703,14.7968805 2.0625,13.703125 L4.25,14.796875 L3.484375,15.453125 L3.484375,20.59375 L6.21875,20.046875 L6.21875,12.171875 L3.703125,12.171875 C2.75520359,12.171875 1.88021234,12.2812489 1.078125,12.5 L0.09375,11.515625 L6.21875,11.515625 L6.21875,6.265625 L4.03125,6.265625 C3.08332859,7.86979969 2.06250547,9.2552025 0.96875,10.421875 L0.75,10.203125 C1.77083844,8.45311625 2.59114273,6.68490477 3.2109375,4.8984375 C3.83073227,3.11197023 4.24999891,1.56250656 4.46875,0.25 L6.65625,1.453125 C6.14583078,1.81771016 5.76302211,2.25520578 5.5078125,2.765625 C5.25260289,3.27604422 4.83333625,4.22395141 4.25,5.609375 L9.28125,5.609375 L10.59375,4.296875 L12.34375,6.265625 L7.53125,6.265625 L7.53125,11.515625 L10.15625,11.515625 L11.578125,10.09375 L13.4375,12.171875 L7.53125,12.171875 L7.53125,19.828125 Z M17.375,6.265625 C17.375,7.94271672 17.3020841,10.3124847 17.15625,13.375 L20.875,13.375 L20.875,6.265625 L17.375,6.265625 Z M15.734375,13.375 C15.8802091,11.1874891 15.953125,8.81772109 15.953125,6.265625 C15.0052036,6.265625 14.1302123,6.37499891 13.328125,6.59375 L12.34375,5.609375 L15.953125,5.609375 C15.953125,3.42186406 15.8802091,1.59896562 15.734375,0.140625 L18.359375,1.234375 L17.375,2.109375 L17.375,5.609375 L20.65625,5.609375 L21.3125,4.625 L22.953125,5.9375 L22.1875,6.59375 L22.1875,13.375 L23.0625,13.375 L24.375,12.0625 L25.90625,14.03125 L18.359375,14.03125 C19.3802134,17.1666823 20.5468684,19.4453054 21.859375,20.8671875 C23.1718816,22.2890696 24.4114525,23.1822898 25.578125,23.546875 L25.578125,23.984375 C24.4843695,23.911458 23.6822942,24.2395797 23.171875,24.96875 C21.5677003,23.4374923 20.3645873,21.7421968 19.5625,19.8828125 C18.7604127,18.0234282 18.1770852,16.0729269 17.8125,14.03125 L17.046875,14.03125 C16.5364558,17.2395994 15.4609457,19.7916572 13.8203125,21.6875 C12.1796793,23.5833428 10.229178,24.9322877 7.96875,25.734375 L7.859375,25.40625 C9.75521781,24.3854116 11.3775974,23.0182377 12.7265625,21.3046875 C14.0755276,19.5911373 15.0416637,17.1666823 15.625,14.03125 L15.078125,14.03125 C14.1302036,14.03125 13.2552123,14.1406239 12.453125,14.359375 L11.46875,13.375 L15.734375,13.375 Z M45.0929499,5.390625 L40.453125,5.390625 L40.453125,9 L41.765625,9 C42.874739,7.96737666 43.9838442,6.76425539 45.0929499,5.390625 L45.0929499,5.390625 Z M45.2228492,5.22896473 C46.1850219,4.02576156 47.1471951,2.69423409 48.109375,1.234375 L49.96875,2.875 L49.09375,3.203125 C46.9791561,5.46355297 45.1562577,7.39582531 43.625,9 L50.515625,9 L51.9375,7.6875 L53.90625,9.65625 L43.078125,9.65625 C41.7656184,10.8958395 40.4166736,12.0624945 39.03125,13.15625 L48,13.15625 L49.53125,11.734375 L51.5,13.8125 L41.984375,13.8125 C41.6197898,14.7604214 41.2187522,15.8906184 40.78125,17.203125 L47.78125,17.203125 L48.65625,16.109375 L50.40625,17.640625 L49.53125,18.1875 C48.9479137,20.593762 48.5286471,22.2343706 48.2734375,23.109375 C48.0182279,23.9843794 47.6171902,24.6223938 47.0703125,25.0234375 C46.5234348,25.4244812 45.4114667,25.6979159 43.734375,25.84375 C43.661458,24.8229116 42.3489711,23.9479203 39.796875,23.21875 L39.90625,22.78125 C42.8229312,23.4375033 44.6276007,23.765625 45.3203125,23.765625 C46.0130243,23.765625 46.4869779,23.4739613 46.7421875,22.890625 C46.9973971,22.3072887 47.4166637,20.6302222 48,17.859375 L40.671875,17.859375 L39.90625,18.734375 L38.484375,17.421875 L39.46875,16.65625 C39.7604181,15.9270797 40.0156239,14.9791725 40.234375,13.8125 L39.46875,14.140625 L38.921875,13.265625 C37.4635344,14.3593805 35.8593837,15.3619746 34.109375,16.2734375 C32.3593663,17.1849004 30.6458417,17.9322888 28.96875,18.515625 L28.859375,18.078125 C30.9010519,17.1302036 32.9426981,15.9817776 34.984375,14.6328125 C37.0260519,13.2838474 39.0676981,11.6250098 41.109375,9.65625 L31.703125,9.65625 C30.7552036,9.65625 29.8802123,9.76562391 29.078125,9.984375 L28.09375,9 L38.921875,9 L38.921875,5.390625 L35.640625,5.390625 C34.6927036,5.390625 33.8177123,5.49999891 33.015625,5.71875 L32.03125,4.734375 L38.921875,4.734375 C38.921875,2.40103 38.885417,0.869795313 38.8125,0.140625 L41.546875,1.125 L40.453125,2 L40.453125,4.734375 L42.203125,4.734375 L43.625,3.53125 L45.2228492,5.22896473 L45.2228492,5.22896473 Z M45.2228492,5.22896473 C45.1795494,5.28311137 45.1362496,5.33699812 45.0929499,5.390625 L45.375,5.390625 L45.2228492,5.22896473 L45.2228492,5.22896473 Z" id="缺考"></path>
            </g>
            <g id="Group-8" transform="translate(514.000000, 28.000000)">
                <path d="M17.59375,18.296875 C18.7604225,18.5156261 19.7083297,18.643229 20.4375,18.6796875 C21.1666703,18.716146 21.6041659,18.2057345 21.75,17.1484375 C21.8958341,16.0911405 21.96875,14.9062566 21.96875,13.59375 L16.171875,13.59375 C16.171875,18.0416889 16.208333,20.6302047 16.28125,21.359375 L14.640625,22.015625 C14.713542,19.9739481 14.75,17.1666845 14.75,13.59375 L11.140625,13.59375 C10.1927036,13.59375 9.3177123,13.7031239 8.515625,13.921875 L7.53125,12.9375 L14.75,12.9375 L14.75,9.65625 L11.796875,9.65625 C11.4322898,9.65625 10.8489623,9.7656239 10.046875,9.984375 L9.0625,9 L14.75,9 L14.75,5.390625 L11.03125,5.390625 C10.3020797,5.390625 9.5364623,5.49999891 8.734375,5.71875 L7.75,4.734375 L14.75,4.734375 C14.75,2.98436625 14.713542,1.5260475 14.640625,0.359375 L17.15625,1.5625 L16.171875,2.21875 L16.171875,4.734375 L20.875,4.734375 L22.296875,3.3125 L24.265625,5.390625 L16.171875,5.390625 L16.171875,9 L19.78125,9 L21.3125,7.6875 L23.171875,9.65625 L16.171875,9.65625 L16.171875,12.9375 L21.75,12.9375 L22.515625,11.734375 L24.375,13.15625 L23.5,13.8125 C23.427083,16.5833472 23.1901062,18.4062456 22.7890625,19.28125 C22.3880188,20.1562544 21.5677145,20.7395819 20.328125,21.03125 C20.401042,20.0833286 19.4895928,19.3177112 17.59375,18.734375 L17.59375,18.296875 Z M2.609375,1.5625 L2.9375,1.34375 C4.1041725,2.14583734 4.94270578,2.83853875 5.453125,3.421875 C5.96354422,4.00521125 6.14583406,4.60676773 6,5.2265625 C5.85416594,5.84635727 5.52604422,6.32031086 5.015625,6.6484375 C4.50520578,6.97656414 4.17708406,6.5572975 4.03125,5.390625 C3.88541594,4.2239525 3.41146234,2.94792359 2.609375,1.5625 Z M6,19.609375 C6.65625328,20.2656283 7.5677025,20.9036427 8.734375,21.5234375 C9.9010475,22.1432323 11.632801,22.507812 13.9296875,22.6171875 C16.226574,22.726563 18.3593652,22.744792 20.328125,22.671875 C22.2968848,22.598958 24.1197833,22.4895841 25.796875,22.34375 L25.796875,22.78125 C24.3385344,23.1458352 23.572917,23.7656206 23.5,24.640625 C20.2187336,24.567708 17.5390729,24.476563 15.4609375,24.3671875 C13.3828021,24.257812 11.6145906,23.9296902 10.15625,23.3828125 C8.69790938,22.8359348 7.60417031,22.1979203 6.875,21.46875 C6.14582969,20.7395797 5.59896016,20.356771 5.234375,20.3203125 C4.86978984,20.283854 4.23177539,20.6484337 3.3203125,21.4140625 C2.40884961,22.1796913 1.88020906,22.7812478 1.734375,23.21875 L0.09375,21.6875 C1.40625656,20.8124956 2.86457531,20.0833363 4.46875,19.5 L4.46875,10.53125 L3.703125,10.53125 C2.75520359,10.53125 1.88021234,10.6406239 1.078125,10.859375 L0.09375,9.875 L4.359375,9.875 L5.125,8.78125 L6.875,10.09375 L6,10.75 L6,19.609375 Z M38.8125,7.796875 C36.406238,10.7864733 33.7812642,13.6301948 30.9375,16.328125 L39.03125,15.125 L39.140625,15.5625 C34.401018,16.5833384 31.5208384,17.4947877 30.5,18.296875 L29.296875,16.328125 C29.9531283,16.1822909 30.8281195,15.5078185 31.921875,14.3046875 C33.0156305,13.1015565 34.2187434,11.5520928 35.53125,9.65625 C32.4687347,10.0937522 30.5729203,10.5677058 29.84375,11.078125 L28.859375,9.109375 C29.6614623,9.036458 30.6458275,8.0703218 31.8125,6.2109375 C32.9791725,4.3515532 33.8541637,2.54688375 34.4375,0.796875 L36.515625,2.21875 L35.53125,2.765625 C33.7812413,5.53647219 32.0677167,7.68749234 30.390625,9.21875 L35.859375,9.109375 C36.8802134,7.65103438 37.5729148,6.52083734 37.9375,5.71875 L39.796875,7.359375 L38.8125,7.796875 Z M28.96875,22.453125 C31.4479291,21.7968717 34.9114361,20.5573008 39.359375,18.734375 L39.578125,19.171875 C34.3280988,21.7239711 31.2656294,23.4739536 30.390625,24.421875 L28.96875,22.453125 Z M40.5625,14.359375 C40.5625,12.5364492 40.526042,11.1875044 40.453125,10.3125 L42.09375,11.1875 L49.421875,11.1875 L49.421875,3.75 L42.96875,3.75 C42.0208286,3.75 41.1458373,3.85937391 40.34375,4.078125 L39.359375,3.09375 L49.203125,3.09375 L50.40625,1.890625 L52.046875,3.53125 L50.84375,4.296875 L50.84375,9.65625 C50.84375,10.6770884 50.880208,11.6979116 50.953125,12.71875 L49.421875,13.484375 L49.421875,11.84375 L41.984375,11.84375 L41.984375,21.25 C41.984375,22.3437555 42.6041605,22.890625 43.84375,22.890625 L50.1875,22.890625 C50.7708363,22.890625 51.1354159,22.4713584 51.28125,21.6328125 C51.4270841,20.7942666 51.5,19.3177189 51.5,17.203125 L52.046875,17.203125 C52.119792,18.8072997 52.2291659,20.0286416 52.375,20.8671875 C52.5208341,21.7057334 52.8854137,22.3072898 53.46875,22.671875 C53.1041648,23.4010453 52.7213562,23.8567699 52.3203125,24.0390625 C51.9192688,24.2213551 51.3541703,24.3125 50.625,24.3125 L43.296875,24.3125 C41.4739492,24.3125 40.5625,23.3645928 40.5625,21.46875 L40.5625,14.359375 Z" id="违纪"></path>
            </g>
        </g>
    </g>
</svg>