<?xml version="1.0" encoding="UTF-8" standalone="no"?>
<svg width="253px" height="38px" viewBox="0 0 253 38" version="1.1" xmlns="http://www.w3.org/2000/svg" xmlns:xlink="http://www.w3.org/1999/xlink">
    <!-- Generator: Sketch 47.1 (45422) - http://www.bohemiancoding.com/sketch -->
    <title>secret_tag</title>
    <desc>Created with Sketch.</desc>
    <defs></defs>
    <g id="Page-1" stroke="none" stroke-width="1" fill="none" fill-rule="evenodd">
        <g id="secret_tag" transform="translate(-1.000000, 0.000000)" fill="#000000">
            <g id="绝密" font-size="40" font-family="SimSun" font-weight="normal">
                <text>
                    <tspan x="0" y="34">绝密</tspan>
                </text>
            </g>
            <path d="M127.571429,14.15625 C127.571429,14.4836326 127.377978,14.8407719 126.991071,15.2276786 L118.888393,23.1294643 L120.808036,34.2901786 C120.822917,34.3943458 120.830357,34.5431538 120.830357,34.7366071 C120.830357,35.0491087 120.752233,35.313243 120.595982,35.5290179 C120.439731,35.7447927 120.212799,35.8526786 119.915179,35.8526786 C119.632439,35.8526786 119.334823,35.7633937 119.022321,35.5848214 L109,30.3169643 L98.9776786,35.5848214 C98.650296,35.7633937 98.3526799,35.8526786 98.0848214,35.8526786 C97.7723199,35.8526786 97.5379472,35.7447927 97.3816964,35.5290179 C97.2254456,35.313243 97.1473214,35.0491087 97.1473214,34.7366071 C97.1473214,34.647321 97.1622022,34.4985129 97.1919643,34.2901786 L99.1116071,23.1294643 L90.9866071,15.2276786 C90.6145815,14.8258908 90.4285714,14.4687516 90.4285714,14.15625 C90.4285714,13.605652 90.8452339,13.2633935 91.6785714,13.1294643 L102.883929,11.5 L107.90625,1.34375 C108.18899,0.733627902 108.553569,0.428571429 109,0.428571429 C109.446431,0.428571429 109.81101,0.733627902 110.09375,1.34375 L115.116071,11.5 L126.321429,13.1294643 C127.154766,13.2633935 127.571429,13.605652 127.571429,14.15625 Z" id="" fill-rule="nonzero"></path>
            <g id="启用前" transform="translate(136.000000, 0.000000)" font-size="40" font-family="SimSun" font-weight="normal">
                <text>
                    <tspan x="0" y="34">启用前</tspan>
                </text>
            </g>
        </g>
    </g>
</svg>