<?xml version="1.0" encoding="UTF-8"?>
<svg width="2082px" height="106px" viewBox="0 0 2082 106" version="1.1" xmlns="http://www.w3.org/2000/svg" xmlns:xlink="http://www.w3.org/1999/xlink">
    <!-- Generator: Sketch 53.1 (72631) - https://sketchapp.com -->
    <title>黑（大）</title>
    <desc>Created with Sketch.</desc>
    <g id="Page-1" stroke="none" stroke-width="1" fill="none" fill-rule="evenodd">
        <g id="黑（大）" transform="translate(-1.000000, -1.000000)" fill="#000000" fill-rule="nonzero">
            <path d="M1979,3 L1979,105 L2081,105 L2081,3 L1979,3 Z M2083,1 L2083,107 L1977,107 L1977,1 L2083,1 Z" id="1-copy-20"></path>
            <path d="M1875,3 L1875,105 L1977,105 L1977,3 L1875,3 Z M1979,1 L1979,107 L1873,107 L1873,1 L1979,1 Z" id="1-copy-19"></path>
            <path d="M1771,3 L1771,105 L1873,105 L1873,3 L1771,3 Z M1875,1 L1875,107 L1769,107 L1769,1 L1875,1 Z" id="1-copy-18"></path>
            <path d="M1667,3 L1667,105 L1769,105 L1769,3 L1667,3 Z M1771,1 L1771,107 L1665,107 L1665,1 L1771,1 Z" id="1-copy-17"></path>
            <path d="M1563,3 L1563,105 L1665,105 L1665,3 L1563,3 Z M1667,1 L1667,107 L1561,107 L1561,1 L1667,1 Z" id="1-copy-16"></path>
            <path d="M1459,3 L1459,105 L1561,105 L1561,3 L1459,3 Z M1563,1 L1563,107 L1457,107 L1457,1 L1563,1 Z" id="1-copy-15"></path>
            <path d="M1355,3 L1355,105 L1457,105 L1457,3 L1355,3 Z M1459,1 L1459,107 L1353,107 L1353,1 L1459,1 Z" id="1-copy-14"></path>
            <path d="M1251,3 L1251,105 L1353,105 L1353,3 L1251,3 Z M1355,1 L1355,107 L1249,107 L1249,1 L1355,1 Z" id="1-copy-13"></path>
            <path d="M1147,3 L1147,105 L1249,105 L1249,3 L1147,3 Z M1251,1 L1251,107 L1145,107 L1145,1 L1251,1 Z" id="1-copy-12"></path>
            <path d="M1043,3 L1043,105 L1145,105 L1145,3 L1043,3 Z M1147,1 L1147,107 L1041,107 L1041,1 L1147,1 Z" id="1-copy-11"></path>
            <path d="M939,3 L939,105 L1041,105 L1041,3 L939,3 Z M1043,1 L1043,107 L937,107 L937,1 L1043,1 Z" id="1-copy-10"></path>
            <path d="M835,3 L835,105 L937,105 L937,3 L835,3 Z M939,1 L939,107 L833,107 L833,1 L939,1 Z" id="1-copy-9"></path>
            <path d="M731,3 L731,105 L833,105 L833,3 L731,3 Z M835,1 L835,107 L729,107 L729,1 L835,1 Z" id="1-copy-8"></path>
            <path d="M627,3 L627,105 L729,105 L729,3 L627,3 Z M731,1 L731,107 L625,107 L625,1 L731,1 Z" id="1-copy-7"></path>
            <path d="M523,3 L523,105 L625,105 L625,3 L523,3 Z M627,1 L627,107 L521,107 L521,1 L627,1 Z" id="1-copy-6"></path>
            <path d="M419,3 L419,105 L521,105 L521,3 L419,3 Z M523,1 L523,107 L417,107 L417,1 L523,1 Z" id="1-copy-5"></path>
            <path d="M315,3 L315,105 L417,105 L417,3 L315,3 Z M419,1 L419,107 L313,107 L313,1 L419,1 Z" id="1-copy-4"></path>
            <path d="M211,3 L211,105 L313,105 L313,3 L211,3 Z M315,1 L315,107 L209,107 L209,1 L315,1 Z" id="1-copy-3"></path>
            <path d="M107,3 L107,105 L209,105 L209,3 L107,3 Z M211,1 L211,107 L105,107 L105,1 L211,1 Z" id="1-copy-2"></path>
            <path d="M3,3 L3,105 L105,105 L105,3 L3,3 Z M107,1 L107,107 L1,107 L1,1 L107,1 Z" id="1-copy"></path>
        </g>
    </g>
</svg>