<?xml version="1.0" encoding="UTF-8" standalone="no"?>
<svg width="682px" height="47px" viewBox="0 0 682 47" version="1.1" xmlns="http://www.w3.org/2000/svg" xmlns:xlink="http://www.w3.org/1999/xlink">
    <!-- Generator: Sketch 49.3 (51167) - http://www.bohemiancoding.com/sketch -->
    <title>1</title>
    <desc>Created with Sketch.</desc>
    <defs></defs>
    <g id="Page-1" stroke="none" stroke-width="1" fill="none" fill-rule="evenodd">
        <g id="1" fill="#FF1E1E" fill-rule="nonzero">
            <path d="M636.379473,1.46875 L636.379473,45.8903521 L680.753931,45.8903521 L680.753931,1.46875 L636.379473,1.46875 Z M681.73241,0.489583333 L681.73241,46.8695188 L635.400994,46.8695188 L635.400994,0.489583333 L681.73241,0.489583333 Z" id="15"></path>
            <path d="M591.026536,1.46875 L591.026536,45.8903521 L635.400993,45.8903521 L635.400993,1.46875 L591.026536,1.46875 Z M636.379473,0.489583333 L636.379473,46.8695188 L590.048056,46.8695188 L590.048056,0.489583333 L636.379473,0.489583333 Z" id="14"></path>
            <path d="M545.673599,1.46875 L545.673599,45.8903521 L590.048057,45.8903521 L590.048057,1.46875 L545.673599,1.46875 Z M591.026536,0.489583333 L591.026536,46.8695188 L544.69512,46.8695188 L544.69512,0.489583333 L591.026536,0.489583333 Z" id="13"></path>
            <path d="M500.320662,1.46875 L500.320662,45.8903521 L544.69512,45.8903521 L544.69512,1.46875 L500.320662,1.46875 Z M545.673599,0.489583333 L545.673599,46.8695188 L499.342183,46.8695188 L499.342183,0.489583333 L545.673599,0.489583333 Z" id="12"></path>
            <path d="M454.967725,1.46875 L454.967725,45.8903521 L499.342183,45.8903521 L499.342183,1.46875 L454.967725,1.46875 Z M500.320662,0.489583333 L500.320662,46.8695188 L453.989246,46.8695188 L453.989246,0.489583333 L500.320662,0.489583333 Z" id="11"></path>
            <path d="M409.614788,1.46875 L409.614788,45.8903521 L453.989246,45.8903521 L453.989246,1.46875 L409.614788,1.46875 Z M454.967725,0.489583333 L454.967725,46.8695188 L408.636309,46.8695188 L408.636309,0.489583333 L454.967725,0.489583333 Z" id="10"></path>
            <path d="M364.261851,45.8903521 L408.636309,45.8903521 L408.636309,1.46875 L364.261851,1.46875 L364.261851,45.8903521 Z M409.614788,0.489583333 L409.614788,46.8695188 L363.283372,46.8695188 L363.283372,0.489583333 L409.614788,0.489583333 Z" id="9"></path>
            <path d="M318.908914,1.46875 L318.908914,45.8903521 L363.283372,45.8903521 L363.283372,1.46875 L318.908914,1.46875 Z M364.261851,0.489583333 L364.261851,46.8695188 L317.930435,46.8695188 L317.930435,0.489583333 L364.261851,0.489583333 Z" id="8"></path>
            <path d="M273.555977,1.46875 L273.555977,45.8903521 L317.930435,45.8903521 L317.930435,1.46875 L273.555977,1.46875 Z M318.908914,0.489583333 L318.908914,46.8695188 L272.577498,46.8695188 L272.577498,0.489583333 L318.908914,0.489583333 Z" id="7"></path>
            <path d="M228.232404,1.46875 L228.232404,45.8903521 L272.606862,45.8903521 L272.606862,1.46875 L228.232404,1.46875 Z M273.585341,0.489583333 L273.585341,46.8695188 L227.253925,46.8695188 L227.253925,0.489583333 L273.585341,0.489583333 Z" id="6"></path>
            <path d="M182.879466,1.46875 L182.879466,45.8903521 L227.253924,45.8903521 L227.253924,1.46875 L182.879466,1.46875 Z M228.232403,0.489583333 L228.232403,46.8695188 L181.900987,46.8695188 L181.900987,0.489583333 L228.232403,0.489583333 Z" id="5"></path>
            <path d="M137.52653,1.46875 L137.52653,45.8903521 L181.900988,45.8903521 L181.900988,1.46875 L137.52653,1.46875 Z M182.879467,0.489583333 L182.879467,46.8695188 L136.548051,46.8695188 L136.548051,0.489583333 L182.879467,0.489583333 Z" id="4"></path>
            <path d="M92.1735928,1.46875 L92.1735928,45.8903521 L136.548051,45.8903521 L136.548051,1.46875 L92.1735928,1.46875 Z M137.52653,0.489583333 L137.52653,46.8695188 L91.1951136,46.8695188 L91.1951136,0.489583333 L137.52653,0.489583333 Z" id="3"></path>
            <path d="M46.8206558,1.46875 L46.8206558,45.8903521 L91.1951136,45.8903521 L91.1951136,1.46875 L46.8206558,1.46875 Z M92.1735928,0.489583333 L92.1735928,46.8695188 L45.8421766,46.8695188 L45.8421766,0.489583333 L92.1735928,0.489583333 Z" id="2"></path>
            <path d="M1.46771879,1.46875 L1.46771879,45.8903521 L45.8421766,45.8903521 L45.8421766,1.46875 L1.46771879,1.46875 Z M46.8206558,0.489583333 L46.8206558,46.8695188 L0.489239598,46.8695188 L0.489239598,0.489583333 L46.8206558,0.489583333 Z"></path>
        </g>
    </g>
</svg>