<?xml version="1.0" encoding="UTF-8"?>
<svg width="2082px" height="106px" viewBox="0 0 2082 106" version="1.1" xmlns="http://www.w3.org/2000/svg" xmlns:xlink="http://www.w3.org/1999/xlink">
    <!-- Generator: Sketch 53.1 (72631) - https://sketchapp.com -->
    <title>红（大）</title>
    <desc>Created with Sketch.</desc>
    <g id="Page-1" stroke="none" stroke-width="1" fill="none" fill-rule="evenodd">
        <g id="红（大）" transform="translate(1.000000, 1.000000)" fill="#FF1E1E" fill-rule="nonzero">
            <path d="M1977,1 L1977,103 L2079,103 L2079,1 L1977,1 Z M2081,-1 L2081,105 L1975,105 L1975,-1 L2081,-1 Z" id="1-copy-20"></path>
            <path d="M1873,1 L1873,103 L1975,103 L1975,1 L1873,1 Z M1977,-1 L1977,105 L1871,105 L1871,-1 L1977,-1 Z" id="1-copy-19"></path>
            <path d="M1769,1 L1769,103 L1871,103 L1871,1 L1769,1 Z M1873,-1 L1873,105 L1767,105 L1767,-1 L1873,-1 Z" id="1-copy-18"></path>
            <path d="M1665,1 L1665,103 L1767,103 L1767,1 L1665,1 Z M1769,-1 L1769,105 L1663,105 L1663,-1 L1769,-1 Z" id="1-copy-17"></path>
            <path d="M1561,1 L1561,103 L1663,103 L1663,1 L1561,1 Z M1665,-1 L1665,105 L1559,105 L1559,-1 L1665,-1 Z" id="1-copy-16"></path>
            <path d="M1457,1 L1457,103 L1559,103 L1559,1 L1457,1 Z M1561,-1 L1561,105 L1455,105 L1455,-1 L1561,-1 Z" id="1-copy-15"></path>
            <path d="M1353,1 L1353,103 L1455,103 L1455,1 L1353,1 Z M1457,-1 L1457,105 L1351,105 L1351,-1 L1457,-1 Z" id="1-copy-14"></path>
            <path d="M1249,1 L1249,103 L1351,103 L1351,1 L1249,1 Z M1353,-1 L1353,105 L1247,105 L1247,-1 L1353,-1 Z" id="1-copy-13"></path>
            <path d="M1145,1 L1145,103 L1247,103 L1247,1 L1145,1 Z M1249,-1 L1249,105 L1143,105 L1143,-1 L1249,-1 Z" id="1-copy-12"></path>
            <path d="M1041,1 L1041,103 L1143,103 L1143,1 L1041,1 Z M1145,-1 L1145,105 L1039,105 L1039,-1 L1145,-1 Z" id="1-copy-11"></path>
            <path d="M937,1 L937,103 L1039,103 L1039,1 L937,1 Z M1041,-1 L1041,105 L935,105 L935,-1 L1041,-1 Z" id="1-copy-10"></path>
            <path d="M833,1 L833,103 L935,103 L935,1 L833,1 Z M937,-1 L937,105 L831,105 L831,-1 L937,-1 Z" id="1-copy-9"></path>
            <path d="M729,1 L729,103 L831,103 L831,1 L729,1 Z M833,-1 L833,105 L727,105 L727,-1 L833,-1 Z" id="1-copy-8"></path>
            <path d="M625,1 L625,103 L727,103 L727,1 L625,1 Z M729,-1 L729,105 L623,105 L623,-1 L729,-1 Z" id="1-copy-7"></path>
            <path d="M521,1 L521,103 L623,103 L623,1 L521,1 Z M625,-1 L625,105 L519,105 L519,-1 L625,-1 Z" id="1-copy-6"></path>
            <path d="M417,1 L417,103 L519,103 L519,1 L417,1 Z M521,-1 L521,105 L415,105 L415,-1 L521,-1 Z" id="1-copy-5"></path>
            <path d="M313,1 L313,103 L415,103 L415,1 L313,1 Z M417,-1 L417,105 L311,105 L311,-1 L417,-1 Z" id="1-copy-4"></path>
            <path d="M209,1 L209,103 L311,103 L311,1 L209,1 Z M313,-1 L313,105 L207,105 L207,-1 L313,-1 Z" id="1-copy-3"></path>
            <path d="M105,1 L105,103 L207,103 L207,1 L105,1 Z M209,-1 L209,105 L103,105 L103,-1 L209,-1 Z" id="1-copy-2"></path>
            <path d="M1,1 L1,103 L103,103 L103,1 L1,1 Z M105,-1 L105,105 L-1,105 L-1,-1 L105,-1 Z" id="1-copy"></path>
        </g>
    </g>
</svg>