<?xml version="1.0" encoding="UTF-8"?>
<svg width="1042px" height="54px" viewBox="0 0 1042 54" version="1.1" xmlns="http://www.w3.org/2000/svg" xmlns:xlink="http://www.w3.org/1999/xlink">
    <!-- Generator: Sketch 52.2 (67145) - http://www.bohemiancoding.com/sketch -->
    <title>红（小）</title>
    <desc>Created with Sketch.</desc>
    <g id="Page-1" stroke="none" stroke-width="1" fill="none" fill-rule="evenodd">
        <g id="红（小）" transform="translate(1.000000, 1.000000)" fill="#FF1E1E" fill-rule="nonzero">
            <path d="M988.5,0.5 L988.5,51.5 L1039.5,51.5 L1039.5,0.5 L988.5,0.5 Z M1040.5,-0.5 L1040.5,52.5 L987.5,52.5 L987.5,-0.5 L1040.5,-0.5 Z" id="1-copy-20"></path>
            <path d="M936.5,0.5 L936.5,51.5 L987.5,51.5 L987.5,0.5 L936.5,0.5 Z M988.5,-0.5 L988.5,52.5 L935.5,52.5 L935.5,-0.5 L988.5,-0.5 Z" id="1-copy-19"></path>
            <path d="M884.5,0.5 L884.5,51.5 L935.5,51.5 L935.5,0.5 L884.5,0.5 Z M936.5,-0.5 L936.5,52.5 L883.5,52.5 L883.5,-0.5 L936.5,-0.5 Z" id="1-copy-18"></path>
            <path d="M832.5,0.5 L832.5,51.5 L883.5,51.5 L883.5,0.5 L832.5,0.5 Z M884.5,-0.5 L884.5,52.5 L831.5,52.5 L831.5,-0.5 L884.5,-0.5 Z" id="1-copy-17"></path>
            <path d="M780.5,0.5 L780.5,51.5 L831.5,51.5 L831.5,0.5 L780.5,0.5 Z M832.5,-0.5 L832.5,52.5 L779.5,52.5 L779.5,-0.5 L832.5,-0.5 Z" id="1-copy-16"></path>
            <path d="M728.5,0.5 L728.5,51.5 L779.5,51.5 L779.5,0.5 L728.5,0.5 Z M780.5,-0.5 L780.5,52.5 L727.5,52.5 L727.5,-0.5 L780.5,-0.5 Z" id="1-copy-15"></path>
            <path d="M676.5,0.5 L676.5,51.5 L727.5,51.5 L727.5,0.5 L676.5,0.5 Z M728.5,-0.5 L728.5,52.5 L675.5,52.5 L675.5,-0.5 L728.5,-0.5 Z" id="1-copy-14"></path>
            <path d="M624.5,0.5 L624.5,51.5 L675.5,51.5 L675.5,0.5 L624.5,0.5 Z M676.5,-0.5 L676.5,52.5 L623.5,52.5 L623.5,-0.5 L676.5,-0.5 Z" id="1-copy-13"></path>
            <path d="M572.5,0.5 L572.5,51.5 L623.5,51.5 L623.5,0.5 L572.5,0.5 Z M624.5,-0.5 L624.5,52.5 L571.5,52.5 L571.5,-0.5 L624.5,-0.5 Z" id="1-copy-12"></path>
            <path d="M520.5,0.5 L520.5,51.5 L571.5,51.5 L571.5,0.5 L520.5,0.5 Z M572.5,-0.5 L572.5,52.5 L519.5,52.5 L519.5,-0.5 L572.5,-0.5 Z" id="1-copy-11"></path>
            <path d="M468.5,0.5 L468.5,51.5 L519.5,51.5 L519.5,0.5 L468.5,0.5 Z M520.5,-0.5 L520.5,52.5 L467.5,52.5 L467.5,-0.5 L520.5,-0.5 Z" id="1-copy-10"></path>
            <path d="M416.5,0.5 L416.5,51.5 L467.5,51.5 L467.5,0.5 L416.5,0.5 Z M468.5,-0.5 L468.5,52.5 L415.5,52.5 L415.5,-0.5 L468.5,-0.5 Z" id="1-copy-9"></path>
            <path d="M364.5,0.5 L364.5,51.5 L415.5,51.5 L415.5,0.5 L364.5,0.5 Z M416.5,-0.5 L416.5,52.5 L363.5,52.5 L363.5,-0.5 L416.5,-0.5 Z" id="1-copy-8"></path>
            <path d="M312.5,0.5 L312.5,51.5 L363.5,51.5 L363.5,0.5 L312.5,0.5 Z M364.5,-0.5 L364.5,52.5 L311.5,52.5 L311.5,-0.5 L364.5,-0.5 Z" id="1-copy-7"></path>
            <path d="M260.5,0.5 L260.5,51.5 L311.5,51.5 L311.5,0.5 L260.5,0.5 Z M312.5,-0.5 L312.5,52.5 L259.5,52.5 L259.5,-0.5 L312.5,-0.5 Z" id="1-copy-6"></path>
            <path d="M208.5,0.5 L208.5,51.5 L259.5,51.5 L259.5,0.5 L208.5,0.5 Z M260.5,-0.5 L260.5,52.5 L207.5,52.5 L207.5,-0.5 L260.5,-0.5 Z" id="1-copy-5"></path>
            <path d="M156.5,0.5 L156.5,51.5 L207.5,51.5 L207.5,0.5 L156.5,0.5 Z M208.5,-0.5 L208.5,52.5 L155.5,52.5 L155.5,-0.5 L208.5,-0.5 Z" id="1-copy-4"></path>
            <path d="M104.5,0.5 L104.5,51.5 L155.5,51.5 L155.5,0.5 L104.5,0.5 Z M156.5,-0.5 L156.5,52.5 L103.5,52.5 L103.5,-0.5 L156.5,-0.5 Z" id="1-copy-3"></path>
            <path d="M52.5,0.5 L52.5,51.5 L103.5,51.5 L103.5,0.5 L52.5,0.5 Z M104.5,-0.5 L104.5,52.5 L51.5,52.5 L51.5,-0.5 L104.5,-0.5 Z" id="1-copy-2"></path>
            <path d="M0.5,0.5 L0.5,51.5 L51.5,51.5 L51.5,0.5 L0.5,0.5 Z M52.5,-0.5 L52.5,52.5 L-0.5,52.5 L-0.5,-0.5 L52.5,-0.5 Z" id="1-copy"></path>
        </g>
    </g>
</svg>