<?xml version="1.0" encoding="UTF-8"?>
<svg width="1354px" height="106px" viewBox="0 0 1354 106" version="1.1" xmlns="http://www.w3.org/2000/svg" xmlns:xlink="http://www.w3.org/1999/xlink">
    <!-- Generator: Sketch 53.1 (72631) - https://sketchapp.com -->
    <title>三栏 红（大） copy</title>
    <desc>Created with Sketch.</desc>
    <g id="Page-1" stroke="none" stroke-width="1" fill="none" fill-rule="evenodd">
        <g id="三栏-红（大）-copy" fill="#FF1E1E" fill-rule="nonzero">
            <path d="M1250,2 L1250,104 L1352,104 L1352,2 L1250,2 Z M1354,0 L1354,106 L1248,106 L1248,0 L1354,0 Z" id="1-copy-13"></path>
            <path d="M1146,2 L1146,104 L1248,104 L1248,2 L1146,2 Z M1250,0 L1250,106 L1144,106 L1144,0 L1250,0 Z" id="1-copy-12"></path>
            <path d="M1042,2 L1042,104 L1144,104 L1144,2 L1042,2 Z M1146,0 L1146,106 L1040,106 L1040,0 L1146,0 Z" id="1-copy-11"></path>
            <path d="M938,2 L938,104 L1040,104 L1040,2 L938,2 Z M1042,0 L1042,106 L936,106 L936,0 L1042,0 Z" id="1-copy-10"></path>
            <path d="M834,2 L834,104 L936,104 L936,2 L834,2 Z M938,0 L938,106 L832,106 L832,0 L938,0 Z" id="1-copy-9"></path>
            <path d="M730,2 L730,104 L832,104 L832,2 L730,2 Z M834,0 L834,106 L728,106 L728,0 L834,0 Z" id="1-copy-8"></path>
            <path d="M626,2 L626,104 L728,104 L728,2 L626,2 Z M730,0 L730,106 L624,106 L624,0 L730,0 Z" id="1-copy-7"></path>
            <path d="M522,2 L522,104 L624,104 L624,2 L522,2 Z M626,0 L626,106 L520,106 L520,0 L626,0 Z" id="1-copy-6"></path>
            <path d="M418,2 L418,104 L520,104 L520,2 L418,2 Z M522,0 L522,106 L416,106 L416,0 L522,0 Z" id="1-copy-5"></path>
            <path d="M314,2 L314,104 L416,104 L416,2 L314,2 Z M418,0 L418,106 L312,106 L312,0 L418,0 Z" id="1-copy-4"></path>
            <path d="M210,2 L210,104 L312,104 L312,2 L210,2 Z M314,0 L314,106 L208,106 L208,0 L314,0 Z" id="1-copy-3"></path>
            <path d="M106,2 L106,104 L208,104 L208,2 L106,2 Z M210,0 L210,106 L104,106 L104,0 L210,0 Z" id="1-copy-2"></path>
            <path d="M2,2 L2,104 L104,104 L104,2 L2,2 Z M106,0 L106,106 L0,106 L0,0 L106,0 Z" id="1-copy"></path>
        </g>
    </g>
</svg>