<?xml version="1.0" encoding="UTF-8" standalone="no"?>
<svg width="1035px" height="47px" viewBox="0 0 1035 47" version="1.1" xmlns="http://www.w3.org/2000/svg" xmlns:xlink="http://www.w3.org/1999/xlink">
    <!-- Generator: Sketch 46 (44423) - http://www.bohemiancoding.com/sketch -->
    <title>Group 13 Copy 4</title>
    <desc>Created with Sketch.</desc>
    <defs></defs>
    <g id="Page-2" stroke="none" stroke-width="1" fill="none" fill-rule="evenodd">
        <g id="11-copy-8" transform="translate(-17.000000, -150.000000)" stroke="#FF1E1E" fill="#FFFFFF">
            <g id="Group-13-Copy-4" transform="translate(18.000000, 151.000000)">
                <g id="23">
                    <rect x="988.086957" y="0" width="44.9130435" height="44.9130435"></rect>
                    <rect id="22" x="943.173913" y="0" width="44.9130435" height="44.9130435"></rect>
                    <rect id="21" x="898.26087" y="0" width="44.9130435" height="44.9130435"></rect>
                    <rect id="20" x="853.347826" y="0" width="44.9130435" height="44.9130435"></rect>
                    <rect id="19" x="808.434783" y="0" width="44.9130435" height="44.9130435"></rect>
                    <rect id="18" x="763.521739" y="0" width="44.9130435" height="44.9130435"></rect>
                    <rect id="17" x="718.608696" y="0" width="44.9130435" height="44.9130435"></rect>
                    <rect id="16" x="673.695652" y="0" width="44.9130435" height="44.9130435"></rect>
                    <rect id="15" x="628.782609" y="0" width="44.9130435" height="44.9130435"></rect>
                    <rect id="14" x="583.869565" y="0" width="44.9130435" height="44.9130435"></rect>
                    <rect id="13" x="538.956522" y="0" width="44.9130435" height="44.9130435"></rect>
                    <rect id="12" x="494.043478" y="0" width="44.9130435" height="44.9130435"></rect>
                    <rect id="11" x="449.130435" y="0" width="44.9130435" height="44.9130435"></rect>
                    <rect id="10" x="404.217391" y="0" width="44.9130435" height="44.9130435"></rect>
                    <rect id="9" x="359.304348" y="0" width="44.9130435" height="44.9130435"></rect>
                    <rect id="8" x="314.391304" y="0" width="44.9130435" height="44.9130435"></rect>
                    <rect id="7" x="269.478261" y="0" width="44.9130435" height="44.9130435"></rect>
                    <rect id="6" x="224.565217" y="0" width="44.9130435" height="44.9130435"></rect>
                    <rect id="5" x="179.652174" y="0" width="44.9130435" height="44.9130435"></rect>
                    <rect id="4" x="134.73913" y="0" width="44.9130435" height="44.9130435"></rect>
                    <rect id="3" x="89.826087" y="0" width="44.9130435" height="44.9130435"></rect>
                    <rect id="2" x="44.9130435" y="0" width="44.9130435" height="44.9130435"></rect>
                    <rect id="1" x="0" y="0" width="44.9130435" height="44.9130435"></rect>
                </g>
            </g>
        </g>
    </g>
</svg>