<?xml version="1.0" encoding="UTF-8" standalone="no"?>
<svg width="1382px" height="94px" viewBox="0 0 1382 94" version="1.1" xmlns="http://www.w3.org/2000/svg" xmlns:xlink="http://www.w3.org/1999/xlink">
    <!-- Generator: Sketch 49.3 (51167) - http://www.bohemiancoding.com/sketch -->
    <title>23 copy 3</title>
    <desc>Created with Sketch.</desc>
    <defs></defs>
    <g id="Page-1" stroke="none" stroke-width="1" fill="none" fill-rule="evenodd">
        <g id="23-copy-3" transform="translate(1.000000, 1.000000)" fill="#FFFFFF" stroke="#000000" stroke-width="2">
            <rect id="1-copy-15" x="1288" y="0" width="92" height="92"></rect>
            <rect id="1-copy-14" x="1196" y="0" width="92" height="92"></rect>
            <rect id="1-copy-13" x="1104" y="0" width="92" height="92"></rect>
            <rect id="1-copy-12" x="1012" y="0" width="92" height="92"></rect>
            <rect id="1-copy-11" x="920" y="0" width="92" height="92"></rect>
            <rect id="1-copy-10" x="828" y="0" width="92" height="92"></rect>
            <rect id="1-copy-9" x="736" y="0" width="92" height="92"></rect>
            <rect id="1-copy-8" x="644" y="0" width="92" height="92"></rect>
            <rect id="1-copy-7" x="552" y="0" width="92" height="92"></rect>
            <rect id="1-copy-6" x="460" y="0" width="92" height="92"></rect>
            <rect id="1-copy-5" x="368" y="0" width="92" height="92"></rect>
            <rect id="1-copy-4" x="276" y="0" width="92" height="92"></rect>
            <rect id="1-copy-3" x="184" y="0" width="92" height="92"></rect>
            <rect id="1-copy-2" x="92" y="0" width="92" height="92"></rect>
            <rect id="1-copy" x="0" y="0" width="92" height="92"></rect>
        </g>
    </g>
</svg>