<?xml version="1.0" encoding="UTF-8" standalone="no"?>
<svg width="2068px" height="94px" viewBox="0 0 2068 94" version="1.1" xmlns="http://www.w3.org/2000/svg" xmlns:xlink="http://www.w3.org/1999/xlink">
    <!-- Generator: Sketch 49.3 (51167) - http://www.bohemiancoding.com/sketch -->
    <title>zuowen_row_big_color</title>
    <desc>Created with Sketch.</desc>
    <defs></defs>
    <g id="Page-1" stroke="none" stroke-width="1" fill="none" fill-rule="evenodd">
        <g id="zuowen_row_big_color" transform="translate(1.000000, 1.000000)" fill="#FFFFFF" fill-rule="nonzero" stroke="#FF1E1E" stroke-width="2">
            <rect id="Rectangle-path" x="1976.17391" y="0" width="89.826087" height="91.8222223"></rect>
            <rect id="22" x="1886.34783" y="0" width="89.826087" height="91.8222223"></rect>
            <rect id="21" x="1796.52174" y="0" width="89.826087" height="91.8222223"></rect>
            <rect id="20" x="1706.69565" y="0" width="89.826087" height="91.8222223"></rect>
            <rect id="19" x="1616.86957" y="0" width="89.826087" height="91.8222223"></rect>
            <rect id="18" x="1527.04348" y="0" width="89.826087" height="91.8222223"></rect>
            <rect id="17" x="1437.21739" y="0" width="89.826087" height="91.8222223"></rect>
            <rect id="16" x="1347.3913" y="0" width="89.826087" height="91.8222223"></rect>
            <rect id="15" x="1257.56522" y="0" width="89.826087" height="91.8222223"></rect>
            <rect id="14" x="1167.73913" y="0" width="89.826087" height="91.8222223"></rect>
            <rect id="13" x="1077.91304" y="0" width="89.826087" height="91.8222223"></rect>
            <rect id="12" x="988.086957" y="0" width="89.826087" height="91.8222223"></rect>
            <rect id="11" x="898.26087" y="0" width="89.826087" height="91.8222223"></rect>
            <rect id="10" x="808.434783" y="0" width="89.826087" height="91.8222223"></rect>
            <rect id="9" x="718.608696" y="0" width="89.826087" height="91.8222223"></rect>
            <rect id="8" x="628.782609" y="0" width="89.826087" height="91.8222223"></rect>
            <rect id="7" x="538.956522" y="0" width="89.826087" height="91.8222223"></rect>
            <rect id="6" x="449.130435" y="0" width="89.826087" height="91.8222223"></rect>
            <rect id="5" x="359.304348" y="0" width="89.826087" height="91.8222223"></rect>
            <rect id="4" x="269.478261" y="0" width="89.826087" height="91.8222223"></rect>
            <rect id="3" x="179.652174" y="0" width="89.826087" height="91.8222223"></rect>
            <rect id="2" x="89.826087" y="0" width="89.826087" height="91.8222223"></rect>
            <rect id="1" x="0" y="0" width="89.826087" height="91.8222223"></rect>
        </g>
    </g>
</svg>