<?xml version="1.0" encoding="UTF-8"?>
<svg width="678px" height="54px" viewBox="0 0 678 54" version="1.1" xmlns="http://www.w3.org/2000/svg" xmlns:xlink="http://www.w3.org/1999/xlink">
    <!-- Generator: Sketch 52.2 (67145) - http://www.bohemiancoding.com/sketch -->
    <title>三栏 红（小） copy</title>
    <desc>Created with Sketch.</desc>
    <g id="Page-1" stroke="none" stroke-width="1" fill="none" fill-rule="evenodd">
        <g id="三栏-红（小）-copy" fill="#FF1E1E" fill-rule="nonzero">
            <path d="M625.5,1.5 L625.5,52.5 L676.5,52.5 L676.5,1.5 L625.5,1.5 Z M677.5,0.5 L677.5,53.5 L624.5,53.5 L624.5,0.5 L677.5,0.5 Z" id="1-copy-13"></path>
            <path d="M573.5,1.5 L573.5,52.5 L624.5,52.5 L624.5,1.5 L573.5,1.5 Z M625.5,0.5 L625.5,53.5 L572.5,53.5 L572.5,0.5 L625.5,0.5 Z" id="1-copy-12"></path>
            <path d="M521.5,1.5 L521.5,52.5 L572.5,52.5 L572.5,1.5 L521.5,1.5 Z M573.5,0.5 L573.5,53.5 L520.5,53.5 L520.5,0.5 L573.5,0.5 Z" id="1-copy-11"></path>
            <path d="M469.5,1.5 L469.5,52.5 L520.5,52.5 L520.5,1.5 L469.5,1.5 Z M521.5,0.5 L521.5,53.5 L468.5,53.5 L468.5,0.5 L521.5,0.5 Z" id="1-copy-10"></path>
            <path d="M417.5,1.5 L417.5,52.5 L468.5,52.5 L468.5,1.5 L417.5,1.5 Z M469.5,0.5 L469.5,53.5 L416.5,53.5 L416.5,0.5 L469.5,0.5 Z" id="1-copy-9"></path>
            <path d="M365.5,1.5 L365.5,52.5 L416.5,52.5 L416.5,1.5 L365.5,1.5 Z M417.5,0.5 L417.5,53.5 L364.5,53.5 L364.5,0.5 L417.5,0.5 Z" id="1-copy-8"></path>
            <path d="M313.5,1.5 L313.5,52.5 L364.5,52.5 L364.5,1.5 L313.5,1.5 Z M365.5,0.5 L365.5,53.5 L312.5,53.5 L312.5,0.5 L365.5,0.5 Z" id="1-copy-7"></path>
            <path d="M261.5,1.5 L261.5,52.5 L312.5,52.5 L312.5,1.5 L261.5,1.5 Z M313.5,0.5 L313.5,53.5 L260.5,53.5 L260.5,0.5 L313.5,0.5 Z" id="1-copy-6"></path>
            <path d="M209.5,1.5 L209.5,52.5 L260.5,52.5 L260.5,1.5 L209.5,1.5 Z M261.5,0.5 L261.5,53.5 L208.5,53.5 L208.5,0.5 L261.5,0.5 Z" id="1-copy-5"></path>
            <path d="M157.5,1.5 L157.5,52.5 L208.5,52.5 L208.5,1.5 L157.5,1.5 Z M209.5,0.5 L209.5,53.5 L156.5,53.5 L156.5,0.5 L209.5,0.5 Z" id="1-copy-4"></path>
            <path d="M105.5,1.5 L105.5,52.5 L156.5,52.5 L156.5,1.5 L105.5,1.5 Z M157.5,0.5 L157.5,53.5 L104.5,53.5 L104.5,0.5 L157.5,0.5 Z" id="1-copy-3"></path>
            <path d="M53.5,1.5 L53.5,52.5 L104.5,52.5 L104.5,1.5 L53.5,1.5 Z M105.5,0.5 L105.5,53.5 L52.5,53.5 L52.5,0.5 L105.5,0.5 Z" id="1-copy-2"></path>
            <path d="M1.5,1.5 L1.5,52.5 L52.5,52.5 L52.5,1.5 L1.5,1.5 Z M53.5,0.5 L53.5,53.5 L0.5,53.5 L0.5,0.5 L53.5,0.5 Z" id="1-copy"></path>
        </g>
    </g>
</svg>