<?xml version="1.0" encoding="UTF-8" standalone="no"?>
<svg width="1048px" height="428px" viewBox="0 0 1048 428" version="1.1" xmlns="http://www.w3.org/2000/svg" xmlns:xlink="http://www.w3.org/1999/xlink">
    <!-- Generator: Sketch 49.3 (51167) - http://www.bohemiancoding.com/sketch -->
    <title>Slice</title>
    <desc>Created with Sketch.</desc>
    <defs></defs>
    <g id="Page-3" stroke="none" stroke-width="1" fill="none" fill-rule="evenodd">
        <g id="黑色贴条码" transform="translate(340.000000, 156.000000)">
            <g id="Group-7">
                <path d="M85.1428571,2 L85.1428571,0 L91.1428571,0 L91.1428571,2 L85.1428571,2 Z M61.1428571,2 L61.1428571,0 L67.1428571,0 L67.1428571,2 L61.1428571,2 Z M39.1428571,2 L39.1428571,0 L45.1428571,0 L45.1428571,2 L39.1428571,2 Z M17.1428571,2 L17.1428571,0 L23.1428571,0 L23.1428571,2 L17.1428571,2 Z M107.285714,2 L113.285714,2 L113.285714,0 L107.285714,0 L107.285714,2 Z M129.428571,2 L135.428571,2 L135.428571,0 L129.428571,0 L129.428571,2 Z M151.571429,2 L157.571429,2 L157.571429,0 L151.571429,0 L151.571429,2 Z M0,6.86416626 L1.98754883,6.86416626 L1.98754883,2 L9,2 L9,0 L0,0 L0,6.86416626 Z M173.714286,2 L179.714286,2 L179.714286,0 L173.714286,0 L173.714286,2 Z M195.857143,2 L201.857143,2 L201.857143,0 L195.857143,0 L195.857143,2 Z M218,2 L224,2 L224,0 L218,0 L218,2 Z M240.142857,2 L246.142857,2 L246.142857,0 L240.142857,0 L240.142857,2 Z M262.285714,2 L268.285714,2 L268.285714,0 L262.285714,0 L262.285714,2 Z M284.428571,2 L290.428571,2 L290.428571,0 L284.428571,0 L284.428571,2 Z M306.571429,2 L312.571429,2 L312.571429,0 L306.571429,0 L306.571429,2 Z M328.714286,2 L334.714286,2 L334.714286,0 L328.714286,0 L328.714286,2 Z M350.857143,2 L356.857143,2 L356.857143,0 L350.857143,0 L350.857143,2 Z M373,2 L379,2 L379,0 L373,0 L373,2 Z M395.142857,2 L401.142857,2 L401.142857,0 L395.142857,0 L395.142857,2 Z M417.285714,2 L423.285714,2 L423.285714,0 L417.285714,0 L417.285714,2 Z M439.428571,2 L445.428571,2 L445.428571,0 L439.428571,0 L439.428571,2 Z M461.571429,2 L467.571429,2 L467.571429,0 L461.571429,0 L461.571429,2 Z M483.714286,2 L489.714286,2 L489.714286,0 L483.714286,0 L483.714286,2 Z M505.857143,2 L511.857143,2 L511.857143,0 L505.857143,0 L505.857143,2 Z M528,2 L534,2 L534,0 L528,0 L528,2 Z M550.142857,2 L556.142857,2 L556.142857,0 L550.142857,0 L550.142857,2 Z M572.285714,2 L578.285714,2 L578.285714,0 L572.285714,0 L572.285714,2 Z M594.428571,2 L600.428571,2 L600.428571,0 L594.428571,0 L594.428571,2 Z M616.571429,2 L622.571429,2 L622.571429,0 L616.571429,0 L616.571429,2 Z M638.714286,2 L644.714286,2 L644.714286,0 L638.714286,0 L638.714286,2 Z M660.857143,2 L666.857143,2 L666.857143,0 L660.857143,0 L660.857143,2 Z M683,2 L689,2 L689,0 L683,0 L683,2 Z M706,5.78148148 L708,5.78148148 L708,0 L703,0 L703,1.65185185 L706,1.65185185 L706,5.78148148 Z M706,14.0407407 L706,20.0407407 L708,20.0407407 L708,14.0407407 L706,14.0407407 Z M706,33.5740741 L706,39.5740741 L708,39.5740741 L708,33.5740741 L706,33.5740741 Z M706,53.1074074 L706,59.1074074 L708,59.1074074 L708,53.1074074 L706,53.1074074 Z M706,72.6407407 L706,78.6407407 L708,78.6407407 L708,72.6407407 L706,72.6407407 Z M706,92.1740741 L706,98.1740741 L708,98.1740741 L708,92.1740741 L706,92.1740741 Z M706,111.707407 L706,117.707407 L708,117.707407 L708,111.707407 L706,111.707407 Z M706,131.240741 L706,137.240741 L708,137.240741 L708,131.240741 L706,131.240741 Z M706,150.774074 L706,156.774074 L708,156.774074 L708,150.774074 L706,150.774074 Z M706,170.307407 L706,176.307407 L708,176.307407 L708,170.307407 L706,170.307407 Z M706,189.840741 L706,195.840741 L708,195.840741 L708,189.840741 L706,189.840741 Z M706,209.374074 L706,215.374074 L708,215.374074 L708,209.374074 L706,209.374074 Z M706,228.907407 L706,234.907407 L708,234.907407 L708,228.907407 L706,228.907407 Z M706,248.440741 L706,254.440741 L708,254.440741 L708,248.440741 L706,248.440741 Z M706,260.262963 L706,269.339417 L702.482991,269.339417 L702.482991,271.345391 L708,271.345391 L708,260.262963 L706,260.262963 Z M695,269.348148 L689,269.348148 L689,271.348148 L695,271.348148 L695,269.348148 Z M672.857143,269.348148 L666.857143,269.348148 L666.857143,271.348148 L672.857143,271.348148 L672.857143,269.348148 Z M650.714286,269.348148 L644.714286,269.348148 L644.714286,271.348148 L650.714286,271.348148 L650.714286,269.348148 Z M628.571429,269.348148 L622.571429,269.348148 L622.571429,271.348148 L628.571429,271.348148 L628.571429,269.348148 Z M606.428571,269.348148 L600.428571,269.348148 L600.428571,271.348148 L606.428571,271.348148 L606.428571,269.348148 Z M584.285714,269.348148 L578.285714,269.348148 L578.285714,271.348148 L584.285714,271.348148 L584.285714,269.348148 Z M562.142857,269.348148 L556.142857,269.348148 L556.142857,271.348148 L562.142857,271.348148 L562.142857,269.348148 Z M540,269.348148 L534,269.348148 L534,271.348148 L540,271.348148 L540,269.348148 Z M517.857143,269.348148 L511.857143,269.348148 L511.857143,271.348148 L517.857143,271.348148 L517.857143,269.348148 Z M495.714286,269.348148 L489.714286,269.348148 L489.714286,271.348148 L495.714286,271.348148 L495.714286,269.348148 Z M473.571429,269.348148 L467.571429,269.348148 L467.571429,271.348148 L473.571429,271.348148 L473.571429,269.348148 Z M451.428571,269.348148 L445.428571,269.348148 L445.428571,271.348148 L451.428571,271.348148 L451.428571,269.348148 Z M429.285714,269.348148 L423.285714,269.348148 L423.285714,271.348148 L429.285714,271.348148 L429.285714,269.348148 Z M407.142857,269.348148 L401.142857,269.348148 L401.142857,271.348148 L407.142857,271.348148 L407.142857,269.348148 Z M385,269.348148 L379,269.348148 L379,271.348148 L385,271.348148 L385,269.348148 Z M362.857143,269.348148 L356.857143,269.348148 L356.857143,271.348148 L362.857143,271.348148 L362.857143,269.348148 Z M340.714286,269.348148 L334.714286,269.348148 L334.714286,271.348148 L340.714286,271.348148 L340.714286,269.348148 Z M318.571429,269.348148 L312.571429,269.348148 L312.571429,271.348148 L318.571429,271.348148 L318.571429,269.348148 Z M296.428571,269.348148 L290.428571,269.348148 L290.428571,271.348148 L296.428571,271.348148 L296.428571,269.348148 Z M274.285714,269.348148 L268.285714,269.348148 L268.285714,271.348148 L274.285714,271.348148 L274.285714,269.348148 Z M252.142857,269.348148 L246.142857,269.348148 L246.142857,271.348148 L252.142857,271.348148 L252.142857,269.348148 Z M230,269.348148 L224,269.348148 L224,271.348148 L230,271.348148 L230,269.348148 Z M207.857143,269.348148 L201.857143,269.348148 L201.857143,271.348148 L207.857143,271.348148 L207.857143,269.348148 Z M185.714286,269.348148 L179.714286,269.348148 L179.714286,271.348148 L185.714286,271.348148 L185.714286,269.348148 Z M163.571429,269.348148 L157.571429,269.348148 L157.571429,271.348148 L163.571429,271.348148 L163.571429,269.348148 Z M141.428571,269.348148 L135.428571,269.348148 L135.428571,271.348148 L141.428571,271.348148 L141.428571,269.348148 Z M119.285714,269.348148 L113.285714,269.348148 L113.285714,271.348148 L119.285714,271.348148 L119.285714,269.348148 Z M97.1428571,269.348148 L91.1428571,269.348148 L91.1428571,271.348148 L97.1428571,271.348148 L97.1428571,269.348148 Z M75,269.348148 L69,269.348148 L69,271.348148 L75,271.348148 L75,269.348148 Z M53.2857143,269.348148 L47.2857143,269.348148 L47.2857143,271.348148 L53.2857143,271.348148 L53.2857143,269.348148 Z M31.1428571,269.348148 L25.1428571,269.348148 L25.1428571,271.348148 L31.1428571,271.348148 L31.1428571,269.348148 Z M9,269.348148 L3,269.348148 L3,271.348148 L9,271.348148 L9,269.348148 Z M2,216.907407 L2,210.907407 L0,210.907407 L0,216.907407 L2,216.907407 Z M2,197.055556 L2,191.055556 L0,191.055556 L0,197.055556 L2,197.055556 Z M2,256.611111 L2,250.611111 L0,250.611111 L0,256.611111 L2,256.611111 Z M2,236.759259 L2,230.759259 L0,230.759259 L0,236.759259 L2,236.759259 Z M2,177.203704 L2,171.203704 L0,171.203704 L0,177.203704 L2,177.203704 Z M2,157.351852 L2,151.351852 L0,151.351852 L0,157.351852 L2,157.351852 Z M2,137.5 L2,131.5 L0,131.5 L0,137.5 L2,137.5 Z M2,117.648148 L2,111.648148 L0,111.648148 L0,117.648148 L2,117.648148 Z M2,97.7962963 L2,91.7962963 L0,91.7962963 L0,97.7962963 L2,97.7962963 Z M2,77.9444444 L2,71.9444444 L0,71.9444444 L0,77.9444444 L2,77.9444444 Z M2,58.0925926 L2,52.0925926 L0,52.0925926 L0,58.0925926 L2,58.0925926 Z M2,38.2407407 L2,32.2407407 L0,32.2407407 L0,38.2407407 L2,38.2407407 Z M2,18.3888889 L2,12.3888889 L0,12.3888889 L0,18.3888889 L2,18.3888889 Z" id="Rectangle-7" fill="#FF0000" fill-rule="nonzero"></path>
                <text id="贴条形码区域" font-family="SimSun" font-size="60" font-weight="normal" fill="#000000">
                    <tspan x="174" y="158">贴条形码区域</tspan>
                </text>
            </g>
        </g>
    </g>
</svg>