<?xml version="1.0" encoding="UTF-8"?>
<svg width="106px" height="3192px" viewBox="0 0 106 3192" version="1.1" xmlns="http://www.w3.org/2000/svg" xmlns:xlink="http://www.w3.org/1999/xlink">
    <!-- Generator: Sketch 52.2 (67145) - http://www.bohemiancoding.com/sketch -->
    <title>Group 13</title>
    <desc>Created with Sketch.</desc>
    <g id="Page-1" stroke="none" stroke-width="1" fill="none" fill-rule="evenodd">
        <g id="7-copy-3" transform="translate(-4754.000000, -120.000000)">
            <g id="Group-13" transform="translate(4767.000000, 1716.000000) rotate(-180.000000) translate(-4767.000000, -1716.000000) translate(4752.000000, 120.000000)">
                <g id="Group-25" transform="translate(15.000000, 1596.000000) rotate(-90.000000) translate(-15.000000, -1596.000000) translate(-1580.000000, 1582.000000)">
                    <path d="M1604.752,2.72 L1620.964,2.72 L1620.964,4.68 L1615.084,4.68 L1615.084,23.972 C1615.084,25.708 1614.188,26.604 1612.452,26.604 L1608.784,26.604 L1608.364,24.644 C1609.54,24.728 1610.688,24.784 1611.752,24.784 C1612.592,24.784 1613.012,24.336 1613.012,23.468 L1613.012,4.68 L1604.752,4.68 L1604.752,2.72 Z M1598.564,1.376 C1600.44,2.804 1602.036,4.232 1603.324,5.688 L1601.952,7.088 C1600.776,5.716 1599.152,4.26 1597.136,2.748 L1598.564,1.376 Z M1595.26,9.692 L1601.308,9.692 L1601.308,22.236 C1602.372,21.396 1603.548,20.416 1604.808,19.268 L1605.34,21.396 C1603.52,23.048 1601.56,24.504 1599.488,25.792 L1598.732,24 C1599.152,23.636 1599.376,23.244 1599.376,22.796 L1599.376,11.624 L1595.26,11.624 L1595.26,9.692 Z" id="订-copy" fill="#555555"></path>
                    <path d="M2194.144,21.228 L2194.144,23.16 C2191.4,24.224 2188.264,25.092 2184.736,25.736 L2184.484,23.776 C2188.18,23.16 2191.4,22.292 2194.144,21.228 Z M2189.16,0.984 L2191.092,1.74 C2189.664,5.38 2188.208,8.292 2186.752,10.476 C2188.012,10.364 2189.272,10.196 2190.532,10 C2191.036,8.992 2191.596,7.928 2192.156,6.808 L2193.948,7.48 C2191.484,12.212 2189.412,15.572 2187.788,17.56 C2189.804,17.168 2191.82,16.636 2193.836,15.964 L2193.836,17.784 C2190.896,18.736 2188.096,19.408 2185.408,19.772 L2184.848,17.924 C2185.212,17.756 2185.52,17.56 2185.772,17.336 C2186.808,16.272 2188.068,14.424 2189.524,11.82 C2187.984,12.044 2186.416,12.24 2184.848,12.436 L2184.372,10.588 C2184.68,10.476 2184.96,10.224 2185.212,9.86 C2186.724,7.284 2188.04,4.316 2189.16,0.984 Z M2207.724,6.08 L2208.004,7.928 L2200.808,8.936 C2200.864,10.28 2200.948,11.54 2201.06,12.744 L2208.48,11.568 L2208.788,13.472 L2201.284,14.648 C2201.34,15.152 2201.424,15.656 2201.508,16.104 C2201.788,17.56 2202.124,18.82 2202.516,19.94 C2204.028,18.54 2205.372,16.972 2206.548,15.18 L2208.144,16.272 C2206.66,18.428 2205.064,20.276 2203.328,21.788 C2203.44,21.956 2203.524,22.152 2203.636,22.32 C2204.56,23.692 2205.372,24.392 2206.1,24.392 C2206.828,24.392 2207.472,22.88 2207.976,19.884 L2209.684,21.004 C2208.9,24.7 2207.78,26.576 2206.324,26.576 C2204.98,26.52 2203.72,25.68 2202.516,24 C2202.264,23.664 2202.04,23.328 2201.872,22.964 C2199.8,24.504 2197.56,25.652 2195.18,26.38 L2194.004,24.756 C2196.58,23.916 2198.904,22.74 2200.976,21.2 C2200.444,19.968 2200.024,18.624 2199.688,17.112 C2199.52,16.384 2199.408,15.684 2199.296,14.956 L2194.256,15.768 L2193.976,13.864 L2199.044,13.052 C2198.904,11.848 2198.82,10.56 2198.792,9.216 L2194.76,9.804 L2194.452,7.956 L2198.736,7.34 L2198.736,1.124 L2200.752,1.124 L2200.752,7.06 L2207.724,6.08 Z M2203.888,1.04 C2205.316,2.384 2206.408,3.532 2207.192,4.512 L2205.624,5.604 C2204.84,4.512 2203.72,3.308 2202.32,2.02 L2203.888,1.04 Z" id="线" fill="#555555"></path>
                    <path d="M1014.512,1.152 L1016.556,1.152 L1016.556,13.752 L1014.512,13.752 L1014.512,9.748 C1012.748,10.756 1010.704,11.708 1008.352,12.576 L1007.568,10.756 C1010.228,9.916 1012.552,8.908 1014.512,7.788 L1014.512,1.152 Z M1018.264,4.316 L1024.228,4.316 L1024.228,1.068 L1026.272,1.068 L1026.272,4.316 L1032.152,4.316 L1032.152,6.136 L1026.272,6.136 L1026.272,10.28 L1031.368,10.28 L1031.368,12.1 L1019.132,12.1 L1019.132,10.28 L1024.228,10.28 L1024.228,6.136 L1018.264,6.136 L1018.264,4.316 Z M1009.108,2.328 C1010.704,3.084 1012.16,4.008 1013.504,5.1 L1012.468,6.696 C1011.012,5.492 1009.556,4.568 1008.044,3.896 L1009.108,2.328 Z M1007.596,15.32 L1019.58,15.32 C1019.188,14.592 1018.74,13.892 1018.236,13.248 L1020.084,12.632 C1020.644,13.416 1021.176,14.312 1021.652,15.32 L1032.404,15.32 L1032.404,17.168 L1021.96,17.168 C1022.8,18.596 1023.808,19.856 1025.012,20.948 C1026.608,19.968 1027.98,18.848 1029.1,17.616 L1030.528,18.876 C1029.352,20.08 1028.008,21.144 1026.44,22.096 C1028.204,23.384 1030.276,24.364 1032.656,25.092 L1031.508,26.856 C1026.216,25.036 1022.408,21.816 1020.056,17.168 C1018.88,18.456 1017.368,19.632 1015.52,20.724 L1015.52,24.532 C1017.732,24.084 1019.776,23.524 1021.68,22.908 L1022.016,24.7 C1019.58,25.428 1016.64,26.1 1013.196,26.772 L1012.776,25.036 C1013.364,24.812 1013.672,24.476 1013.672,24.028 L1013.672,21.676 C1012.104,22.404 1010.396,23.104 1008.492,23.72 L1007.456,22.012 C1012.216,20.752 1015.688,19.128 1017.928,17.168 L1007.596,17.168 L1007.596,15.32 Z" id="装-copy" fill="#555555"></path>
                    <path d="M1318.5,-236.424347 L1320.5,-236.424347 L1320.5,-227.424347 L1318.5,-227.424347 L1318.5,-236.424347 Z M1318.5,-218.424347 L1320.5,-218.424347 L1320.5,-209.424347 L1318.5,-209.424347 L1318.5,-218.424347 Z M1318.5,-200.424347 L1320.5,-200.424347 L1320.5,-191.424347 L1318.5,-191.424347 L1318.5,-200.424347 Z M1318.5,-182.424347 L1320.5,-182.424347 L1320.5,-173.424347 L1318.5,-173.424347 L1318.5,-182.424347 Z M1318.5,-164.424347 L1320.5,-164.424347 L1320.5,-155.424347 L1318.5,-155.424347 L1318.5,-164.424347 Z M1318.5,-146.424347 L1320.5,-146.424347 L1320.5,-137.424347 L1318.5,-137.424347 L1318.5,-146.424347 Z M1318.5,-128.424347 L1320.5,-128.424347 L1320.5,-119.424347 L1318.5,-119.424347 L1318.5,-128.424347 Z M1318.5,-110.424347 L1320.5,-110.424347 L1320.5,-101.424347 L1318.5,-101.424347 L1318.5,-110.424347 Z M1318.5,-92.4243467 L1320.5,-92.4243467 L1320.5,-83.4243467 L1318.5,-83.4243467 L1318.5,-92.4243467 Z M1318.5,-74.4243467 L1320.5,-74.4243467 L1320.5,-65.4243467 L1318.5,-65.4243467 L1318.5,-74.4243467 Z M1318.5,-56.4243467 L1320.5,-56.4243467 L1320.5,-47.4243467 L1318.5,-47.4243467 L1318.5,-56.4243467 Z M1318.5,-38.4243467 L1320.5,-38.4243467 L1320.5,-29.4243467 L1318.5,-29.4243467 L1318.5,-38.4243467 Z M1318.5,-20.4243467 L1320.5,-20.4243467 L1320.5,-11.4243467 L1318.5,-11.4243467 L1318.5,-20.4243467 Z M1318.5,-2.42434669 L1320.5,-2.42434669 L1320.5,6.57565331 L1318.5,6.57565331 L1318.5,-2.42434669 Z M1318.5,15.5756533 L1320.5,15.5756533 L1320.5,24.5756533 L1318.5,24.5756533 L1318.5,15.5756533 Z M1318.5,33.5756533 L1320.5,33.5756533 L1320.5,42.5756533 L1318.5,42.5756533 L1318.5,33.5756533 Z M1318.5,51.5756533 L1320.5,51.5756533 L1320.5,60.5756533 L1318.5,60.5756533 L1318.5,51.5756533 Z M1318.5,69.5756533 L1320.5,69.5756533 L1320.5,78.5756533 L1318.5,78.5756533 L1318.5,69.5756533 Z M1318.5,87.5756533 L1320.5,87.5756533 L1320.5,96.5756533 L1318.5,96.5756533 L1318.5,87.5756533 Z M1318.5,105.575653 L1320.5,105.575653 L1320.5,114.575653 L1318.5,114.575653 L1318.5,105.575653 Z M1318.5,123.575653 L1320.5,123.575653 L1320.5,132.575653 L1318.5,132.575653 L1318.5,123.575653 Z M1318.5,141.575653 L1320.5,141.575653 L1320.5,150.575653 L1318.5,150.575653 L1318.5,141.575653 Z M1318.5,159.575653 L1320.5,159.575653 L1320.5,168.575653 L1318.5,168.575653 L1318.5,159.575653 Z M1318.5,177.575653 L1320.5,177.575653 L1320.5,186.575653 L1318.5,186.575653 L1318.5,177.575653 Z M1318.5,195.575653 L1320.5,195.575653 L1320.5,204.575653 L1318.5,204.575653 L1318.5,195.575653 Z M1318.5,213.575653 L1320.5,213.575653 L1320.5,222.575653 L1318.5,222.575653 L1318.5,213.575653 Z M1318.5,231.575653 L1320.5,231.575653 L1320.5,240.575653 L1318.5,240.575653 L1318.5,231.575653 Z M1318.5,249.575653 L1320.5,249.575653 L1320.5,258.414538 L1318.5,258.414538 L1318.5,249.575653 Z" id="Path-2-Copy-2" fill="#666666" fill-rule="nonzero" transform="translate(1319.500000, 10.995096) rotate(-270.000000) translate(-1319.500000, -10.995096) "></path>
                    <path d="M1895.5,-236.424347 L1897.5,-236.424347 L1897.5,-227.424347 L1895.5,-227.424347 L1895.5,-236.424347 Z M1895.5,-218.424347 L1897.5,-218.424347 L1897.5,-209.424347 L1895.5,-209.424347 L1895.5,-218.424347 Z M1895.5,-200.424347 L1897.5,-200.424347 L1897.5,-191.424347 L1895.5,-191.424347 L1895.5,-200.424347 Z M1895.5,-182.424347 L1897.5,-182.424347 L1897.5,-173.424347 L1895.5,-173.424347 L1895.5,-182.424347 Z M1895.5,-164.424347 L1897.5,-164.424347 L1897.5,-155.424347 L1895.5,-155.424347 L1895.5,-164.424347 Z M1895.5,-146.424347 L1897.5,-146.424347 L1897.5,-137.424347 L1895.5,-137.424347 L1895.5,-146.424347 Z M1895.5,-128.424347 L1897.5,-128.424347 L1897.5,-119.424347 L1895.5,-119.424347 L1895.5,-128.424347 Z M1895.5,-110.424347 L1897.5,-110.424347 L1897.5,-101.424347 L1895.5,-101.424347 L1895.5,-110.424347 Z M1895.5,-92.4243467 L1897.5,-92.4243467 L1897.5,-83.4243467 L1895.5,-83.4243467 L1895.5,-92.4243467 Z M1895.5,-74.4243467 L1897.5,-74.4243467 L1897.5,-65.4243467 L1895.5,-65.4243467 L1895.5,-74.4243467 Z M1895.5,-56.4243467 L1897.5,-56.4243467 L1897.5,-47.4243467 L1895.5,-47.4243467 L1895.5,-56.4243467 Z M1895.5,-38.4243467 L1897.5,-38.4243467 L1897.5,-29.4243467 L1895.5,-29.4243467 L1895.5,-38.4243467 Z M1895.5,-20.4243467 L1897.5,-20.4243467 L1897.5,-11.4243467 L1895.5,-11.4243467 L1895.5,-20.4243467 Z M1895.5,-2.42434669 L1897.5,-2.42434669 L1897.5,6.57565331 L1895.5,6.57565331 L1895.5,-2.42434669 Z M1895.5,15.5756533 L1897.5,15.5756533 L1897.5,24.5756533 L1895.5,24.5756533 L1895.5,15.5756533 Z M1895.5,33.5756533 L1897.5,33.5756533 L1897.5,42.5756533 L1895.5,42.5756533 L1895.5,33.5756533 Z M1895.5,51.5756533 L1897.5,51.5756533 L1897.5,60.5756533 L1895.5,60.5756533 L1895.5,51.5756533 Z M1895.5,69.5756533 L1897.5,69.5756533 L1897.5,78.5756533 L1895.5,78.5756533 L1895.5,69.5756533 Z M1895.5,87.5756533 L1897.5,87.5756533 L1897.5,96.5756533 L1895.5,96.5756533 L1895.5,87.5756533 Z M1895.5,105.575653 L1897.5,105.575653 L1897.5,114.575653 L1895.5,114.575653 L1895.5,105.575653 Z M1895.5,123.575653 L1897.5,123.575653 L1897.5,132.575653 L1895.5,132.575653 L1895.5,123.575653 Z M1895.5,141.575653 L1897.5,141.575653 L1897.5,150.575653 L1895.5,150.575653 L1895.5,141.575653 Z M1895.5,159.575653 L1897.5,159.575653 L1897.5,168.575653 L1895.5,168.575653 L1895.5,159.575653 Z M1895.5,177.575653 L1897.5,177.575653 L1897.5,186.575653 L1895.5,186.575653 L1895.5,177.575653 Z M1895.5,195.575653 L1897.5,195.575653 L1897.5,204.575653 L1895.5,204.575653 L1895.5,195.575653 Z M1895.5,213.575653 L1897.5,213.575653 L1897.5,222.575653 L1895.5,222.575653 L1895.5,213.575653 Z M1895.5,231.575653 L1897.5,231.575653 L1897.5,240.575653 L1895.5,240.575653 L1895.5,231.575653 Z M1895.5,249.575653 L1897.5,249.575653 L1897.5,258.414538 L1895.5,258.414538 L1895.5,249.575653 Z" id="Path-2-Copy-3" fill="#666666" fill-rule="nonzero" transform="translate(1896.500000, 10.995096) rotate(-270.000000) translate(-1896.500000, -10.995096) "></path>
                    <path d="M486.746522,-476 L488.746522,-476 L488.746522,-467 L486.746522,-467 L486.746522,-476 Z M486.746522,-458 L488.746522,-458 L488.746522,-449 L486.746522,-449 L486.746522,-458 Z M486.746522,-440 L488.746522,-440 L488.746522,-431 L486.746522,-431 L486.746522,-440 Z M486.746522,-422 L488.746522,-422 L488.746522,-413 L486.746522,-413 L486.746522,-422 Z M486.746522,-404 L488.746522,-404 L488.746522,-395 L486.746522,-395 L486.746522,-404 Z M486.746522,-386 L488.746522,-386 L488.746522,-377 L486.746522,-377 L486.746522,-386 Z M486.746522,-368 L488.746522,-368 L488.746522,-359 L486.746522,-359 L486.746522,-368 Z M486.746522,-350 L488.746522,-350 L488.746522,-341 L486.746522,-341 L486.746522,-350 Z M486.746522,-332 L488.746522,-332 L488.746522,-323 L486.746522,-323 L486.746522,-332 Z M486.746522,-314 L488.746522,-314 L488.746522,-305 L486.746522,-305 L486.746522,-314 Z M486.746522,-296 L488.746522,-296 L488.746522,-287 L486.746522,-287 L486.746522,-296 Z M486.746522,-278 L488.746522,-278 L488.746522,-269 L486.746522,-269 L486.746522,-278 Z M486.746522,-260 L488.746522,-260 L488.746522,-251 L486.746522,-251 L486.746522,-260 Z M486.746522,-242 L488.746522,-242 L488.746522,-233 L486.746522,-233 L486.746522,-242 Z M486.746522,-224 L488.746522,-224 L488.746522,-215 L486.746522,-215 L486.746522,-224 Z M486.746522,-206 L488.746522,-206 L488.746522,-197 L486.746522,-197 L486.746522,-206 Z M486.746522,-188 L488.746522,-188 L488.746522,-179 L486.746522,-179 L486.746522,-188 Z M486.746522,-170 L488.746522,-170 L488.746522,-161 L486.746522,-161 L486.746522,-170 Z M486.746522,-152 L488.746522,-152 L488.746522,-143 L486.746522,-143 L486.746522,-152 Z M486.746522,-134 L488.746522,-134 L488.746522,-125 L486.746522,-125 L486.746522,-134 Z M486.746522,-116 L488.746522,-116 L488.746522,-107 L486.746522,-107 L486.746522,-116 Z M486.746522,-98 L488.746522,-98 L488.746522,-89 L486.746522,-89 L486.746522,-98 Z M486.746522,-80 L488.746522,-80 L488.746522,-71 L486.746522,-71 L486.746522,-80 Z M486.746522,-62 L488.746522,-62 L488.746522,-53 L486.746522,-53 L486.746522,-62 Z M486.746522,-44 L488.746522,-44 L488.746522,-35 L486.746522,-35 L486.746522,-44 Z M486.746522,-26 L488.746522,-26 L488.746522,-17 L486.746522,-17 L486.746522,-26 Z M486.746522,-8 L488.746522,-8 L488.746522,1 L486.746522,1 L486.746522,-8 Z M486.746522,10 L488.746522,10 L488.746522,19 L486.746522,19 L486.746522,10 Z M486.746522,28 L488.746522,28 L488.746522,37 L486.746522,37 L486.746522,28 Z M486.746522,46 L488.746522,46 L488.746522,55 L486.746522,55 L486.746522,46 Z M486.746522,64 L488.746522,64 L488.746522,73 L486.746522,73 L486.746522,64 Z M486.746522,82 L488.746522,82 L488.746522,91 L486.746522,91 L486.746522,82 Z M486.746522,100 L488.746522,100 L488.746522,109 L486.746522,109 L486.746522,100 Z M486.746522,118 L488.746522,118 L488.746522,127 L486.746522,127 L486.746522,118 Z M486.746522,136 L488.746522,136 L488.746522,145 L486.746522,145 L486.746522,136 Z M486.746522,154 L488.746522,154 L488.746522,163 L486.746522,163 L486.746522,154 Z M486.746522,172 L488.746522,172 L488.746522,181 L486.746522,181 L486.746522,172 Z M486.746522,190 L488.746522,190 L488.746522,199 L486.746522,199 L486.746522,190 Z M486.746522,208 L488.746522,208 L488.746522,217 L486.746522,217 L486.746522,208 Z M486.746522,226 L488.746522,226 L488.746522,235 L486.746522,235 L486.746522,226 Z M486.746522,244 L488.746522,244 L488.746522,253 L486.746522,253 L486.746522,244 Z M486.746522,262 L488.746522,262 L488.746522,271 L486.746522,271 L486.746522,262 Z M486.746522,280 L488.746522,280 L488.746522,289 L486.746522,289 L486.746522,280 Z M486.746522,298 L488.746522,298 L488.746522,307 L486.746522,307 L486.746522,298 Z M486.746522,316 L488.746522,316 L488.746522,325 L486.746522,325 L486.746522,316 Z M486.746522,334 L488.746522,334 L488.746522,343 L486.746522,343 L486.746522,334 Z M486.746522,352 L488.746522,352 L488.746522,361 L486.746522,361 L486.746522,352 Z M486.746522,370 L488.746522,370 L488.746522,379 L486.746522,379 L486.746522,370 Z M486.746522,388 L488.746522,388 L488.746522,397 L486.746522,397 L486.746522,388 Z M486.746522,406 L488.746522,406 L488.746522,415 L486.746522,415 L486.746522,406 Z M486.746522,424 L488.746522,424 L488.746522,433 L486.746522,433 L486.746522,424 Z M486.746522,442 L488.746522,442 L488.746522,451 L486.746522,451 L486.746522,442 Z M486.746522,460 L488.746522,460 L488.746522,469 L486.746522,469 L486.746522,460 Z M486.746522,478 L488.746522,478 L488.746522,487 L486.746522,487 L486.746522,478 Z M486.746522,496 L488.746522,496 L488.746522,497.746522 L486.746522,497.746522 L486.746522,496 Z" id="Path-2-Copy" fill="#666666" fill-rule="nonzero" transform="translate(487.746522, 10.873261) rotate(-270.000000) translate(-487.746522, -10.873261) "></path>
                    <path d="M2715.91599,-459.83053 L2717.91599,-459.83053 L2717.91599,-450.83053 L2715.91599,-450.83053 L2715.91599,-459.83053 Z M2715.91599,-441.83053 L2717.91599,-441.83053 L2717.91599,-432.83053 L2715.91599,-432.83053 L2715.91599,-441.83053 Z M2715.91599,-423.83053 L2717.91599,-423.83053 L2717.91599,-414.83053 L2715.91599,-414.83053 L2715.91599,-423.83053 Z M2715.91599,-405.83053 L2717.91599,-405.83053 L2717.91599,-396.83053 L2715.91599,-396.83053 L2715.91599,-405.83053 Z M2715.91599,-387.83053 L2717.91599,-387.83053 L2717.91599,-378.83053 L2715.91599,-378.83053 L2715.91599,-387.83053 Z M2715.91599,-369.83053 L2717.91599,-369.83053 L2717.91599,-360.83053 L2715.91599,-360.83053 L2715.91599,-369.83053 Z M2715.91599,-351.83053 L2717.91599,-351.83053 L2717.91599,-342.83053 L2715.91599,-342.83053 L2715.91599,-351.83053 Z M2715.91599,-333.83053 L2717.91599,-333.83053 L2717.91599,-324.83053 L2715.91599,-324.83053 L2715.91599,-333.83053 Z M2715.91599,-315.83053 L2717.91599,-315.83053 L2717.91599,-306.83053 L2715.91599,-306.83053 L2715.91599,-315.83053 Z M2715.91599,-297.83053 L2717.91599,-297.83053 L2717.91599,-288.83053 L2715.91599,-288.83053 L2715.91599,-297.83053 Z M2715.91599,-279.83053 L2717.91599,-279.83053 L2717.91599,-270.83053 L2715.91599,-270.83053 L2715.91599,-279.83053 Z M2715.91599,-261.83053 L2717.91599,-261.83053 L2717.91599,-252.83053 L2715.91599,-252.83053 L2715.91599,-261.83053 Z M2715.91599,-243.83053 L2717.91599,-243.83053 L2717.91599,-234.83053 L2715.91599,-234.83053 L2715.91599,-243.83053 Z M2715.91599,-225.83053 L2717.91599,-225.83053 L2717.91599,-216.83053 L2715.91599,-216.83053 L2715.91599,-225.83053 Z M2715.91599,-207.83053 L2717.91599,-207.83053 L2717.91599,-198.83053 L2715.91599,-198.83053 L2715.91599,-207.83053 Z M2715.91599,-189.83053 L2717.91599,-189.83053 L2717.91599,-180.83053 L2715.91599,-180.83053 L2715.91599,-189.83053 Z M2715.91599,-171.83053 L2717.91599,-171.83053 L2717.91599,-162.83053 L2715.91599,-162.83053 L2715.91599,-171.83053 Z M2715.91599,-153.83053 L2717.91599,-153.83053 L2717.91599,-144.83053 L2715.91599,-144.83053 L2715.91599,-153.83053 Z M2715.91599,-135.83053 L2717.91599,-135.83053 L2717.91599,-126.83053 L2715.91599,-126.83053 L2715.91599,-135.83053 Z M2715.91599,-117.83053 L2717.91599,-117.83053 L2717.91599,-108.83053 L2715.91599,-108.83053 L2715.91599,-117.83053 Z M2715.91599,-99.8305299 L2717.91599,-99.8305299 L2717.91599,-90.8305299 L2715.91599,-90.8305299 L2715.91599,-99.8305299 Z M2715.91599,-81.8305299 L2717.91599,-81.8305299 L2717.91599,-72.8305299 L2715.91599,-72.8305299 L2715.91599,-81.8305299 Z M2715.91599,-63.8305299 L2717.91599,-63.8305299 L2717.91599,-54.8305299 L2715.91599,-54.8305299 L2715.91599,-63.8305299 Z M2715.91599,-45.8305299 L2717.91599,-45.8305299 L2717.91599,-36.8305299 L2715.91599,-36.8305299 L2715.91599,-45.8305299 Z M2715.91599,-27.8305299 L2717.91599,-27.8305299 L2717.91599,-18.8305299 L2715.91599,-18.8305299 L2715.91599,-27.8305299 Z M2715.91599,-9.83052991 L2717.91599,-9.83052991 L2717.91599,-0.830529912 L2715.91599,-0.830529912 L2715.91599,-9.83052991 Z M2715.91599,8.16947009 L2717.91599,8.16947009 L2717.91599,17.1694701 L2715.91599,17.1694701 L2715.91599,8.16947009 Z M2715.91599,26.1694701 L2717.91599,26.1694701 L2717.91599,35.1694701 L2715.91599,35.1694701 L2715.91599,26.1694701 Z M2715.91599,44.1694701 L2717.91599,44.1694701 L2717.91599,53.1694701 L2715.91599,53.1694701 L2715.91599,44.1694701 Z M2715.91599,62.1694701 L2717.91599,62.1694701 L2717.91599,71.1694701 L2715.91599,71.1694701 L2715.91599,62.1694701 Z M2715.91599,80.1694701 L2717.91599,80.1694701 L2717.91599,89.1694701 L2715.91599,89.1694701 L2715.91599,80.1694701 Z M2715.91599,98.1694701 L2717.91599,98.1694701 L2717.91599,107.16947 L2715.91599,107.16947 L2715.91599,98.1694701 Z M2715.91599,116.16947 L2717.91599,116.16947 L2717.91599,125.16947 L2715.91599,125.16947 L2715.91599,116.16947 Z M2715.91599,134.16947 L2717.91599,134.16947 L2717.91599,143.16947 L2715.91599,143.16947 L2715.91599,134.16947 Z M2715.91599,152.16947 L2717.91599,152.16947 L2717.91599,161.16947 L2715.91599,161.16947 L2715.91599,152.16947 Z M2715.91599,170.16947 L2717.91599,170.16947 L2717.91599,179.16947 L2715.91599,179.16947 L2715.91599,170.16947 Z M2715.91599,188.16947 L2717.91599,188.16947 L2717.91599,197.16947 L2715.91599,197.16947 L2715.91599,188.16947 Z M2715.91599,206.16947 L2717.91599,206.16947 L2717.91599,215.16947 L2715.91599,215.16947 L2715.91599,206.16947 Z M2715.91599,224.16947 L2717.91599,224.16947 L2717.91599,233.16947 L2715.91599,233.16947 L2715.91599,224.16947 Z M2715.91599,242.16947 L2717.91599,242.16947 L2717.91599,251.16947 L2715.91599,251.16947 L2715.91599,242.16947 Z M2715.91599,260.16947 L2717.91599,260.16947 L2717.91599,269.16947 L2715.91599,269.16947 L2715.91599,260.16947 Z M2715.91599,278.16947 L2717.91599,278.16947 L2717.91599,287.16947 L2715.91599,287.16947 L2715.91599,278.16947 Z M2715.91599,296.16947 L2717.91599,296.16947 L2717.91599,305.16947 L2715.91599,305.16947 L2715.91599,296.16947 Z M2715.91599,314.16947 L2717.91599,314.16947 L2717.91599,323.16947 L2715.91599,323.16947 L2715.91599,314.16947 Z M2715.91599,332.16947 L2717.91599,332.16947 L2717.91599,341.16947 L2715.91599,341.16947 L2715.91599,332.16947 Z M2715.91599,350.16947 L2717.91599,350.16947 L2717.91599,359.16947 L2715.91599,359.16947 L2715.91599,350.16947 Z M2715.91599,368.16947 L2717.91599,368.16947 L2717.91599,377.16947 L2715.91599,377.16947 L2715.91599,368.16947 Z M2715.91599,386.16947 L2717.91599,386.16947 L2717.91599,395.16947 L2715.91599,395.16947 L2715.91599,386.16947 Z M2715.91599,404.16947 L2717.91599,404.16947 L2717.91599,413.16947 L2715.91599,413.16947 L2715.91599,404.16947 Z M2715.91599,422.16947 L2717.91599,422.16947 L2717.91599,431.16947 L2715.91599,431.16947 L2715.91599,422.16947 Z M2715.91599,440.16947 L2717.91599,440.16947 L2717.91599,449.16947 L2715.91599,449.16947 L2715.91599,440.16947 Z M2715.91599,458.16947 L2717.91599,458.16947 L2717.91599,467.16947 L2715.91599,467.16947 L2715.91599,458.16947 Z M2715.91599,476.16947 L2717.91599,476.16947 L2717.91599,484.83053 L2715.91599,484.83053 L2715.91599,476.16947 Z" id="Path-2-Copy-4" fill="#666666" fill-rule="nonzero" transform="translate(2716.915992, 12.500000) rotate(-270.000000) translate(-2716.915992, -12.500000) "></path>
                </g>
            </g>
        </g>
    </g>
</svg>