<?xml version="1.0" encoding="UTF-8"?>
<svg width="106px" height="3192px" viewBox="0 0 106 3192" version="1.1" xmlns="http://www.w3.org/2000/svg" xmlns:xlink="http://www.w3.org/1999/xlink">
    <!-- Generator: Sketch 52.2 (67145) - http://www.bohemiancoding.com/sketch -->
    <title>Group 13</title>
    <desc>Created with Sketch.</desc>
    <g id="Page-1" stroke="none" stroke-width="1" fill="none" fill-rule="evenodd">
        <g id="4-copy" transform="translate(-100.000000, -120.000000)">
            <g id="Group-13" transform="translate(98.000000, 120.000000)">
                <g id="Group-25" transform="translate(95.000000, 1596.000000) rotate(-90.000000) translate(-95.000000, -1596.000000) translate(-1500.000000, 1582.000000)">
                    <path d="M1604.752,2.72 L1620.964,2.72 L1620.964,4.68 L1615.084,4.68 L1615.084,23.972 C1615.084,25.708 1614.188,26.604 1612.452,26.604 L1608.784,26.604 L1608.364,24.644 C1609.54,24.728 1610.688,24.784 1611.752,24.784 C1612.592,24.784 1613.012,24.336 1613.012,23.468 L1613.012,4.68 L1604.752,4.68 L1604.752,2.72 Z M1598.564,1.376 C1600.44,2.804 1602.036,4.232 1603.324,5.688 L1601.952,7.088 C1600.776,5.716 1599.152,4.26 1597.136,2.748 L1598.564,1.376 Z M1595.26,9.692 L1601.308,9.692 L1601.308,22.236 C1602.372,21.396 1603.548,20.416 1604.808,19.268 L1605.34,21.396 C1603.52,23.048 1601.56,24.504 1599.488,25.792 L1598.732,24 C1599.152,23.636 1599.376,23.244 1599.376,22.796 L1599.376,11.624 L1595.26,11.624 L1595.26,9.692 Z" id="订-copy" fill="#555555"></path>
                    <path d="M2194.144,21.228 L2194.144,23.16 C2191.4,24.224 2188.264,25.092 2184.736,25.736 L2184.484,23.776 C2188.18,23.16 2191.4,22.292 2194.144,21.228 Z M2189.16,0.984 L2191.092,1.74 C2189.664,5.38 2188.208,8.292 2186.752,10.476 C2188.012,10.364 2189.272,10.196 2190.532,10 C2191.036,8.992 2191.596,7.928 2192.156,6.808 L2193.948,7.48 C2191.484,12.212 2189.412,15.572 2187.788,17.56 C2189.804,17.168 2191.82,16.636 2193.836,15.964 L2193.836,17.784 C2190.896,18.736 2188.096,19.408 2185.408,19.772 L2184.848,17.924 C2185.212,17.756 2185.52,17.56 2185.772,17.336 C2186.808,16.272 2188.068,14.424 2189.524,11.82 C2187.984,12.044 2186.416,12.24 2184.848,12.436 L2184.372,10.588 C2184.68,10.476 2184.96,10.224 2185.212,9.86 C2186.724,7.284 2188.04,4.316 2189.16,0.984 Z M2207.724,6.08 L2208.004,7.928 L2200.808,8.936 C2200.864,10.28 2200.948,11.54 2201.06,12.744 L2208.48,11.568 L2208.788,13.472 L2201.284,14.648 C2201.34,15.152 2201.424,15.656 2201.508,16.104 C2201.788,17.56 2202.124,18.82 2202.516,19.94 C2204.028,18.54 2205.372,16.972 2206.548,15.18 L2208.144,16.272 C2206.66,18.428 2205.064,20.276 2203.328,21.788 C2203.44,21.956 2203.524,22.152 2203.636,22.32 C2204.56,23.692 2205.372,24.392 2206.1,24.392 C2206.828,24.392 2207.472,22.88 2207.976,19.884 L2209.684,21.004 C2208.9,24.7 2207.78,26.576 2206.324,26.576 C2204.98,26.52 2203.72,25.68 2202.516,24 C2202.264,23.664 2202.04,23.328 2201.872,22.964 C2199.8,24.504 2197.56,25.652 2195.18,26.38 L2194.004,24.756 C2196.58,23.916 2198.904,22.74 2200.976,21.2 C2200.444,19.968 2200.024,18.624 2199.688,17.112 C2199.52,16.384 2199.408,15.684 2199.296,14.956 L2194.256,15.768 L2193.976,13.864 L2199.044,13.052 C2198.904,11.848 2198.82,10.56 2198.792,9.216 L2194.76,9.804 L2194.452,7.956 L2198.736,7.34 L2198.736,1.124 L2200.752,1.124 L2200.752,7.06 L2207.724,6.08 Z M2203.888,1.04 C2205.316,2.384 2206.408,3.532 2207.192,4.512 L2205.624,5.604 C2204.84,4.512 2203.72,3.308 2202.32,2.02 L2203.888,1.04 Z" id="线" fill="#555555"></path>
                    <path d="M1014.512,1.152 L1016.556,1.152 L1016.556,13.752 L1014.512,13.752 L1014.512,9.748 C1012.748,10.756 1010.704,11.708 1008.352,12.576 L1007.568,10.756 C1010.228,9.916 1012.552,8.908 1014.512,7.788 L1014.512,1.152 Z M1018.264,4.316 L1024.228,4.316 L1024.228,1.068 L1026.272,1.068 L1026.272,4.316 L1032.152,4.316 L1032.152,6.136 L1026.272,6.136 L1026.272,10.28 L1031.368,10.28 L1031.368,12.1 L1019.132,12.1 L1019.132,10.28 L1024.228,10.28 L1024.228,6.136 L1018.264,6.136 L1018.264,4.316 Z M1009.108,2.328 C1010.704,3.084 1012.16,4.008 1013.504,5.1 L1012.468,6.696 C1011.012,5.492 1009.556,4.568 1008.044,3.896 L1009.108,2.328 Z M1007.596,15.32 L1019.58,15.32 C1019.188,14.592 1018.74,13.892 1018.236,13.248 L1020.084,12.632 C1020.644,13.416 1021.176,14.312 1021.652,15.32 L1032.404,15.32 L1032.404,17.168 L1021.96,17.168 C1022.8,18.596 1023.808,19.856 1025.012,20.948 C1026.608,19.968 1027.98,18.848 1029.1,17.616 L1030.528,18.876 C1029.352,20.08 1028.008,21.144 1026.44,22.096 C1028.204,23.384 1030.276,24.364 1032.656,25.092 L1031.508,26.856 C1026.216,25.036 1022.408,21.816 1020.056,17.168 C1018.88,18.456 1017.368,19.632 1015.52,20.724 L1015.52,24.532 C1017.732,24.084 1019.776,23.524 1021.68,22.908 L1022.016,24.7 C1019.58,25.428 1016.64,26.1 1013.196,26.772 L1012.776,25.036 C1013.364,24.812 1013.672,24.476 1013.672,24.028 L1013.672,21.676 C1012.104,22.404 1010.396,23.104 1008.492,23.72 L1007.456,22.012 C1012.216,20.752 1015.688,19.128 1017.928,17.168 L1007.596,17.168 L1007.596,15.32 Z" id="装-copy" fill="#555555"></path>
                    <path d="M1318.5,-236.424347 L1320.5,-236.424347 L1320.5,-227.424347 L1318.5,-227.424347 L1318.5,-236.424347 Z M1318.5,-218.424347 L1320.5,-218.424347 L1320.5,-209.424347 L1318.5,-209.424347 L1318.5,-218.424347 Z M1318.5,-200.424347 L1320.5,-200.424347 L1320.5,-191.424347 L1318.5,-191.424347 L1318.5,-200.424347 Z M1318.5,-182.424347 L1320.5,-182.424347 L1320.5,-173.424347 L1318.5,-173.424347 L1318.5,-182.424347 Z M1318.5,-164.424347 L1320.5,-164.424347 L1320.5,-155.424347 L1318.5,-155.424347 L1318.5,-164.424347 Z M1318.5,-146.424347 L1320.5,-146.424347 L1320.5,-137.424347 L1318.5,-137.424347 L1318.5,-146.424347 Z M1318.5,-128.424347 L1320.5,-128.424347 L1320.5,-119.424347 L1318.5,-119.424347 L1318.5,-128.424347 Z M1318.5,-110.424347 L1320.5,-110.424347 L1320.5,-101.424347 L1318.5,-101.424347 L1318.5,-110.424347 Z M1318.5,-92.4243467 L1320.5,-92.4243467 L1320.5,-83.4243467 L1318.5,-83.4243467 L1318.5,-92.4243467 Z M1318.5,-74.4243467 L1320.5,-74.4243467 L1320.5,-65.4243467 L1318.5,-65.4243467 L1318.5,-74.4243467 Z M1318.5,-56.4243467 L1320.5,-56.4243467 L1320.5,-47.4243467 L1318.5,-47.4243467 L1318.5,-56.4243467 Z M1318.5,-38.4243467 L1320.5,-38.4243467 L1320.5,-29.4243467 L1318.5,-29.4243467 L1318.5,-38.4243467 Z M1318.5,-20.4243467 L1320.5,-20.4243467 L1320.5,-11.4243467 L1318.5,-11.4243467 L1318.5,-20.4243467 Z M1318.5,-2.42434669 L1320.5,-2.42434669 L1320.5,6.57565331 L1318.5,6.57565331 L1318.5,-2.42434669 Z M1318.5,15.5756533 L1320.5,15.5756533 L1320.5,24.5756533 L1318.5,24.5756533 L1318.5,15.5756533 Z M1318.5,33.5756533 L1320.5,33.5756533 L1320.5,42.5756533 L1318.5,42.5756533 L1318.5,33.5756533 Z M1318.5,51.5756533 L1320.5,51.5756533 L1320.5,60.5756533 L1318.5,60.5756533 L1318.5,51.5756533 Z M1318.5,69.5756533 L1320.5,69.5756533 L1320.5,78.5756533 L1318.5,78.5756533 L1318.5,69.5756533 Z M1318.5,87.5756533 L1320.5,87.5756533 L1320.5,96.5756533 L1318.5,96.5756533 L1318.5,87.5756533 Z M1318.5,105.575653 L1320.5,105.575653 L1320.5,114.575653 L1318.5,114.575653 L1318.5,105.575653 Z M1318.5,123.575653 L1320.5,123.575653 L1320.5,132.575653 L1318.5,132.575653 L1318.5,123.575653 Z M1318.5,141.575653 L1320.5,141.575653 L1320.5,150.575653 L1318.5,150.575653 L1318.5,141.575653 Z M1318.5,159.575653 L1320.5,159.575653 L1320.5,168.575653 L1318.5,168.575653 L1318.5,159.575653 Z M1318.5,177.575653 L1320.5,177.575653 L1320.5,186.575653 L1318.5,186.575653 L1318.5,177.575653 Z M1318.5,195.575653 L1320.5,195.575653 L1320.5,204.575653 L1318.5,204.575653 L1318.5,195.575653 Z M1318.5,213.575653 L1320.5,213.575653 L1320.5,222.575653 L1318.5,222.575653 L1318.5,213.575653 Z M1318.5,231.575653 L1320.5,231.575653 L1320.5,240.575653 L1318.5,240.575653 L1318.5,231.575653 Z M1318.5,249.575653 L1320.5,249.575653 L1320.5,258.414538 L1318.5,258.414538 L1318.5,249.575653 Z" id="Path-2-Copy-2" fill="#666666" fill-rule="nonzero" transform="translate(1319.500000, 10.995096) rotate(-270.000000) translate(-1319.500000, -10.995096) "></path>
                    <path d="M1895.5,-236.424347 L1897.5,-236.424347 L1897.5,-227.424347 L1895.5,-227.424347 L1895.5,-236.424347 Z M1895.5,-218.424347 L1897.5,-218.424347 L1897.5,-209.424347 L1895.5,-209.424347 L1895.5,-218.424347 Z M1895.5,-200.424347 L1897.5,-200.424347 L1897.5,-191.424347 L1895.5,-191.424347 L1895.5,-200.424347 Z M1895.5,-182.424347 L1897.5,-182.424347 L1897.5,-173.424347 L1895.5,-173.424347 L1895.5,-182.424347 Z M1895.5,-164.424347 L1897.5,-164.424347 L1897.5,-155.424347 L1895.5,-155.424347 L1895.5,-164.424347 Z M1895.5,-146.424347 L1897.5,-146.424347 L1897.5,-137.424347 L1895.5,-137.424347 L1895.5,-146.424347 Z M1895.5,-128.424347 L1897.5,-128.424347 L1897.5,-119.424347 L1895.5,-119.424347 L1895.5,-128.424347 Z M1895.5,-110.424347 L1897.5,-110.424347 L1897.5,-101.424347 L1895.5,-101.424347 L1895.5,-110.424347 Z M1895.5,-92.4243467 L1897.5,-92.4243467 L1897.5,-83.4243467 L1895.5,-83.4243467 L1895.5,-92.4243467 Z M1895.5,-74.4243467 L1897.5,-74.4243467 L1897.5,-65.4243467 L1895.5,-65.4243467 L1895.5,-74.4243467 Z M1895.5,-56.4243467 L1897.5,-56.4243467 L1897.5,-47.4243467 L1895.5,-47.4243467 L1895.5,-56.4243467 Z M1895.5,-38.4243467 L1897.5,-38.4243467 L1897.5,-29.4243467 L1895.5,-29.4243467 L1895.5,-38.4243467 Z M1895.5,-20.4243467 L1897.5,-20.4243467 L1897.5,-11.4243467 L1895.5,-11.4243467 L1895.5,-20.4243467 Z M1895.5,-2.42434669 L1897.5,-2.42434669 L1897.5,6.57565331 L1895.5,6.57565331 L1895.5,-2.42434669 Z M1895.5,15.5756533 L1897.5,15.5756533 L1897.5,24.5756533 L1895.5,24.5756533 L1895.5,15.5756533 Z M1895.5,33.5756533 L1897.5,33.5756533 L1897.5,42.5756533 L1895.5,42.5756533 L1895.5,33.5756533 Z M1895.5,51.5756533 L1897.5,51.5756533 L1897.5,60.5756533 L1895.5,60.5756533 L1895.5,51.5756533 Z M1895.5,69.5756533 L1897.5,69.5756533 L1897.5,78.5756533 L1895.5,78.5756533 L1895.5,69.5756533 Z M1895.5,87.5756533 L1897.5,87.5756533 L1897.5,96.5756533 L1895.5,96.5756533 L1895.5,87.5756533 Z M1895.5,105.575653 L1897.5,105.575653 L1897.5,114.575653 L1895.5,114.575653 L1895.5,105.575653 Z M1895.5,123.575653 L1897.5,123.575653 L1897.5,132.575653 L1895.5,132.575653 L1895.5,123.575653 Z M1895.5,141.575653 L1897.5,141.575653 L1897.5,150.575653 L1895.5,150.575653 L1895.5,141.575653 Z M1895.5,159.575653 L1897.5,159.575653 L1897.5,168.575653 L1895.5,168.575653 L1895.5,159.575653 Z M1895.5,177.575653 L1897.5,177.575653 L1897.5,186.575653 L1895.5,186.575653 L1895.5,177.575653 Z M1895.5,195.575653 L1897.5,195.575653 L1897.5,204.575653 L1895.5,204.575653 L1895.5,195.575653 Z M1895.5,213.575653 L1897.5,213.575653 L1897.5,222.575653 L1895.5,222.575653 L1895.5,213.575653 Z M1895.5,231.575653 L1897.5,231.575653 L1897.5,240.575653 L1895.5,240.575653 L1895.5,231.575653 Z M1895.5,249.575653 L1897.5,249.575653 L1897.5,258.414538 L1895.5,258.414538 L1895.5,249.575653 Z" id="Path-2-Copy-3" fill="#666666" fill-rule="nonzero" transform="translate(1896.500000, 10.995096) rotate(-270.000000) translate(-1896.500000, -10.995096) "></path>
                    <path d="M486.746522,-476 L488.746522,-476 L488.746522,-467 L486.746522,-467 L486.746522,-476 Z M486.746522,-458 L488.746522,-458 L488.746522,-449 L486.746522,-449 L486.746522,-458 Z M486.746522,-440 L488.746522,-440 L488.746522,-431 L486.746522,-431 L486.746522,-440 Z M486.746522,-422 L488.746522,-422 L488.746522,-413 L486.746522,-413 L486.746522,-422 Z M486.746522,-404 L488.746522,-404 L488.746522,-395 L486.746522,-395 L486.746522,-404 Z M486.746522,-386 L488.746522,-386 L488.746522,-377 L486.746522,-377 L486.746522,-386 Z M486.746522,-368 L488.746522,-368 L488.746522,-359 L486.746522,-359 L486.746522,-368 Z M486.746522,-350 L488.746522,-350 L488.746522,-341 L486.746522,-341 L486.746522,-350 Z M486.746522,-332 L488.746522,-332 L488.746522,-323 L486.746522,-323 L486.746522,-332 Z M486.746522,-314 L488.746522,-314 L488.746522,-305 L486.746522,-305 L486.746522,-314 Z M486.746522,-296 L488.746522,-296 L488.746522,-287 L486.746522,-287 L486.746522,-296 Z M486.746522,-278 L488.746522,-278 L488.746522,-269 L486.746522,-269 L486.746522,-278 Z M486.746522,-260 L488.746522,-260 L488.746522,-251 L486.746522,-251 L486.746522,-260 Z M486.746522,-242 L488.746522,-242 L488.746522,-233 L486.746522,-233 L486.746522,-242 Z M486.746522,-224 L488.746522,-224 L488.746522,-215 L486.746522,-215 L486.746522,-224 Z M486.746522,-206 L488.746522,-206 L488.746522,-197 L486.746522,-197 L486.746522,-206 Z M486.746522,-188 L488.746522,-188 L488.746522,-179 L486.746522,-179 L486.746522,-188 Z M486.746522,-170 L488.746522,-170 L488.746522,-161 L486.746522,-161 L486.746522,-170 Z M486.746522,-152 L488.746522,-152 L488.746522,-143 L486.746522,-143 L486.746522,-152 Z M486.746522,-134 L488.746522,-134 L488.746522,-125 L486.746522,-125 L486.746522,-134 Z M486.746522,-116 L488.746522,-116 L488.746522,-107 L486.746522,-107 L486.746522,-116 Z M486.746522,-98 L488.746522,-98 L488.746522,-89 L486.746522,-89 L486.746522,-98 Z M486.746522,-80 L488.746522,-80 L488.746522,-71 L486.746522,-71 L486.746522,-80 Z M486.746522,-62 L488.746522,-62 L488.746522,-53 L486.746522,-53 L486.746522,-62 Z M486.746522,-44 L488.746522,-44 L488.746522,-35 L486.746522,-35 L486.746522,-44 Z M486.746522,-26 L488.746522,-26 L488.746522,-17 L486.746522,-17 L486.746522,-26 Z M486.746522,-8 L488.746522,-8 L488.746522,1 L486.746522,1 L486.746522,-8 Z M486.746522,10 L488.746522,10 L488.746522,19 L486.746522,19 L486.746522,10 Z M486.746522,28 L488.746522,28 L488.746522,37 L486.746522,37 L486.746522,28 Z M486.746522,46 L488.746522,46 L488.746522,55 L486.746522,55 L486.746522,46 Z M486.746522,64 L488.746522,64 L488.746522,73 L486.746522,73 L486.746522,64 Z M486.746522,82 L488.746522,82 L488.746522,91 L486.746522,91 L486.746522,82 Z M486.746522,100 L488.746522,100 L488.746522,109 L486.746522,109 L486.746522,100 Z M486.746522,118 L488.746522,118 L488.746522,127 L486.746522,127 L486.746522,118 Z M486.746522,136 L488.746522,136 L488.746522,145 L486.746522,145 L486.746522,136 Z M486.746522,154 L488.746522,154 L488.746522,163 L486.746522,163 L486.746522,154 Z M486.746522,172 L488.746522,172 L488.746522,181 L486.746522,181 L486.746522,172 Z M486.746522,190 L488.746522,190 L488.746522,199 L486.746522,199 L486.746522,190 Z M486.746522,208 L488.746522,208 L488.746522,217 L486.746522,217 L486.746522,208 Z M486.746522,226 L488.746522,226 L488.746522,235 L486.746522,235 L486.746522,226 Z M486.746522,244 L488.746522,244 L488.746522,253 L486.746522,253 L486.746522,244 Z M486.746522,262 L488.746522,262 L488.746522,271 L486.746522,271 L486.746522,262 Z M486.746522,280 L488.746522,280 L488.746522,289 L486.746522,289 L486.746522,280 Z M486.746522,298 L488.746522,298 L488.746522,307 L486.746522,307 L486.746522,298 Z M486.746522,316 L488.746522,316 L488.746522,325 L486.746522,325 L486.746522,316 Z M486.746522,334 L488.746522,334 L488.746522,343 L486.746522,343 L486.746522,334 Z M486.746522,352 L488.746522,352 L488.746522,361 L486.746522,361 L486.746522,352 Z M486.746522,370 L488.746522,370 L488.746522,379 L486.746522,379 L486.746522,370 Z M486.746522,388 L488.746522,388 L488.746522,397 L486.746522,397 L486.746522,388 Z M486.746522,406 L488.746522,406 L488.746522,415 L486.746522,415 L486.746522,406 Z M486.746522,424 L488.746522,424 L488.746522,433 L486.746522,433 L486.746522,424 Z M486.746522,442 L488.746522,442 L488.746522,451 L486.746522,451 L486.746522,442 Z M486.746522,460 L488.746522,460 L488.746522,469 L486.746522,469 L486.746522,460 Z M486.746522,478 L488.746522,478 L488.746522,487 L486.746522,487 L486.746522,478 Z M486.746522,496 L488.746522,496 L488.746522,497.746522 L486.746522,497.746522 L486.746522,496 Z" id="Path-2-Copy" fill="#666666" fill-rule="nonzero" transform="translate(487.746522, 10.873261) rotate(-270.000000) translate(-487.746522, -10.873261) "></path>
                    <path d="M2715.91599,-459.83053 L2717.91599,-459.83053 L2717.91599,-450.83053 L2715.91599,-450.83053 L2715.91599,-459.83053 Z M2715.91599,-441.83053 L2717.91599,-441.83053 L2717.91599,-432.83053 L2715.91599,-432.83053 L2715.91599,-441.83053 Z M2715.91599,-423.83053 L2717.91599,-423.83053 L2717.91599,-414.83053 L2715.91599,-414.83053 L2715.91599,-423.83053 Z M2715.91599,-405.83053 L2717.91599,-405.83053 L2717.91599,-396.83053 L2715.91599,-396.83053 L2715.91599,-405.83053 Z M2715.91599,-387.83053 L2717.91599,-387.83053 L2717.91599,-378.83053 L2715.91599,-378.83053 L2715.91599,-387.83053 Z M2715.91599,-369.83053 L2717.91599,-369.83053 L2717.91599,-360.83053 L2715.91599,-360.83053 L2715.91599,-369.83053 Z M2715.91599,-351.83053 L2717.91599,-351.83053 L2717.91599,-342.83053 L2715.91599,-342.83053 L2715.91599,-351.83053 Z M2715.91599,-333.83053 L2717.91599,-333.83053 L2717.91599,-324.83053 L2715.91599,-324.83053 L2715.91599,-333.83053 Z M2715.91599,-315.83053 L2717.91599,-315.83053 L2717.91599,-306.83053 L2715.91599,-306.83053 L2715.91599,-315.83053 Z M2715.91599,-297.83053 L2717.91599,-297.83053 L2717.91599,-288.83053 L2715.91599,-288.83053 L2715.91599,-297.83053 Z M2715.91599,-279.83053 L2717.91599,-279.83053 L2717.91599,-270.83053 L2715.91599,-270.83053 L2715.91599,-279.83053 Z M2715.91599,-261.83053 L2717.91599,-261.83053 L2717.91599,-252.83053 L2715.91599,-252.83053 L2715.91599,-261.83053 Z M2715.91599,-243.83053 L2717.91599,-243.83053 L2717.91599,-234.83053 L2715.91599,-234.83053 L2715.91599,-243.83053 Z M2715.91599,-225.83053 L2717.91599,-225.83053 L2717.91599,-216.83053 L2715.91599,-216.83053 L2715.91599,-225.83053 Z M2715.91599,-207.83053 L2717.91599,-207.83053 L2717.91599,-198.83053 L2715.91599,-198.83053 L2715.91599,-207.83053 Z M2715.91599,-189.83053 L2717.91599,-189.83053 L2717.91599,-180.83053 L2715.91599,-180.83053 L2715.91599,-189.83053 Z M2715.91599,-171.83053 L2717.91599,-171.83053 L2717.91599,-162.83053 L2715.91599,-162.83053 L2715.91599,-171.83053 Z M2715.91599,-153.83053 L2717.91599,-153.83053 L2717.91599,-144.83053 L2715.91599,-144.83053 L2715.91599,-153.83053 Z M2715.91599,-135.83053 L2717.91599,-135.83053 L2717.91599,-126.83053 L2715.91599,-126.83053 L2715.91599,-135.83053 Z M2715.91599,-117.83053 L2717.91599,-117.83053 L2717.91599,-108.83053 L2715.91599,-108.83053 L2715.91599,-117.83053 Z M2715.91599,-99.8305299 L2717.91599,-99.8305299 L2717.91599,-90.8305299 L2715.91599,-90.8305299 L2715.91599,-99.8305299 Z M2715.91599,-81.8305299 L2717.91599,-81.8305299 L2717.91599,-72.8305299 L2715.91599,-72.8305299 L2715.91599,-81.8305299 Z M2715.91599,-63.8305299 L2717.91599,-63.8305299 L2717.91599,-54.8305299 L2715.91599,-54.8305299 L2715.91599,-63.8305299 Z M2715.91599,-45.8305299 L2717.91599,-45.8305299 L2717.91599,-36.8305299 L2715.91599,-36.8305299 L2715.91599,-45.8305299 Z M2715.91599,-27.8305299 L2717.91599,-27.8305299 L2717.91599,-18.8305299 L2715.91599,-18.8305299 L2715.91599,-27.8305299 Z M2715.91599,-9.83052991 L2717.91599,-9.83052991 L2717.91599,-0.830529912 L2715.91599,-0.830529912 L2715.91599,-9.83052991 Z M2715.91599,8.16947009 L2717.91599,8.16947009 L2717.91599,17.1694701 L2715.91599,17.1694701 L2715.91599,8.16947009 Z M2715.91599,26.1694701 L2717.91599,26.1694701 L2717.91599,35.1694701 L2715.91599,35.1694701 L2715.91599,26.1694701 Z M2715.91599,44.1694701 L2717.91599,44.1694701 L2717.91599,53.1694701 L2715.91599,53.1694701 L2715.91599,44.1694701 Z M2715.91599,62.1694701 L2717.91599,62.1694701 L2717.91599,71.1694701 L2715.91599,71.1694701 L2715.91599,62.1694701 Z M2715.91599,80.1694701 L2717.91599,80.1694701 L2717.91599,89.1694701 L2715.91599,89.1694701 L2715.91599,80.1694701 Z M2715.91599,98.1694701 L2717.91599,98.1694701 L2717.91599,107.16947 L2715.91599,107.16947 L2715.91599,98.1694701 Z M2715.91599,116.16947 L2717.91599,116.16947 L2717.91599,125.16947 L2715.91599,125.16947 L2715.91599,116.16947 Z M2715.91599,134.16947 L2717.91599,134.16947 L2717.91599,143.16947 L2715.91599,143.16947 L2715.91599,134.16947 Z M2715.91599,152.16947 L2717.91599,152.16947 L2717.91599,161.16947 L2715.91599,161.16947 L2715.91599,152.16947 Z M2715.91599,170.16947 L2717.91599,170.16947 L2717.91599,179.16947 L2715.91599,179.16947 L2715.91599,170.16947 Z M2715.91599,188.16947 L2717.91599,188.16947 L2717.91599,197.16947 L2715.91599,197.16947 L2715.91599,188.16947 Z M2715.91599,206.16947 L2717.91599,206.16947 L2717.91599,215.16947 L2715.91599,215.16947 L2715.91599,206.16947 Z M2715.91599,224.16947 L2717.91599,224.16947 L2717.91599,233.16947 L2715.91599,233.16947 L2715.91599,224.16947 Z M2715.91599,242.16947 L2717.91599,242.16947 L2717.91599,251.16947 L2715.91599,251.16947 L2715.91599,242.16947 Z M2715.91599,260.16947 L2717.91599,260.16947 L2717.91599,269.16947 L2715.91599,269.16947 L2715.91599,260.16947 Z M2715.91599,278.16947 L2717.91599,278.16947 L2717.91599,287.16947 L2715.91599,287.16947 L2715.91599,278.16947 Z M2715.91599,296.16947 L2717.91599,296.16947 L2717.91599,305.16947 L2715.91599,305.16947 L2715.91599,296.16947 Z M2715.91599,314.16947 L2717.91599,314.16947 L2717.91599,323.16947 L2715.91599,323.16947 L2715.91599,314.16947 Z M2715.91599,332.16947 L2717.91599,332.16947 L2717.91599,341.16947 L2715.91599,341.16947 L2715.91599,332.16947 Z M2715.91599,350.16947 L2717.91599,350.16947 L2717.91599,359.16947 L2715.91599,359.16947 L2715.91599,350.16947 Z M2715.91599,368.16947 L2717.91599,368.16947 L2717.91599,377.16947 L2715.91599,377.16947 L2715.91599,368.16947 Z M2715.91599,386.16947 L2717.91599,386.16947 L2717.91599,395.16947 L2715.91599,395.16947 L2715.91599,386.16947 Z M2715.91599,404.16947 L2717.91599,404.16947 L2717.91599,413.16947 L2715.91599,413.16947 L2715.91599,404.16947 Z M2715.91599,422.16947 L2717.91599,422.16947 L2717.91599,431.16947 L2715.91599,431.16947 L2715.91599,422.16947 Z M2715.91599,440.16947 L2717.91599,440.16947 L2717.91599,449.16947 L2715.91599,449.16947 L2715.91599,440.16947 Z M2715.91599,458.16947 L2717.91599,458.16947 L2717.91599,467.16947 L2715.91599,467.16947 L2715.91599,458.16947 Z M2715.91599,476.16947 L2717.91599,476.16947 L2717.91599,484.83053 L2715.91599,484.83053 L2715.91599,476.16947 Z" id="Path-2-Copy-4" fill="#666666" fill-rule="nonzero" transform="translate(2716.915992, 12.500000) rotate(-270.000000) translate(-2716.915992, -12.500000) "></path>
                </g>
                <g id="Group-24" transform="translate(24.000000, 1617.000000) rotate(-90.000000) translate(-24.000000, -1617.000000) translate(-1142.000000, 1594.000000)">
                    <g id="Group" transform="translate(1248.000000, 0.000000)">
                        <path d="M20.6718362,6.98515152 L24.1433987,8.63827652 L22.9862112,9.46483902 C22.5453757,10.7873456 22.1045467,12.164936 21.6637112,13.5976515 L27.6149612,13.5976515 L27.6149612,6.81983902 C27.6149612,5.38712352 27.5598576,3.73401505 27.4496487,1.86046402 L31.5824612,3.67890152 L29.9293362,4.83608902 L29.9293362,13.5976515 L34.7233987,13.5976515 L36.7071487,11.6139015 L39.6827737,14.5895265 L29.9293362,14.5895265 L29.9293362,23.8470265 L33.8968362,23.8470265 L35.8805862,21.8632765 L38.8562112,24.8389015 L29.9293362,24.8389015 L29.9293362,36.0801515 L35.3846487,36.0801515 L37.5337112,33.931089 L40.6746487,37.0720265 L21.8290237,37.0720265 C20.3963082,37.0720265 19.0738214,37.2373374 17.8615237,37.567964 L16.3737112,36.0801515 L27.6149612,36.0801515 L27.6149612,24.8389015 L24.8046487,24.8389015 C23.3719332,24.8389015 22.0494464,25.0042124 20.8371487,25.334839 L19.3493362,23.8470265 L27.6149612,23.8470265 L27.6149612,14.5895265 L21.4983987,14.5895265 C20.286101,18.1162108 18.7983033,21.0367024 17.0349612,23.351089 L16.5390237,23.020464 C17.8615303,20.0448241 18.8533954,17.0967807 19.5146487,14.1762453 C20.175902,11.2557098 20.5616273,8.85870255 20.6718362,6.98515152 Z M9.4305862,12.771089 C8.76933289,15.1956845 7.61215696,19.6590773 5.9590237,26.1614015 C7.61215696,26.8226548 9.32036905,27.4838982 11.0837112,28.1451515 C12.2960089,25.0593028 13.5082885,19.9346665 14.7205862,12.771089 L9.4305862,12.771089 Z M12.7368362,3.51358902 L11.2490237,4.50546402 C10.918397,6.0483884 10.3673609,8.47294748 9.5958987,11.779214 L14.7205862,11.779214 L15.8777737,10.126089 L18.3574612,12.109839 L17.0349612,13.101714 C15.7124546,20.2652915 14.3899678,25.5552386 13.0674612,28.971714 C15.16143,29.8533851 16.456365,30.6523875 16.9523049,31.3687453 C17.4482449,32.085103 17.6411076,32.9667609 17.5308987,34.0137453 C17.4206898,35.0607297 16.8972055,35.0607297 15.9604299,34.0137453 C15.0236544,32.9667609 13.7838231,31.8922404 12.2408987,30.7901515 C9.48567659,35.088298 6.39987411,38.2843077 2.9833987,40.3782765 L2.4874612,40.0476515 C6.12435438,36.741385 8.76932793,33.3249608 10.4224612,29.7982765 C8.76932793,28.6961877 6.56518331,27.5941154 3.8099612,26.4920265 C5.02225892,22.0836711 6.12433124,17.510071 7.1162112,12.771089 C5.6834957,12.771089 4.36100892,12.9363999 3.1487112,13.2670265 L1.6608987,11.779214 L7.2815237,11.779214 C8.16319477,7.04023199 8.71423093,3.67891143 8.9346487,1.69515152 L12.7368362,3.51358902 Z M76.2168362,9.63015152 C73.6820319,13.2670447 71.0646101,16.2701918 68.3644924,18.6396828 C65.6643748,21.0091738 63.046953,23.0204557 60.5121487,24.673589 L75.2249612,24.673589 L76.5474612,23.020464 L79.1924612,25.1695265 L77.8699612,26.1614015 L77.8699612,32.4432765 C77.8699612,34.0964098 77.9250648,35.8597255 78.0352737,37.7332765 L75.5555862,39.0557765 L75.5555862,36.576089 L59.0243362,36.576089 L59.0243362,38.559839 L56.5446487,39.551714 C56.6548576,35.6944031 56.7099612,33.1596367 56.7099612,31.947339 L56.7099612,26.8226515 C52.8526502,28.9166203 48.8300863,30.4595216 44.6421487,31.4514015 L44.4768362,30.955464 C49.2158182,29.1921219 53.2934858,27.0981845 56.7099612,24.673589 L56.7099612,23.020464 L58.5283987,23.681714 C61.063203,21.9183719 63.7081766,19.741779 66.4633987,17.1518703 C69.2186208,14.5619615 71.5329727,11.8343325 73.4065237,8.96890152 L59.0243362,8.96890152 C55.4976519,13.7078835 51.750606,17.2345149 47.7830862,19.5489015 L47.2871487,19.052964 C49.821953,17.179413 52.2740639,14.6446467 54.6435549,11.448589 C57.013046,8.25253137 58.7488099,4.94631443 59.8508987,1.52983902 L63.4877737,4.17483902 L61.6693362,4.83608902 C60.7876651,6.15859563 60.0713181,7.20556432 59.5202737,7.97702652 L73.4065237,7.97702652 L74.8943362,6.15858902 L78.0352737,8.63827652 L76.2168362,9.63015152 Z M55.5527737,12.771089 C59.1896669,14.3140134 61.1182934,15.5538447 61.3387112,16.4906203 C61.559129,17.4273958 61.3662663,18.3090536 60.7601174,19.1356203 C60.1539686,19.9621869 59.6029324,19.7417724 59.1069924,18.4743703 C58.6110525,17.2069681 57.2610139,15.4712042 55.0568362,13.2670265 L55.5527737,12.771089 Z M59.0243362,25.665464 L59.0243362,35.584214 L75.5555862,35.584214 L75.5555862,25.665464 L59.0243362,25.665464 Z" id="姓名" fill="#000000"></path>
                        <polygon id="Line" fill="#FF0000" fill-rule="nonzero" points="96.3538795 44.5423106 96.3538795 42.5423106 555.305489 42.5423106 555.305489 44.5423106"></polygon>
                    </g>
                    <g id="Group" transform="translate(1843.000000, 0.000000)">
                        <path d="M27.3539751,9.46483902 L20.3412112,9.46483902 L20.3412112,14.9201515 L22.3249612,14.9201515 C24.0013077,13.3594151 25.6776411,11.5409832 27.3539751,9.46483902 Z M27.5503086,9.22050106 C29.0045639,7.40194542 30.4588201,5.38943676 31.9130862,3.18296402 L34.7233987,5.66265152 L33.4008987,6.15858902 C30.204841,9.57506443 27.4496603,12.4955561 25.1352737,14.9201515 L35.5499612,14.9201515 L37.6990237,12.9364015 L40.6746487,15.9120265 L24.3087112,15.9120265 C22.3249513,17.7855775 20.2861175,19.5488932 18.1921487,21.2020265 L31.7477737,21.2020265 L34.0621487,19.052964 L37.0377737,22.1939015 L22.6555862,22.1939015 C22.1045418,23.626617 21.498402,25.3348291 20.8371487,27.318589 L31.4171487,27.318589 L32.7396487,25.665464 L35.3846487,27.979839 L34.0621487,28.8064015 C33.1804776,32.4432947 32.546786,34.9229574 32.1610549,36.245464 C31.7753239,37.5679706 31.1691841,38.5322839 30.3426174,39.1384328 C29.5160508,39.7445816 27.8353905,40.1578587 25.3005862,40.3782765 C25.1903773,38.8353521 23.2066471,37.5128654 19.3493362,36.4107765 L19.5146487,35.7495265 C23.9230041,36.7414065 26.650633,37.237339 27.6976174,37.237339 C28.7446018,37.237339 29.4609489,36.7965101 29.8466799,35.914839 C30.232411,35.0331679 30.8661026,32.4984016 31.7477737,28.310464 L20.6718362,28.310464 L19.5146487,29.632964 L17.3655862,27.649214 L18.8533987,26.4920265 C19.2942342,25.3899377 19.6799595,23.9572437 20.0105862,22.1939015 L18.8533987,22.689839 L18.0268362,21.367339 C15.8226585,23.0204723 13.3980994,24.5358217 10.7530862,25.9134328 C8.10807297,27.2910438 5.51820304,28.4206679 2.9833987,29.302339 L2.8180862,28.641089 C5.90393496,27.2083735 8.98973743,25.4726096 12.0755862,23.4337453 C15.161435,21.3948809 18.2472374,18.8876664 21.3330862,15.9120265 L7.1162112,15.9120265 C5.6834957,15.9120265 4.36100892,16.0773374 3.1487112,16.407964 L1.6608987,14.9201515 L18.0268362,14.9201515 L18.0268362,9.46483902 L13.0674612,9.46483902 C11.6347457,9.46483902 10.3122589,9.63014986 9.0999612,9.96077652 L7.6121487,8.47296402 L18.0268362,8.47296402 C18.0268362,4.94627972 17.9717326,2.63192786 17.8615237,1.52983902 L21.9943362,3.01765152 L20.3412112,4.34015152 L20.3412112,8.47296402 L22.9862112,8.47296402 L25.1352737,6.65452652 L27.5503086,9.22050106 Z M77.8699612,17.730464 L79.5230862,16.077339 L82.0027737,18.5570265 L80.5149612,19.5489015 C80.0741257,27.1533145 79.6332967,32.0024327 79.1924612,34.0964015 C78.7516257,36.1903703 78.0077268,37.6506161 76.9607424,38.4771828 C75.913758,39.3037494 74.8943412,39.8823374 73.9024612,40.212964 C73.4616257,38.4496219 71.69831,37.0720315 68.6124612,36.0801515 L68.7777737,35.4189015 C70.7615336,35.8597371 72.4972975,36.1628069 73.9851174,36.3281203 C75.4729374,36.4934336 76.4372507,35.4189131 76.8780862,33.1045265 C77.3189217,30.7901399 77.7597507,25.9961254 78.2005862,18.722339 L74.7290237,18.722339 C73.4065171,24.8940365 71.0921652,29.5778439 67.7858987,32.7739015 C64.4796322,35.9699592 60.4570682,38.3394146 55.7180862,39.882339 L55.5527737,39.221089 C59.9611291,37.2373291 63.5704159,34.5923555 66.3807424,31.286089 C69.191069,27.9798225 71.0921437,23.7919477 72.0840237,18.722339 L68.4471487,18.722339 C67.5654776,21.58777 66.2429908,24.315399 64.4796487,26.9053078 C62.7163065,29.4952165 59.6856077,31.8922238 55.3874612,34.0964015 L55.0568362,33.4351515 C57.7018494,31.7820182 59.9610977,29.6880809 61.8346487,27.1532765 C63.7081997,24.6184722 65.0306865,21.8081878 65.8021487,18.722339 L61.9999612,18.722339 L60.5121487,19.714214 L58.6937112,17.399839 L60.5121487,16.738589 C64.8102952,13.1016958 68.7777555,9.35464997 72.4146487,5.49733902 L61.9999612,5.49733902 L60.1815237,5.82796402 L58.8590237,4.50546402 L72.4146487,4.50546402 L74.0677737,2.85233902 L76.7127737,5.16671402 L75.0596487,5.99327652 C70.7615022,10.4016319 66.5185238,14.3139886 62.3305862,17.730464 L77.8699612,17.730464 Z M53.4037112,27.8145265 L60.3468362,24.673589 L60.5121487,25.334839 C52.4669001,29.8534033 47.617782,32.8841021 45.9646487,34.4270265 L43.8155862,31.4514015 C45.5789283,30.9003571 47.9483838,30.0186992 50.9240237,28.8064015 L50.9240237,14.5895265 L49.6015237,14.5895265 C48.1688082,14.5895265 46.8463214,14.7548374 45.6340237,15.085464 L44.1462112,13.5976515 L50.9240237,13.5976515 L50.9240237,8.14233902 C50.9240237,6.26878798 50.8689201,4.17485059 50.7587112,1.86046402 L54.8915237,3.84421402 L53.4037112,5.33202652 L53.4037112,13.5976515 L55.8833987,13.5976515 L57.7018362,11.779214 L60.5121487,14.5895265 L53.4037112,14.5895265 L53.4037112,27.8145265 Z" id="考场" fill="#000000"></path>
                        <polygon id="Line" fill="#FF0000" fill-rule="nonzero" points="96.3538795 44.5423106 96.3538795 42.5423106 225.337201 42.5423106 225.337201 44.5423106"></polygon>
                    </g>
                    <g id="Group" transform="translate(2105.000000, 0.000000)">
                        <path d="M1.9915237,39.4715625 C3.42423919,37.046967 4.55386331,34.0713718 5.38042995,30.5446875 C6.20699658,27.0180032 6.6202737,22.7750248 6.6202737,17.815625 C6.6202737,12.8562252 6.56517008,8.88876488 6.4549612,5.913125 L9.0999612,7.56625 L22.1596487,7.56625 C22.1596487,6.79478781 21.9392342,5.94068177 21.4983987,5.00390625 C21.0575632,4.06713073 20.3963198,2.99261023 19.5146487,1.7803125 L19.8452737,1.4496875 C22.7107047,2.77219411 24.2811577,3.90181823 24.5566799,4.83859375 C24.8322022,5.77536927 24.418925,6.68457893 23.3168362,7.56625 L33.2355862,7.56625 L35.8805862,4.92125 L39.5174612,8.558125 L9.0999612,8.558125 C9.0999612,12.5256448 9.04485758,16.4655534 8.9346487,20.3779688 C8.82443981,24.2903841 8.21830004,27.8721192 7.1162112,31.1232813 C6.01412235,34.3744433 4.47122111,37.2673832 2.4874612,39.8021875 L1.9915237,39.4715625 Z M15.0512112,12.195 L18.3574612,14.17875 C17.585999,14.3991678 16.5941339,15.942069 15.3818362,18.8075 C17.9166405,20.1300066 19.4870936,21.1218717 20.0932424,21.783125 C20.6993913,22.4443783 20.9198058,23.1607253 20.7544924,23.9321875 C20.5891791,24.7036497 20.2861092,25.3097895 19.8452737,25.750625 C19.4044382,26.1914605 18.9360574,25.7230798 18.4401174,24.3454688 C17.9441775,22.9678577 16.869657,21.342301 15.2165237,19.46875 C13.4531815,22.8852254 11.524555,25.530199 9.4305862,27.40375 L8.9346487,27.073125 C10.4775731,24.9791562 11.7449562,22.7474598 12.7368362,20.3779688 C13.7287162,18.0084777 14.5001668,15.2808488 15.0512112,12.195 Z M22.8208987,27.734375 L22.8208987,16.3278125 C22.8208987,13.7930082 22.7657951,11.7541744 22.6555862,10.21125 L26.2924612,12.0296875 L24.9699612,13.0215625 L24.9699612,27.734375 L31.2518362,27.734375 L33.5662112,25.42 L36.8724612,28.72625 L24.9699612,28.72625 L24.9699612,36.991875 L34.3927737,36.991875 L36.8724612,34.5121875 L40.3440237,37.98375 L13.2327737,37.98375 C11.8000582,37.98375 10.4775714,38.1490608 9.2652737,38.4796875 L7.7774612,36.991875 L22.8208987,36.991875 L22.8208987,28.72625 L17.3655862,28.72625 C15.9328707,28.72625 14.6103839,28.8915608 13.3980862,29.2221875 L11.9102737,27.734375 L22.8208987,27.734375 Z M31.7477737,12.3603125 L35.3846487,14.509375 C34.5029776,14.7297928 33.5111125,16.0522795 32.4090237,18.476875 C34.943828,19.5789638 36.6520401,20.4881735 37.5337112,21.2045313 C38.4153823,21.920889 38.8286594,22.7198914 38.7735549,23.6015625 C38.7184505,24.4832336 38.4704842,25.144477 38.0296487,25.5853125 C37.5888132,26.026148 37.037777,25.5577673 36.3765237,24.1801563 C35.7152704,22.8025452 34.2825764,21.1218849 32.0783987,19.138125 C30.5354743,22.1137649 28.717055,24.5934276 26.6230862,26.5771875 L26.1271487,26.2465625 C27.5598642,24.1525937 28.8272474,21.672931 29.9293362,18.8075 C31.031425,15.942069 31.6375648,13.793028 31.7477737,12.3603125 Z M74.0677737,5.0865625 C74.0677737,10.0459623 74.1228773,13.241972 74.2330862,14.6746875 L71.7533987,15.6665625 L71.7533987,14.0134375 L55.2221487,14.0134375 L55.2221487,15.50125 L52.7424612,16.3278125 C52.8526701,14.1236348 52.9077737,11.7817311 52.9077737,9.30203125 C52.9077737,6.82233135 52.8526701,4.48042769 52.7424612,2.27625 L55.2221487,3.59875 L71.5880862,3.59875 L73.0758987,1.945625 L75.3902737,3.929375 L74.0677737,5.0865625 Z M55.2221487,4.590625 L55.2221487,13.0215625 L71.7533987,13.0215625 L71.7533987,4.590625 L55.2221487,4.590625 Z M75.0596487,26.9078125 C74.0677687,32.6386745 73.1861109,35.9448914 72.4146487,36.8265625 C71.6431865,37.7082336 70.8717359,38.3419252 70.1002737,38.7276563 C69.3288115,39.1133873 68.0614283,39.5266645 66.2980862,39.9675 C66.0776684,38.3143667 64.3694563,36.8265691 61.1733987,35.5040625 L61.3387112,34.8428125 C65.4164399,36.0551102 68.0889653,36.4132837 69.3563674,35.9173438 C70.6237696,35.4214038 71.6982901,32.1427386 72.5799612,26.08125 L57.3712112,26.08125 L55.8833987,27.40375 L53.8996487,25.089375 C54.6711109,24.6485395 55.3048025,23.9321925 55.8007424,22.9403125 C56.2966824,21.9484325 56.7650632,20.6810494 57.2058987,19.138125 L47.7830862,19.138125 L46.2952737,19.46875 L44.9727737,18.14625 L76.8780862,18.14625 L79.0271487,15.9971875 L82.0027737,19.138125 L60.0162112,19.138125 L57.7018362,25.089375 L72.4146487,25.089375 L74.2330862,23.2709375 L76.7127737,25.750625 L75.0596487,26.9078125 Z" id="座号" fill="#000000"></path>
                        <polygon id="Line" fill="#FF0000" fill-rule="nonzero" points="96.3845518 44.5240152 96.3845518 42.5240152 225.367873 42.5240152 225.367873 44.5240152"></polygon>
                    </g>
                    <g id="Group-2">
                        <g id="Group-Copy">
                            <path d="M9.0999612,2.7721875 C12.6266455,5.08657407 14.5001684,6.82233796 14.7205862,7.97953125 C14.941004,9.13672454 14.6379341,10.1561414 13.8113674,11.0378125 C12.9848008,11.9194836 12.3511092,11.4786546 11.9102737,9.7153125 C11.4694382,7.95197035 10.3673658,5.74782572 8.6040237,3.1028125 L9.0999612,2.7721875 Z M17.8615237,1.945625 C21.0575813,4.37022046 22.7106898,6.16108796 22.8208987,7.31828125 C22.9311076,8.47547454 22.5453823,9.49489142 21.6637112,10.3765625 C20.7820401,11.2582336 20.1759003,10.7347492 19.8452737,8.80609375 C19.514647,6.87743827 18.6880928,4.70084546 17.3655862,2.27625 L17.8615237,1.945625 Z M33.4008987,18.476875 L32.9049612,18.14625 L35.5499612,13.5175 L7.2815237,13.5175 C7.50194146,14.9502155 7.55704508,16.1349432 7.4468362,17.0717187 C7.33662731,18.0084943 6.84069477,18.614634 5.9590237,18.8901563 C5.07735262,19.1656785 4.36100562,19.1656785 3.8099612,18.8901563 C3.25891677,18.614634 3.42422762,17.8707352 4.3058987,16.6584375 C5.18756977,15.4461398 5.84881316,13.407306 6.2896487,10.541875 L7.1162112,10.541875 L7.2815237,12.525625 L25.9618362,12.525625 C28.055805,8.44789628 29.5436026,4.81105765 30.4252737,1.615 L34.2274612,4.0946875 L32.5743362,4.7559375 C30.7007852,7.29074184 28.8272622,9.88061178 26.9537112,12.525625 L35.3846487,12.525625 L37.0377737,10.541875 L40.0133987,13.848125 C38.1398477,14.0685428 35.935703,15.611444 33.4008987,18.476875 Z M13.7287112,35.5040625 C16.4839333,35.944898 18.3023526,36.1377607 19.1840237,36.0826562 C20.0656948,36.0275518 20.5065237,35.4489638 20.5065237,34.346875 L20.5065237,27.8996875 L7.9427737,27.8996875 C6.5100582,27.8996875 5.18757142,28.0649983 3.9752737,28.395625 L2.4874612,26.9078125 L20.5065237,26.9078125 C20.5065237,25.9159325 20.4514201,24.6485494 20.3412112,23.105625 L22.1596487,24.0975 L27.9455862,19.3034375 L14.2246487,19.3034375 C12.7919332,19.3034375 11.4694464,19.4687483 10.2571487,19.799375 L8.7693362,18.3115625 L27.7802737,18.3115625 L29.5987112,16.6584375 L32.4090237,19.9646875 C31.5273526,19.8544786 30.3426249,20.1851003 28.8548049,20.9565625 C27.366985,21.7280247 25.3005994,22.9403042 22.6555862,24.5934375 L23.9780862,25.42 L22.8208987,26.08125 L22.8208987,26.9078125 L33.5662112,26.9078125 L36.2112112,24.2628125 L39.8480862,27.8996875 L22.8208987,27.8996875 L22.8208987,36 C22.8208987,37.6531333 21.5535155,38.97562 19.0187112,39.9675 C19.1289201,38.7552023 17.3656044,37.5429227 13.7287112,36.330625 L13.7287112,35.5040625 Z M65.4715237,1.7803125 L65.9674612,1.4496875 C68.2818478,2.66198523 69.8523008,3.76405754 70.6788674,4.7559375 C71.5054341,5.74781746 71.4503305,6.84988977 70.5135549,8.0621875 C69.5767794,9.27448523 68.915536,9.08162257 68.5298049,7.48359375 C68.1440739,5.88556493 67.124657,3.98449019 65.4715237,1.7803125 Z M58.5283987,9.219375 L77.0433987,9.219375 L79.1924612,7.0703125 L82.3333987,10.21125 L63.9837112,10.21125 C62.220369,10.21125 60.8978823,10.3765608 60.0162112,10.7071875 L58.5283987,9.219375 Z M65.1408987,11.53375 L68.4471487,13.848125 C67.3450599,14.1787517 65.884814,15.3910312 64.0663674,17.485 C62.2479209,19.5789688 60.2366389,21.3422845 58.0324612,22.775 L57.7018362,22.2790625 C59.1345517,20.9565559 60.5396939,19.2758956 61.9173049,17.2370313 C63.294916,15.1981669 64.3694365,13.2970921 65.1408987,11.53375 Z M72.0840237,12.3603125 C77.0434235,14.5644902 79.7710525,16.1900468 80.2669924,17.2370313 C80.7629324,18.2840157 80.7629324,19.4136398 80.2669924,20.6259375 C79.7710525,21.8382352 78.9996018,21.5076135 77.9526174,19.6340625 C76.905633,17.7605115 74.8392475,15.5012632 71.7533987,12.85625 L72.0840237,12.3603125 Z M73.5718362,19.138125 L77.2087112,21.6178125 C76.3270401,21.8382303 75.335175,23.1056134 74.2330862,25.42 C73.1309974,27.7343866 71.8085106,29.8834276 70.2655862,31.8671875 C74.233106,35.0632451 78.4760844,36.7163536 82.9946487,36.8265625 L82.9946487,37.4878125 C81.1210977,37.928648 80.1292326,38.7000987 80.0190237,39.8021875 C75.2800417,38.369472 71.5880994,36.220431 68.9430862,33.355 C64.8653575,36.6612665 60.2366538,38.8654112 55.0568362,39.9675 L54.7262112,39.4715625 C60.3468643,37.4878026 64.6449463,34.9530363 67.6205862,31.8671875 C66.0776618,29.5528009 64.479657,25.8057551 62.8265237,20.6259375 L63.4877737,20.460625 C65.2511158,24.9791893 67.0144315,28.2854062 68.7777737,30.379375 C70.8717425,27.4037351 72.4697474,23.6566893 73.5718362,19.138125 Z M53.4037112,31.2059375 C53.4037112,32.7488619 53.4588148,35.3387318 53.5690237,38.975625 L50.9240237,40.1328125 C51.0342326,33.8509061 51.0893362,27.2384722 51.0893362,20.2953125 C49.5464118,24.0424146 47.3973708,27.6241496 44.6421487,31.040625 L44.1462112,30.5446875 C47.23206,25.5852877 49.5464118,19.6340972 51.0893362,12.6909375 L47.1218362,12.6909375 L45.4687112,13.0215625 L44.1462112,11.6990625 L51.0893362,11.6990625 C51.0893362,8.72342262 51.0342326,5.36210207 50.9240237,1.615 L54.8915237,3.59875 L53.4037112,4.590625 L53.4037112,11.6990625 L55.5527737,11.6990625 L57.3712112,9.880625 L60.1815237,12.6909375 L53.4037112,12.6909375 L53.4037112,15.50125 C55.49768,16.2727122 56.930374,17.0441628 57.7018362,17.815625 C58.4732984,18.5870872 58.5835056,19.6065041 58.0324612,20.8739062 C57.4814168,22.1413084 56.875277,22.0311012 56.2140237,20.5432812 C55.5527704,19.0554613 54.6160089,17.7054227 53.4037112,16.493125 L53.4037112,31.2059375 Z" id="学校" fill="#000000"></path>
                            <polygon id="Line" fill="#FF0000" fill-rule="nonzero" points="96.7668075 44.5906818 96.7668075 42.5906818 632.240725 42.5906818 632.240725 44.5906818"></polygon>
                        </g>
                        <g id="Group-Copy-2" transform="translate(680.000000, 0.000000)">
                            <path d="M166.495505,18.391714 L166.495505,26.987964 L176.08363,26.987964 L176.08363,18.391714 L166.495505,18.391714 Z M166.82613,1.19921402 L170.463005,3.51358902 L168.975192,4.17483902 L166.330192,8.14233902 L187.820817,8.14233902 L190.300505,5.66265152 L193.772067,9.13421402 L178.563317,9.13421402 L178.563317,17.399839 L185.34113,17.399839 L187.655505,15.085464 L190.961755,18.391714 L178.563317,18.391714 L178.563317,26.987964 L189.30863,26.987964 L191.788317,24.5082765 L195.25988,27.979839 L178.563317,27.979839 L178.563317,34.261714 C178.563317,36.135265 178.618421,37.7883735 178.72863,39.221089 L175.918317,40.3782765 C176.028526,36.9618011 176.08363,34.4821384 176.08363,32.939214 L176.08363,27.979839 L162.032067,27.979839 C160.599352,27.979839 159.276865,28.1451499 158.064567,28.4757765 L156.576755,26.987964 L164.015817,26.987964 C164.015817,21.9183553 163.960714,18.2264131 163.850505,15.9120265 L166.495505,17.399839 L176.08363,17.399839 L176.08363,9.13421402 L165.834255,9.13421402 C164.732166,10.7873473 163.57499,12.3026967 162.362692,13.6803078 C161.150395,15.0579188 159.497286,16.5732682 157.403317,18.2264015 L156.90738,17.8957765 C158.89114,15.8018077 160.764663,13.3496968 162.528005,10.5393703 C164.291347,7.72904371 165.724041,4.61568943 166.82613,1.19921402 Z M214.270817,25.1695265 C207.217449,26.9328687 203.084678,28.3655627 201.87238,29.4676515 L199.88863,26.326714 C200.990719,26.1062962 202.147895,25.3072938 203.360192,23.9296828 C204.57249,22.5520717 206.501117,20.0448572 209.14613,16.407964 C207.713414,16.6283818 206.225617,16.9038999 204.682692,17.2345265 C203.139768,17.5651532 201.982592,18.0610857 201.21113,18.722339 L199.392692,15.746714 C200.494781,15.746714 201.982579,14.0660537 203.85613,10.7046828 C205.729681,7.34331179 206.94196,4.45037197 207.493005,2.02577652 L210.964567,4.00952652 L209.476755,5.00140152 C207.382786,8.6382947 204.903123,12.2200297 202.037692,15.746714 L209.642067,15.5814015 C211.074783,13.4874327 212.121752,11.5037025 212.783005,9.63015152 L215.923942,12.109839 L214.270817,12.771089 C211.184969,16.9590266 207.54813,21.4224195 203.360192,26.1614015 L214.270817,24.342964 L214.270817,25.1695265 Z M199.392692,34.4270265 C202.368332,33.8759821 207.272554,32.4983917 214.105505,30.294214 L214.105505,30.955464 C209.476732,32.9392239 206.363377,34.3443661 204.765349,35.1709328 C203.16732,35.9974994 202.037696,36.7965018 201.376442,37.567964 L199.392692,34.4270265 Z M231.62863,7.64640152 C229.534661,11.944548 228.101967,14.9201432 227.330505,16.5732765 L231.298005,16.5732765 L232.95113,14.9201515 L235.265505,17.2345265 L233.777692,18.391714 C232.344977,23.3511138 230.471454,27.5940922 228.157067,31.1207765 C230.581663,33.8759986 233.447051,35.7495216 236.753317,36.7414015 L236.753317,37.237339 C235.210393,37.1271301 234.108321,37.6781663 233.447067,38.890464 C230.912263,37.3475396 228.653015,35.3087059 226.669255,32.7739015 C223.252779,36.080168 219.009801,38.4496235 213.940192,39.882339 L213.609567,39.3864015 C218.458758,37.2924327 222.371115,34.5372519 225.346755,31.1207765 C223.142577,27.7043011 221.544572,23.4062191 220.552692,18.2264015 C220.111857,23.9572635 218.899577,28.3655528 216.915817,31.4514015 C214.932057,34.5372503 211.901359,37.2373274 207.82363,39.551714 L207.493005,39.0557765 C211.570734,35.9699278 214.270811,32.9667807 215.593317,30.0462453 C216.915824,27.1257098 217.797482,23.7643893 218.238317,19.9621828 C218.679153,16.1599763 218.954671,11.7241352 219.06488,6.65452652 C217.632164,6.65452652 216.309678,6.81983736 215.09738,7.15046402 L213.609567,5.66265152 L229.314255,5.66265152 L230.96738,4.00952652 L233.61238,6.65452652 L231.62863,7.64640152 Z M221.213942,6.65452652 C221.103734,9.96079305 220.993526,13.2119064 220.883317,16.407964 C222.536451,22.3592438 224.465077,26.6573258 226.669255,29.302339 C228.653015,26.436908 230.25102,22.5245513 231.463317,17.5651515 L226.834567,17.5651515 L226.008005,18.8876515 L223.858942,16.5732765 C224.740613,16.3528587 225.704927,15.1405792 226.751911,12.9364015 C227.798896,10.7322238 228.708105,8.63828643 229.479567,6.65452652 L221.213942,6.65452652 Z" id="年级" fill="#000000"></path>
                            <polygon id="Line" fill="#FF0000" fill-rule="nonzero" points="-0.598970927 44.5423106 -0.598970927 42.5423106 138.819434 42.5423106 138.819434 44.5423106"></polygon>
                        </g>
                        <g id="Group-Copy-3" transform="translate(958.000000, 1.000000)">
                            <path d="M179.019062,14.509375 L179.680313,14.509375 C179.680313,16.8237616 179.625209,18.5870773 179.515,19.799375 C179.404791,21.0116727 178.963962,21.8657788 178.1925,22.3617188 C177.421038,22.8576587 176.704691,22.9127623 176.043438,22.5270313 C175.382184,22.1413002 175.63015,21.4249532 176.787344,20.3779688 C177.944537,19.3309843 178.688436,17.374806 179.019062,14.509375 Z M182.16,1.615 L185.962187,3.4334375 L184.639688,4.7559375 C184.639688,8.17241292 184.557032,12.5531504 184.391719,17.8982813 C184.226405,23.2434121 183.179437,27.6241496 181.250781,31.040625 C179.322126,34.4571004 175.327114,37.4326957 169.265625,39.9675 L169.100313,39.4715625 C174.500548,36.4959226 178.054731,33.3274647 179.762969,29.9660937 C181.471206,26.6047228 182.325312,22.0862263 182.325312,16.4104687 C182.325312,10.7347112 182.270209,5.80293761 182.16,1.615 Z M171.414688,29.056875 L178.688437,26.411875 L178.85375,27.073125 C170.367666,30.930436 165.573651,33.4652023 164.471563,34.6775 L162.487812,31.701875 C163.70011,31.4814572 165.959358,30.8202138 169.265625,29.718125 L169.265625,18.14625 C167.722701,18.14625 166.34511,18.3115608 165.132812,18.6421875 L163.645,17.154375 L169.265625,17.154375 L169.265625,6.905 L168.604375,6.905 C167.17166,6.905 165.849173,7.07031085 164.636875,7.4009375 L163.149063,5.913125 L173.398438,5.913125 L175.382187,3.929375 L178.1925,6.905 L171.414688,6.905 L171.414688,17.154375 L173.067813,17.154375 L174.720937,15.3359375 L177.200625,18.14625 L171.414688,18.14625 L171.414688,29.056875 Z M185.135625,6.4090625 L196.376875,6.4090625 L198.195312,4.590625 L200.840313,7.4009375 L193.40125,7.4009375 L193.40125,19.3034375 L195.880938,19.3034375 L197.699375,17.485 L200.344375,20.2953125 L193.40125,20.2953125 L193.40125,34.6775 L196.542188,34.6775 L198.525937,32.69375 L201.33625,35.669375 L187.945938,35.669375 C186.73364,35.669375 185.52136,35.8346858 184.309063,36.1653125 L182.82125,34.6775 L191.252187,34.6775 L191.252187,20.2953125 C189.599054,20.2953125 188.16636,20.4606233 186.954062,20.79125 L185.46625,19.3034375 L191.252187,19.3034375 L191.252187,7.4009375 L190.590937,7.4009375 C189.158222,7.4009375 187.835735,7.56624835 186.623437,7.896875 L185.135625,6.4090625 Z" id="班" fill="#000000"></path>
                            <polygon id="Line" fill="#FF0000" fill-rule="nonzero" points="-0.368126693 44 -0.368126693 42 145 42 145 44"></polygon>
                        </g>
                    </g>
                </g>
            </g>
        </g>
    </g>
</svg>