<?xml version="1.0" encoding="UTF-8" standalone="no"?>
<svg width="788px" height="88px" viewBox="0 0 788 88" version="1.1" xmlns="http://www.w3.org/2000/svg" xmlns:xlink="http://www.w3.org/1999/xlink">
    <!-- Generator: Sketch 47.1 (45422) - http://www.bohemiancoding.com/sketch -->
    <title>Group 5</title>
    <desc>Created with Sketch.</desc>
    <defs></defs>
    <g id="有痕答题卡" stroke="none" stroke-width="1" fill="none" fill-rule="evenodd">
        <g id="2-copy-4" transform="translate(-435.000000, -889.000000)">
            <g id="Group-15" transform="translate(434.000000, 578.000000)">
                <g id="Group-5" transform="translate(1.000000, 311.000000)">
                    <path d="M2,2 L2,86 L786,86 L786,2 L2,2 Z M788,0 L788,88 L0,88 L0,0 L788,0 Z" id="Rectangle-3" fill="#FF0000" fill-rule="nonzero"></path>
                    <path d="M57.4317784,29.328125 L50.140625,29.328125 L50.140625,35 L52.203125,35 C53.9460184,33.3773062 55.688898,31.486687 57.4317784,29.328125 L57.4317784,29.328125 Z M57.6359058,29.0740874 C59.1478915,27.1833396 60.6598781,25.0909393 62.171875,22.796875 L65.09375,25.375 L63.71875,25.890625 C60.3958167,29.4427261 57.531262,32.4791541 55.125,35 L65.953125,35 L68.1875,32.9375 L71.28125,36.03125 L54.265625,36.03125 C52.2031147,37.9791764 50.0833442,39.8124914 47.90625,41.53125 L62,41.53125 L64.40625,39.296875 L67.5,42.5625 L52.546875,42.5625 C51.9739555,44.0520908 51.3437534,45.8281147 50.65625,47.890625 L61.65625,47.890625 L63.03125,46.171875 L65.78125,48.578125 L64.40625,49.4375 C63.4895787,53.2187689 62.8307312,55.7968681 62.4296875,57.171875 C62.0286438,58.5468819 61.3984418,59.549476 60.5390625,60.1796875 C59.6796832,60.809899 57.9323048,61.2395822 55.296875,61.46875 C55.1822911,59.8645753 53.1198117,58.4895891 49.109375,57.34375 L49.28125,56.65625 C53.8646063,57.6875052 56.7005154,58.203125 57.7890625,58.203125 C58.8776096,58.203125 59.6223938,57.7447963 60.0234375,56.828125 C60.4244812,55.9114537 61.0833287,53.2760634 62,48.921875 L50.484375,48.921875 L49.28125,50.296875 L47.046875,48.234375 L48.59375,47.03125 C49.0520856,45.8854109 49.4531233,44.3958425 49.796875,42.5625 L48.59375,43.078125 L47.734375,41.703125 C45.4426969,43.4218836 42.9218888,44.9973887 40.171875,46.4296875 C37.4218612,47.8619863 34.7291798,49.0364537 32.09375,49.953125 L31.921875,49.265625 C35.1302244,47.7760342 38.3385256,45.9713648 41.546875,43.8515625 C44.7552244,41.7317602 47.9635256,39.1250155 51.171875,36.03125 L36.390625,36.03125 C34.9010342,36.03125 33.526048,36.2031233 32.265625,36.546875 L30.71875,35 L47.734375,35 L47.734375,29.328125 L42.578125,29.328125 C41.0885342,29.328125 39.713548,29.4999983 38.453125,29.84375 L36.90625,28.296875 L47.734375,28.296875 C47.734375,24.63019 47.6770839,22.2239641 47.5625,21.078125 L51.859375,22.625 L50.140625,24 L50.140625,28.296875 L52.890625,28.296875 L55.125,26.40625 L57.6359058,29.0740874 L57.6359058,29.0740874 Z M57.6359058,29.0740874 C57.5678633,29.159175 57.4998208,29.2438542 57.4317784,29.328125 L57.875,29.328125 L57.6359058,29.0740874 L57.6359058,29.0740874 Z M83.828125,23.828125 L87.78125,26.0625 C86.6354109,26.6354195 85.2604247,28.75519 83.65625,32.421875 L93.796875,32.421875 C93.796875,27.1510153 93.7395839,23.312512 93.625,20.90625 L97.75,22.625 L96.375,23.828125 L96.375,32.421875 L106.171875,32.421875 L108.75,29.84375 L112.015625,33.453125 L96.375,33.453125 L96.375,44.109375 L104.109375,44.109375 L106.859375,41.53125 L109.953125,45.140625 L96.375,45.140625 L96.375,57.515625 L108.75,57.515625 L111.5,54.765625 L114.9375,58.546875 L80.734375,58.546875 C79.2447842,58.546875 77.869798,58.7187483 76.609375,59.0625 L75.0625,57.515625 L93.796875,57.515625 L93.796875,45.140625 L87.265625,45.140625 C85.7760342,45.140625 84.401048,45.3124983 83.140625,45.65625 L81.59375,44.109375 L93.796875,44.109375 L93.796875,33.453125 L83.3125,33.453125 C80.6770702,38.380233 78.3281353,41.8749897 76.265625,43.9375 L75.75,43.59375 C77.6979264,40.6145684 79.3593681,37.3489761 80.734375,33.796875 C82.1093819,30.2447739 83.1406216,26.9218905 83.828125,23.828125 Z M131.4375,31.21875 C131.4375,34.4270994 131.494791,37.3489452 131.609375,39.984375 L129.03125,40.84375 C129.145834,39.2395753 129.203125,35.973983 129.203125,31.046875 C126.567695,35.2864795 123.416685,38.5520719 119.75,40.84375 L119.578125,40.15625 C123.015642,36.8333167 125.765615,32.9948134 127.828125,28.640625 L125.765625,28.640625 C124.276034,28.640625 122.901048,28.8124983 121.640625,29.15625 L120.09375,27.609375 L129.203125,27.609375 C129.203125,25.4322808 129.145834,23.1979281 129.03125,20.90625 L132.640625,22.453125 L131.4375,23.65625 L131.4375,27.609375 L134.1875,27.609375 L136.078125,25.71875 L138.828125,28.640625 L131.4375,28.640625 L131.4375,30.53125 C133.729178,31.2187534 135.361974,31.9921832 136.335938,32.8515625 C137.309901,33.7109418 137.453128,34.7135359 136.765625,35.859375 C136.078122,37.0052141 135.419274,36.8333408 134.789062,35.34375 C134.158851,33.8541592 133.041675,32.479173 131.4375,31.21875 Z M146.046875,27.609375 C146.046875,25.8906164 145.989584,23.6562638 145.875,20.90625 L149.484375,22.453125 L148.28125,23.484375 L148.28125,27.609375 L153.265625,27.609375 L155.328125,25.546875 L158.25,28.640625 L148.453125,28.640625 C149.598964,30.4739675 151.059887,32.1640548 152.835938,33.7109375 C154.611988,35.2578202 156.645822,36.3177055 158.9375,36.890625 L158.9375,37.40625 C157.562493,37.5208339 156.588545,38.1510359 156.015625,39.296875 C154.182282,37.9218681 152.664069,36.5182363 151.460938,35.0859375 C150.257806,33.6536387 149.197921,31.9635514 148.28125,30.015625 C148.28125,35.4010686 148.338541,38.6093698 148.453125,39.640625 L145.875,40.671875 C145.989584,37.4635256 146.046875,34.3698066 146.046875,31.390625 C143.526029,35.1718939 140.489601,38.1510308 136.9375,40.328125 L136.59375,39.8125 C140.260435,36.4895667 143.067699,32.7656456 145.015625,28.640625 C143.526034,28.640625 142.151048,28.8124983 140.890625,29.15625 L139.34375,27.609375 L146.046875,27.609375 Z M125.421875,42.21875 L148.28125,42.21875 L150.34375,40.15625 L153.265625,43.25 L131.09375,43.25 C129.604159,43.25 128.229173,43.4218733 126.96875,43.765625 L125.421875,42.21875 Z M131.609375,57 C135.390644,57.5729195 137.424478,57.7734384 137.710938,57.6015625 C137.997397,57.4296866 138.140625,57.1718767 138.140625,56.828125 L138.140625,47.890625 L124.390625,47.890625 C122.901034,47.890625 121.526048,48.0624983 120.265625,48.40625 L118.71875,46.859375 L153.78125,46.859375 L156.015625,44.625 L159.109375,47.890625 L140.546875,47.890625 L140.546875,57 C140.546875,58.1458391 140.317711,59.033851 139.859375,59.6640625 C139.401039,60.294274 138.3698,60.8958305 136.765625,61.46875 C136.078122,59.7499914 134.359389,58.4895873 131.609375,57.6875 L131.609375,57 Z M131.4375,49.09375 L134.53125,51.84375 L132.8125,52.1875 C128.687479,55.5104333 124.906267,57.9739503 121.46875,59.578125 L121.296875,58.890625 C125.53648,56.0260273 128.916654,52.760435 131.4375,49.09375 Z M144.671875,49.953125 C149.484399,52.1302192 152.43489,53.8203065 153.523438,55.0234375 C154.611985,56.2265685 154.89844,57.4010359 154.382812,58.546875 C153.867185,59.6927141 153.236983,59.6927141 152.492188,58.546875 C151.747392,57.4010359 150.716152,56.1406319 149.398438,54.765625 C148.080723,53.3906181 146.447926,52.0156319 144.5,50.640625 L144.671875,49.953125 Z M181.28125,35.34375 C181.28125,33.9687431 181.223959,32.3645925 181.109375,30.53125 L183.515625,31.90625 L187.640625,31.90625 L187.984375,27.4375 L183.171875,27.4375 C181.682284,27.4375 180.307298,27.6093733 179.046875,27.953125 L177.5,26.40625 L188.15625,26.40625 C188.270834,24.6874914 188.328125,22.9114675 188.328125,21.078125 L191.9375,22.453125 L190.734375,23.484375 L190.390625,26.40625 L196.75,26.40625 L198.8125,24.34375 L201.90625,27.4375 L190.21875,27.4375 L189.875,31.90625 L195.03125,31.90625 L196.234375,30.359375 L198.8125,32.25 L197.609375,33.28125 L197.609375,50.296875 L197.78125,50.296875 L199.84375,48.234375 L202.9375,51.328125 L181.28125,51.328125 C179.791659,51.328125 178.416673,51.4999983 177.15625,51.84375 L175.609375,50.296875 L181.28125,50.296875 L181.28125,35.34375 Z M183.515625,32.9375 L183.515625,36.203125 L195.375,36.203125 L195.375,32.9375 L183.515625,32.9375 Z M183.515625,37.234375 L183.515625,40.84375 L195.375,40.84375 L195.375,37.234375 L183.515625,37.234375 Z M183.515625,41.875 L183.515625,45.484375 L195.375,45.484375 L195.375,41.875 L183.515625,41.875 Z M183.515625,46.515625 L183.515625,50.296875 L195.375,50.296875 L195.375,46.515625 L183.515625,46.515625 Z M184.546875,52.015625 L187.296875,54.9375 C186.26562,55.0520839 184.804697,55.739577 182.914062,57 C181.023428,58.260423 178.416683,59.6354092 175.09375,61.125 L174.75,60.609375 C179.333356,57.8593612 182.598949,54.9948066 184.546875,52.015625 Z M191.765625,53.046875 L192.109375,52.53125 C195.20314,53.6770891 197.638012,54.7083287 199.414062,55.625 C201.190113,56.5416713 201.877606,57.8593664 201.476562,59.578125 C201.075519,61.2968836 200.35938,61.3541747 199.328125,59.75 C198.29687,58.1458253 195.776062,55.9114727 191.765625,53.046875 Z M172.34375,47.71875 L179.046875,45.65625 L179.21875,46.34375 C170.624957,49.8958511 165.927087,52.3593681 165.125,53.734375 L163.0625,50.296875 C165.468762,49.7239555 167.817697,49.0937534 170.109375,48.40625 L170.109375,33.96875 L169.078125,33.96875 C167.588534,33.96875 166.213548,34.1406233 164.953125,34.484375 L163.40625,32.9375 L170.109375,32.9375 L170.109375,26.0625 C170.109375,25.0312448 170.052084,23.5416764 169.9375,21.59375 L173.71875,23.484375 L172.34375,24.6875 L172.34375,32.9375 L174.40625,32.9375 L176.296875,31.046875 L179.21875,33.96875 L172.34375,33.96875 L172.34375,47.71875 Z" id="考生禁填" fill="#FF0000"></path>
                    <g id="Group-8" transform="translate(330.000000, 28.000000)">
                        <path d="M7.53125,19.828125 L10.046875,19.390625 L10.046875,13.703125 L12.125,14.796875 L11.359375,15.453125 L11.359375,18.515625 C11.359375,19.9010486 11.395833,20.8489558 11.46875,21.359375 L10.046875,22.234375 L10.046875,19.9375 C5.96352125,20.8854214 3.55729531,21.8697866 2.828125,22.890625 L1.734375,21.140625 C2.02604313,20.7760398 2.171875,20.3020863 2.171875,19.71875 C2.171875,16.8020688 2.13541703,14.7968805 2.0625,13.703125 L4.25,14.796875 L3.484375,15.453125 L3.484375,20.59375 L6.21875,20.046875 L6.21875,12.171875 L3.703125,12.171875 C2.75520359,12.171875 1.88021234,12.2812489 1.078125,12.5 L0.09375,11.515625 L6.21875,11.515625 L6.21875,6.265625 L4.03125,6.265625 C3.08332859,7.86979969 2.06250547,9.2552025 0.96875,10.421875 L0.75,10.203125 C1.77083844,8.45311625 2.59114273,6.68490477 3.2109375,4.8984375 C3.83073227,3.11197023 4.24999891,1.56250656 4.46875,0.25 L6.65625,1.453125 C6.14583078,1.81771016 5.76302211,2.25520578 5.5078125,2.765625 C5.25260289,3.27604422 4.83333625,4.22395141 4.25,5.609375 L9.28125,5.609375 L10.59375,4.296875 L12.34375,6.265625 L7.53125,6.265625 L7.53125,11.515625 L10.15625,11.515625 L11.578125,10.09375 L13.4375,12.171875 L7.53125,12.171875 L7.53125,19.828125 Z M17.375,6.265625 C17.375,7.94271672 17.3020841,10.3124847 17.15625,13.375 L20.875,13.375 L20.875,6.265625 L17.375,6.265625 Z M15.734375,13.375 C15.8802091,11.1874891 15.953125,8.81772109 15.953125,6.265625 C15.0052036,6.265625 14.1302123,6.37499891 13.328125,6.59375 L12.34375,5.609375 L15.953125,5.609375 C15.953125,3.42186406 15.8802091,1.59896562 15.734375,0.140625 L18.359375,1.234375 L17.375,2.109375 L17.375,5.609375 L20.65625,5.609375 L21.3125,4.625 L22.953125,5.9375 L22.1875,6.59375 L22.1875,13.375 L23.0625,13.375 L24.375,12.0625 L25.90625,14.03125 L18.359375,14.03125 C19.3802134,17.1666823 20.5468684,19.4453054 21.859375,20.8671875 C23.1718816,22.2890696 24.4114525,23.1822898 25.578125,23.546875 L25.578125,23.984375 C24.4843695,23.911458 23.6822942,24.2395797 23.171875,24.96875 C21.5677003,23.4374923 20.3645873,21.7421968 19.5625,19.8828125 C18.7604127,18.0234282 18.1770852,16.0729269 17.8125,14.03125 L17.046875,14.03125 C16.5364558,17.2395994 15.4609457,19.7916572 13.8203125,21.6875 C12.1796793,23.5833428 10.229178,24.9322877 7.96875,25.734375 L7.859375,25.40625 C9.75521781,24.3854116 11.3775974,23.0182377 12.7265625,21.3046875 C14.0755276,19.5911373 15.0416637,17.1666823 15.625,14.03125 L15.078125,14.03125 C14.1302036,14.03125 13.2552123,14.1406239 12.453125,14.359375 L11.46875,13.375 L15.734375,13.375 Z M45.0929499,5.390625 L40.453125,5.390625 L40.453125,9 L41.765625,9 C42.874739,7.96737666 43.9838442,6.76425539 45.0929499,5.390625 L45.0929499,5.390625 Z M45.2228492,5.22896473 C46.1850219,4.02576156 47.1471951,2.69423409 48.109375,1.234375 L49.96875,2.875 L49.09375,3.203125 C46.9791561,5.46355297 45.1562577,7.39582531 43.625,9 L50.515625,9 L51.9375,7.6875 L53.90625,9.65625 L43.078125,9.65625 C41.7656184,10.8958395 40.4166736,12.0624945 39.03125,13.15625 L48,13.15625 L49.53125,11.734375 L51.5,13.8125 L41.984375,13.8125 C41.6197898,14.7604214 41.2187522,15.8906184 40.78125,17.203125 L47.78125,17.203125 L48.65625,16.109375 L50.40625,17.640625 L49.53125,18.1875 C48.9479137,20.593762 48.5286471,22.2343706 48.2734375,23.109375 C48.0182279,23.9843794 47.6171902,24.6223938 47.0703125,25.0234375 C46.5234348,25.4244812 45.4114667,25.6979159 43.734375,25.84375 C43.661458,24.8229116 42.3489711,23.9479203 39.796875,23.21875 L39.90625,22.78125 C42.8229312,23.4375033 44.6276007,23.765625 45.3203125,23.765625 C46.0130243,23.765625 46.4869779,23.4739613 46.7421875,22.890625 C46.9973971,22.3072887 47.4166637,20.6302222 48,17.859375 L40.671875,17.859375 L39.90625,18.734375 L38.484375,17.421875 L39.46875,16.65625 C39.7604181,15.9270797 40.0156239,14.9791725 40.234375,13.8125 L39.46875,14.140625 L38.921875,13.265625 C37.4635344,14.3593805 35.8593837,15.3619746 34.109375,16.2734375 C32.3593663,17.1849004 30.6458417,17.9322888 28.96875,18.515625 L28.859375,18.078125 C30.9010519,17.1302036 32.9426981,15.9817776 34.984375,14.6328125 C37.0260519,13.2838474 39.0676981,11.6250098 41.109375,9.65625 L31.703125,9.65625 C30.7552036,9.65625 29.8802123,9.76562391 29.078125,9.984375 L28.09375,9 L38.921875,9 L38.921875,5.390625 L35.640625,5.390625 C34.6927036,5.390625 33.8177123,5.49999891 33.015625,5.71875 L32.03125,4.734375 L38.921875,4.734375 C38.921875,2.40103 38.885417,0.869795313 38.8125,0.140625 L41.546875,1.125 L40.453125,2 L40.453125,4.734375 L42.203125,4.734375 L43.625,3.53125 L45.2228492,5.22896473 L45.2228492,5.22896473 Z M45.2228492,5.22896473 C45.1795494,5.28311137 45.1362496,5.33699812 45.0929499,5.390625 L45.375,5.390625 L45.2228492,5.22896473 L45.2228492,5.22896473 Z" id="缺考" fill="#000000"></path>
                        
                    </g>
                    <g id="Group-8" transform="translate(513.000000, 27.000000)">
                        <path d="M18.59375,19.296875 C19.7604225,19.5156261 20.7083297,19.643229 21.4375,19.6796875 C22.1666703,19.716146 22.6041659,19.2057345 22.75,18.1484375 C22.8958341,17.0911405 22.96875,15.9062566 22.96875,14.59375 L17.171875,14.59375 C17.171875,19.0416889 17.208333,21.6302047 17.28125,22.359375 L15.640625,23.015625 C15.713542,20.9739481 15.75,18.1666845 15.75,14.59375 L12.140625,14.59375 C11.1927036,14.59375 10.3177123,14.7031239 9.515625,14.921875 L8.53125,13.9375 L15.75,13.9375 L15.75,10.65625 L12.796875,10.65625 C12.4322898,10.65625 11.8489623,10.7656239 11.046875,10.984375 L10.0625,10 L15.75,10 L15.75,6.390625 L12.03125,6.390625 C11.3020797,6.390625 10.5364623,6.49999891 9.734375,6.71875 L8.75,5.734375 L15.75,5.734375 C15.75,3.98436625 15.713542,2.5260475 15.640625,1.359375 L18.15625,2.5625 L17.171875,3.21875 L17.171875,5.734375 L21.875,5.734375 L23.296875,4.3125 L25.265625,6.390625 L17.171875,6.390625 L17.171875,10 L20.78125,10 L22.3125,8.6875 L24.171875,10.65625 L17.171875,10.65625 L17.171875,13.9375 L22.75,13.9375 L23.515625,12.734375 L25.375,14.15625 L24.5,14.8125 C24.427083,17.5833472 24.1901062,19.4062456 23.7890625,20.28125 C23.3880188,21.1562544 22.5677145,21.7395819 21.328125,22.03125 C21.401042,21.0833286 20.4895928,20.3177112 18.59375,19.734375 L18.59375,19.296875 Z M3.609375,2.5625 L3.9375,2.34375 C5.1041725,3.14583734 5.94270578,3.83853875 6.453125,4.421875 C6.96354422,5.00521125 7.14583406,5.60676773 7,6.2265625 C6.85416594,6.84635727 6.52604422,7.32031086 6.015625,7.6484375 C5.50520578,7.97656414 5.17708406,7.5572975 5.03125,6.390625 C4.88541594,5.2239525 4.41146234,3.94792359 3.609375,2.5625 Z M7,20.609375 C7.65625328,21.2656283 8.5677025,21.9036427 9.734375,22.5234375 C10.9010475,23.1432323 12.632801,23.507812 14.9296875,23.6171875 C17.226574,23.726563 19.3593652,23.744792 21.328125,23.671875 C23.2968848,23.598958 25.1197833,23.4895841 26.796875,23.34375 L26.796875,23.78125 C25.3385344,24.1458352 24.572917,24.7656206 24.5,25.640625 C21.2187336,25.567708 18.5390729,25.476563 16.4609375,25.3671875 C14.3828021,25.257812 12.6145906,24.9296902 11.15625,24.3828125 C9.69790938,23.8359348 8.60417031,23.1979203 7.875,22.46875 C7.14582969,21.7395797 6.59896016,21.356771 6.234375,21.3203125 C5.86978984,21.283854 5.23177539,21.6484337 4.3203125,22.4140625 C3.40884961,23.1796913 2.88020906,23.7812478 2.734375,24.21875 L1.09375,22.6875 C2.40625656,21.8124956 3.86457531,21.0833363 5.46875,20.5 L5.46875,11.53125 L4.703125,11.53125 C3.75520359,11.53125 2.88021234,11.6406239 2.078125,11.859375 L1.09375,10.875 L5.359375,10.875 L6.125,9.78125 L7.875,11.09375 L7,11.75 L7,20.609375 Z M39.8125,8.796875 C37.406238,11.7864733 34.7812642,14.6301948 31.9375,17.328125 L40.03125,16.125 L40.140625,16.5625 C35.401018,17.5833384 32.5208384,18.4947877 31.5,19.296875 L30.296875,17.328125 C30.9531283,17.1822909 31.8281195,16.5078185 32.921875,15.3046875 C34.0156305,14.1015565 35.2187434,12.5520928 36.53125,10.65625 C33.4687347,11.0937522 31.5729203,11.5677058 30.84375,12.078125 L29.859375,10.109375 C30.6614623,10.036458 31.6458275,9.0703218 32.8125,7.2109375 C33.9791725,5.3515532 34.8541637,3.54688375 35.4375,1.796875 L37.515625,3.21875 L36.53125,3.765625 C34.7812413,6.53647219 33.0677167,8.68749234 31.390625,10.21875 L36.859375,10.109375 C37.8802134,8.65103438 38.5729148,7.52083734 38.9375,6.71875 L40.796875,8.359375 L39.8125,8.796875 Z M29.96875,23.453125 C32.4479291,22.7968717 35.9114361,21.5573008 40.359375,19.734375 L40.578125,20.171875 C35.3280988,22.7239711 32.2656294,24.4739536 31.390625,25.421875 L29.96875,23.453125 Z M41.5625,15.359375 C41.5625,13.5364492 41.526042,12.1875044 41.453125,11.3125 L43.09375,12.1875 L50.421875,12.1875 L50.421875,4.75 L43.96875,4.75 C43.0208286,4.75 42.1458373,4.85937391 41.34375,5.078125 L40.359375,4.09375 L50.203125,4.09375 L51.40625,2.890625 L53.046875,4.53125 L51.84375,5.296875 L51.84375,10.65625 C51.84375,11.6770884 51.880208,12.6979116 51.953125,13.71875 L50.421875,14.484375 L50.421875,12.84375 L42.984375,12.84375 L42.984375,22.25 C42.984375,23.3437555 43.6041605,23.890625 44.84375,23.890625 L51.1875,23.890625 C51.7708363,23.890625 52.1354159,23.4713584 52.28125,22.6328125 C52.4270841,21.7942666 52.5,20.3177189 52.5,18.203125 L53.046875,18.203125 C53.119792,19.8072997 53.2291659,21.0286416 53.375,21.8671875 C53.5208341,22.7057334 53.8854137,23.3072898 54.46875,23.671875 C54.1041648,24.4010453 53.7213562,24.8567699 53.3203125,25.0390625 C52.9192688,25.2213551 52.3541703,25.3125 51.625,25.3125 L44.296875,25.3125 C42.4739492,25.3125 41.5625,24.3645928 41.5625,22.46875 L41.5625,15.359375 Z" id="违纪" fill="#000000"></path>
                    </g>
                </g>
            </g>
        </g>
    </g>
</svg>