<?xml version="1.0" encoding="UTF-8"?>
<svg width="502px" height="186px" viewBox="0 0 502 186" version="1.1" xmlns="http://www.w3.org/2000/svg" xmlns:xlink="http://www.w3.org/1999/xlink">
    <!-- Generator: Sketch 51.2 (57519) - http://www.bohemiancoding.com/sketch -->
    <title>Group 4 Copy 2</title>
    <desc>Created with Sketch.</desc>
    <defs></defs>
    <g id="Page-3" stroke="none" stroke-width="1" fill="none" fill-rule="evenodd">
        <g id="Group-28">
            <rect id="Rectangle-5-Copy-3" fill="#FFFFFF" x="2" y="6" width="304" height="180"></rect>
            <rect id="Rectangle-5-Copy-4" fill="#FFFFFF" x="350" y="6" width="146" height="180"></rect>
            <path d="M6,6 L6,180 L152,180 L152,6 L6,6 Z M158,0 L158,186 L0,186 L0,0 L158,0 Z" id="Rectangle-16" fill="#000000" fill-rule="nonzero"></path>
            <path d="M156,6 L156,180 L302,180 L302,6 L156,6 Z M308,0 L308,186 L150,186 L150,0 L308,0 Z" id="Rectangle-16" fill="#000000" fill-rule="nonzero"></path>
            <circle id="Oval-2" fill="#000000" cx="327" cy="169" r="9"></circle>
            <path d="M350,6 L350,180 L496,180 L496,6 L350,6 Z M502,0 L502,186 L344,186 L344,0 L502,0 Z" id="Rectangle-16" fill="#000000" fill-rule="nonzero"></path>
        </g>
    </g>
</svg>